STARTFONT 2.1
FONT -FontForge-Rubik Mono One-Book-R-Normal--30-290-75-75-P-258-ISO10646-1
SIZE 29 75 75
FONTBOUNDINGBOX 27 32 -1 -6
COMMENT "Generated by fontforge, http://fontforge.sourceforge.net"
COMMENT "Copyright (c) 2013, 2014, Hubert and Fischer, Philipp Hubert (philipp@hubertfischer.com), Sebastian Fischer (sebastian@hubertfischer.com)"
STARTPROPERTIES 41
FOUNDRY "FontForge"
FAMILY_NAME "Rubik Mono One"
WEIGHT_NAME "Book"
SLANT "R"
SETWIDTH_NAME "Normal"
ADD_STYLE_NAME ""
PIXEL_SIZE 30
POINT_SIZE 290
RESOLUTION_X 75
RESOLUTION_Y 75
SPACING "P"
AVERAGE_WIDTH 258
CHARSET_REGISTRY "ISO10646"
CHARSET_ENCODING "1"
FONTNAME_REGISTRY ""
CHARSET_COLLECTIONS "ISO8859-5 ISO8859-8 ISO10646-1"
FONT_NAME "RubikMonoOne-Regular"
FACE_NAME "Rubik Mono One Regular"
COPYRIGHT "Copyright (c) 2013, 2014, Hubert and Fischer, Philipp Hubert (philipp@hubertfischer.com), Sebastian Fischer (sebastian@hubertfischer.com)"
FONT_VERSION "1.001"
FONT_ASCENT 24
FONT_DESCENT 6
UNDERLINE_POSITION -3
UNDERLINE_THICKNESS 2
X_HEIGHT 20
CAP_HEIGHT 20
DEFAULT_CHAR 3
RAW_ASCENT 800
RAW_DESCENT 200
NORM_SPACE 26
RELATIVE_WEIGHT 40
RELATIVE_SETWIDTH 50
SUPERSCRIPT_X 0
SUPERSCRIPT_Y 14
SUPERSCRIPT_SIZE 19
SUBSCRIPT_X 0
SUBSCRIPT_Y 4
SUBSCRIPT_SIZE 19
FIGURE_WIDTH 26
AVG_LOWERCASE_WIDTH 260
AVG_UPPERCASE_WIDTH 260
ENDPROPERTIES
CHARS 531
STARTCHAR NULL
ENCODING 0
SWIDTH 0 0
DWIDTH 0 0
BBX 1 1 0 0
BITMAP
00
ENDCHAR
STARTCHAR space
ENCODING 32
SWIDTH 850 0
DWIDTH 26 0
BBX 1 1 0 0
BITMAP
00
ENDCHAR
STARTCHAR exclam
ENCODING 33
SWIDTH 850 0
DWIDTH 26 0
BBX 8 21 9 0
BITMAP
FF
FF
FF
FF
FF
FF
FF
FF
FF
FF
FF
FF
FF
00
00
FF
FF
FF
FF
FF
FF
ENDCHAR
STARTCHAR quotedbl
ENCODING 34
SWIDTH 850 0
DWIDTH 26 0
BBX 17 9 4 12
BITMAP
3FBF80
7FBF80
7F3F80
7F7F00
7E7F00
FE7F00
FE7E00
FC7E00
FC7C00
ENDCHAR
STARTCHAR numbersign
ENCODING 35
SWIDTH 850 0
DWIDTH 26 0
BBX 20 18 3 1
BITMAP
0FCF80
0F8F80
7FFFF0
7FFFF0
7FFFF0
7FFFF0
7FFFF0
1F1F00
1F1F00
1F1F00
FFFFE0
FFFFE0
FFFFE0
FFFFE0
FFFFE0
3E3E00
3E3E00
3E3E00
ENDCHAR
STARTCHAR dollar
ENCODING 36
SWIDTH 850 0
DWIDTH 26 0
BBX 22 26 2 -3
BITMAP
00F800
00F800
00F800
07FF00
1FFFC0
3FFFE0
7FFFF0
7FFFF8
7F87F8
7F8000
7FFE00
7FFFC0
3FFFF0
1FFFF8
0FFFF8
00FFF8
0007FC
FF07FC
FFFFF8
FFFFF8
7FFFF0
3FFFE0
0FFF80
00F800
00F800
00F800
ENDCHAR
STARTCHAR percent
ENCODING 37
SWIDTH 850 0
DWIDTH 26 0
BBX 24 21 1 0
BITMAP
3F0078
FF80F8
FFC1F0
F3C1E0
F3C3C0
F3C7C0
F3CF80
F3CF00
FFDE00
FFBE00
3F7CF8
007BFE
00FBFF
01F7DF
03E7CF
03C7CF
07C7CF
0F87DF
1F03FF
1E03FE
3E00FC
ENDCHAR
STARTCHAR ampersand
ENCODING 38
SWIDTH 850 0
DWIDTH 26 0
BBX 23 21 2 0
BITMAP
03F800
0FFE00
1FFF00
1FFF80
3FFF80
3F9F80
3F9F80
1FFF80
1FFF00
0FFE00
3FF87E
7FFCFC
7FFFFC
FEFFF8
FE7FF8
FF3FF0
FFFFE0
7FFFF0
7FFFF8
3FFFFC
07F9FE
ENDCHAR
STARTCHAR quotesingle
ENCODING 39
SWIDTH 850 0
DWIDTH 26 0
BBX 9 9 8 12
BITMAP
3F80
7F80
7F00
7F00
7F00
7E00
7E00
7E00
FC00
ENDCHAR
STARTCHAR parenleft
ENCODING 40
SWIDTH 850 0
DWIDTH 26 0
BBX 10 28 8 -5
BITMAP
03C0
0FC0
1FC0
3FC0
7FC0
FFC0
FE00
FC00
FC00
FC00
FC00
FC00
FC00
FC00
FC00
FC00
FC00
FC00
FC00
FC00
FC00
FE00
FFC0
7FC0
3FC0
1FC0
0FC0
03C0
ENDCHAR
STARTCHAR parenright
ENCODING 41
SWIDTH 850 0
DWIDTH 26 0
BBX 11 28 7 -5
BITMAP
F000
FE00
FF00
FF80
FFC0
7FC0
1FC0
0FE0
0FE0
07E0
07E0
07E0
07E0
07E0
07E0
07E0
07E0
07E0
07E0
0FE0
0FE0
1FC0
7FC0
FFC0
FF80
FF00
FE00
F000
ENDCHAR
STARTCHAR asterisk
ENCODING 42
SWIDTH 850 0
DWIDTH 26 0
BBX 13 12 6 10
BITMAP
0FC0
0F80
4F90
7FF8
7FF8
FFF8
7FF8
1FE0
3FF0
7DF0
3CE0
08C0
ENDCHAR
STARTCHAR plus
ENCODING 43
SWIDTH 850 0
DWIDTH 26 0
BBX 17 16 4 2
BITMAP
03F000
03F000
03F000
03F000
03F000
FFFF80
FFFF80
FFFF80
FFFF80
FFFF80
FFFF80
03F000
03F000
03F000
03F000
03F000
ENDCHAR
STARTCHAR comma
ENCODING 44
SWIDTH 850 0
DWIDTH 26 0
BBX 9 9 8 -3
BITMAP
3F80
7F80
7F00
7F00
7F00
7E00
7E00
7E00
FC00
ENDCHAR
STARTCHAR hyphen
ENCODING 45
SWIDTH 850 0
DWIDTH 26 0
BBX 13 6 6 7
BITMAP
FFF8
FFF8
FFF8
FFF8
FFF8
FFF8
ENDCHAR
STARTCHAR period
ENCODING 46
SWIDTH 850 0
DWIDTH 26 0
BBX 8 7 9 0
BITMAP
FF
FF
FF
FF
FF
FF
FF
ENDCHAR
STARTCHAR slash
ENCODING 47
SWIDTH 850 0
DWIDTH 26 0
BBX 17 26 4 -2
BITMAP
000F80
001F80
003F80
003F00
003F00
007E00
007E00
00FC00
00FC00
01FC00
01F800
03F800
03F000
03F000
07E000
07E000
0FC000
0FC000
1F8000
1F8000
3F8000
3F0000
7F0000
7E0000
7E0000
FC0000
ENDCHAR
STARTCHAR zero
ENCODING 48
SWIDTH 850 0
DWIDTH 26 0
BBX 20 21 3 0
BITMAP
03FC00
1FFF00
3FFFC0
7FFFC0
FFFFE0
FFFFE0
FF1FF0
FF0FF0
FF0FF0
FF0FF0
FF0FF0
FF0FF0
FF0FF0
FF0FF0
FF1FF0
FFFFE0
FFFFE0
7FFFE0
3FFFC0
1FFF00
03FC00
ENDCHAR
STARTCHAR one
ENCODING 49
SWIDTH 850 0
DWIDTH 26 0
BBX 20 21 3 0
BITMAP
01FE00
07FE00
0FFE00
3FFE00
7FFE00
FFFE00
7FFE00
7FFE00
3DFE00
11FE00
01FE00
01FE00
01FE00
01FE00
01FE00
7FFFF0
FFFFF0
FFFFF0
FFFFF0
FFFFF0
7FFFF0
ENDCHAR
STARTCHAR two
ENCODING 50
SWIDTH 850 0
DWIDTH 26 0
BBX 20 21 3 0
BITMAP
03FC00
0FFF00
3FFFC0
3FFFC0
7FFFE0
7FFFE0
FF9FE0
FF1FE0
003FE0
007FC0
00FF80
03FF00
07FE00
1FF800
3FF000
FFFFF0
FFFFF0
FFFFF0
FFFFF0
FFFFF0
FFFFF0
ENDCHAR
STARTCHAR three
ENCODING 51
SWIDTH 850 0
DWIDTH 26 0
BBX 21 21 2 0
BITMAP
3FFFF0
3FFFF0
3FFFF0
3FFFF0
3FFFF0
3FFFF0
003FC0
00FF80
03FF80
03FFE0
03FFF0
03FFF8
000FF8
0007F8
FF87F8
7FFFF8
7FFFF8
3FFFF0
3FFFE0
0FFFC0
03FE00
ENDCHAR
STARTCHAR four
ENCODING 52
SWIDTH 850 0
DWIDTH 26 0
BBX 22 21 2 0
BITMAP
007FC0
007FC0
00FFC0
01FFC0
03FFC0
07FFC0
07FFC0
0FFFC0
1FDFC0
3F9FC0
7F9FC0
FF1FC0
FFFFFC
FFFFFC
FFFFFC
FFFFFC
FFFFFC
FFFFFC
001FC0
001FC0
001FC0
ENDCHAR
STARTCHAR five
ENCODING 53
SWIDTH 850 0
DWIDTH 26 0
BBX 20 21 3 0
BITMAP
3FFFC0
3FFFC0
3FFFC0
3FFFC0
3FFFC0
7FFFC0
7F0000
7F7E00
7FFF80
7FFFC0
7FFFE0
7FFFE0
7F1FF0
000FF0
FF1FF0
FFFFF0
FFFFE0
7FFFE0
3FFFC0
1FFF00
07FC00
ENDCHAR
STARTCHAR six
ENCODING 54
SWIDTH 850 0
DWIDTH 26 0
BBX 20 21 3 0
BITMAP
00FF00
01FE00
03FE00
03FC00
07F800
0FF000
1FFF00
3FFF80
3FFFE0
7FFFE0
7FFFF0
FF0FF0
FF0FF0
FF0FF0
FF0FF0
FFFFF0
7FFFE0
7FFFE0
3FFFC0
0FFF00
03FC00
ENDCHAR
STARTCHAR seven
ENCODING 55
SWIDTH 850 0
DWIDTH 26 0
BBX 19 21 4 0
BITMAP
FFFFC0
FFFFE0
FFFFE0
FFFFE0
FFFFE0
FFFFC0
003FC0
007FC0
007F80
00FF80
01FF00
01FF00
03FE00
03FC00
07FC00
07F800
0FF800
0FF000
1FF000
1FE000
3FE000
ENDCHAR
STARTCHAR eight
ENCODING 56
SWIDTH 850 0
DWIDTH 26 0
BBX 21 21 2 0
BITMAP
01FE00
0FFF80
1FFFE0
3FFFF0
7FFFF0
7F8FF0
7F87F0
7F8FF0
3FFFF0
1FFFE0
3FFFE0
7FFFF0
7FFFF8
FF87F8
FF07F8
7F87F8
7FFFF8
7FFFF0
3FFFE0
0FFFC0
03FE00
ENDCHAR
STARTCHAR nine
ENCODING 57
SWIDTH 850 0
DWIDTH 26 0
BBX 20 21 3 0
BITMAP
03FC00
1FFF00
3FFF80
7FFFC0
FFFFE0
FFFFE0
FF1FF0
FE0FF0
FE0FF0
FF1FE0
FFFFE0
FFFFE0
7FFFC0
3FFF80
0FFF00
01FF00
03FE00
03FC00
07F800
0FF000
1FE000
ENDCHAR
STARTCHAR colon
ENCODING 58
SWIDTH 850 0
DWIDTH 26 0
BBX 8 17 9 0
BITMAP
FF
FF
FF
FF
FF
FF
FF
00
00
00
FF
FF
FF
FF
FF
FF
FF
ENDCHAR
STARTCHAR semicolon
ENCODING 59
SWIDTH 850 0
DWIDTH 26 0
BBX 9 20 8 -3
BITMAP
7F80
7F80
7F80
7F80
7F80
7F80
7F80
0000
0000
0000
0000
7F80
7F00
7F00
7F00
FE00
FE00
FC00
FC00
F800
ENDCHAR
STARTCHAR less
ENCODING 60
SWIDTH 850 0
DWIDTH 26 0
BBX 14 20 5 0
BITMAP
0004
001C
003C
00FC
01FC
07FC
1FFC
3FF0
FFE0
FF80
FF80
FFE0
3FF0
1FFC
07FC
03FC
00FC
003C
001C
0004
ENDCHAR
STARTCHAR equal
ENCODING 61
SWIDTH 850 0
DWIDTH 26 0
BBX 14 12 6 4
BITMAP
FFFC
FFFC
FFFC
FFFC
FFFC
0000
0000
FFFC
FFFC
FFFC
FFFC
FFFC
ENDCHAR
STARTCHAR greater
ENCODING 62
SWIDTH 850 0
DWIDTH 26 0
BBX 15 20 6 1
BITMAP
C000
E000
F800
FE00
FF00
FFC0
7FE0
3FF8
0FFC
03FE
07FE
0FFC
3FF8
7FE0
FFC0
FF00
FC00
F800
E000
C000
ENDCHAR
STARTCHAR question
ENCODING 63
SWIDTH 850 0
DWIDTH 26 0
BBX 20 21 3 0
BITMAP
03FC00
0FFF80
3FFFC0
7FFFE0
7FFFE0
FFFFF0
FF1FF0
FF1FE0
003FE0
007FC0
00FF80
01FF00
03FE00
03FC00
000000
03FC00
03FC00
03FC00
03FC00
03FC00
03FC00
ENDCHAR
STARTCHAR at
ENCODING 64
SWIDTH 850 0
DWIDTH 26 0
BBX 25 24 0 -2
BITMAP
00FFC000
07FFF800
0FFFFC00
1FFFFE00
3F807F00
7E001F00
7C79CF80
79FFEF80
F9FFE780
F9FFE780
FBE7E780
FBE3E780
FBE3E780
FBE7E780
F9FFE780
F9FFFF80
79FFFF00
7C7CFC00
7E000000
3F803F00
1FFFFF00
0FFFFE00
07FFF800
00FFC000
ENDCHAR
STARTCHAR A
ENCODING 65
SWIDTH 850 0
DWIDTH 26 0
BBX 24 21 1 0
BITMAP
01FF80
03FFC0
03FFC0
07FFC0
07FFE0
07FFE0
0FFFE0
0FEFF0
0FE7F0
1FE7F0
1FC7F8
1FC3F8
3FFFF8
3FFFFC
3FFFFC
7FFFFC
7FFFFE
7FFFFE
FF00FE
FF00FF
FE007F
ENDCHAR
STARTCHAR B
ENCODING 66
SWIDTH 850 0
DWIDTH 26 0
BBX 21 21 3 0
BITMAP
FFFF00
FFFFE0
FFFFF0
FFFFF0
FFFFF8
FE0FF8
FE07F8
FE0FF8
FFFFF0
FFFFE0
FFFFE0
FFFFF0
FFFFF8
FE07F8
FE07F8
FE07F8
FFFFF8
FFFFF8
FFFFF0
FFFFE0
FFFF80
ENDCHAR
STARTCHAR C
ENCODING 67
SWIDTH 850 0
DWIDTH 26 0
BBX 22 21 2 0
BITMAP
01FE00
0FFFC0
1FFFE0
3FFFF0
7FFFF8
FFFFFC
FF87FC
FF03FC
FF0000
FF0000
FF0000
FF0000
FF0000
FF03FC
FF87FC
FFFFFC
7FFFF8
3FFFF0
1FFFE0
0FFFC0
01FE00
ENDCHAR
STARTCHAR D
ENCODING 68
SWIDTH 850 0
DWIDTH 26 0
BBX 22 21 2 0
BITMAP
FFFE00
FFFFC0
FFFFE0
FFFFF0
FFFFF8
FFFFF8
FF07FC
FF03FC
FF03FC
FF03FC
FF03FC
FF03FC
FF03FC
FF03FC
FF07FC
FFFFF8
FFFFF8
FFFFF0
FFFFE0
FFFFC0
FFFE00
ENDCHAR
STARTCHAR E
ENCODING 69
SWIDTH 850 0
DWIDTH 26 0
BBX 20 21 3 0
BITMAP
FFFFF0
FFFFF0
FFFFF0
FFFFF0
FFFFF0
FFFFF0
FF0000
FF0000
FFFFC0
FFFFC0
FFFFC0
FFFFC0
FFFFC0
FFFFC0
FF0000
FFFFF0
FFFFF0
FFFFF0
FFFFF0
FFFFF0
FFFFF0
ENDCHAR
STARTCHAR F
ENCODING 70
SWIDTH 850 0
DWIDTH 26 0
BBX 21 21 3 0
BITMAP
FFFFF8
FFFFF8
FFFFF8
FFFFF8
FFFFF8
FFFFF8
FF0000
FF0000
FFFFE0
FFFFE0
FFFFE0
FFFFE0
FFFFE0
FFFFE0
FF0000
FF0000
FF0000
FF0000
FF0000
FF0000
FF0000
ENDCHAR
STARTCHAR G
ENCODING 71
SWIDTH 850 0
DWIDTH 26 0
BBX 22 21 2 0
BITMAP
01FE00
0FFFC0
3FFFE0
7FFFF8
7FFFF8
FFFFFC
FF87FC
FF0000
FF0FFC
FF0FFC
FF0FFC
FF0FFC
FF0FFC
FF01FC
FF83FC
FFFFFC
7FFFF8
7FFFF8
3FFFF0
0FFFC0
01FF00
ENDCHAR
STARTCHAR H
ENCODING 72
SWIDTH 850 0
DWIDTH 26 0
BBX 22 21 2 0
BITMAP
FF03F8
FF03FC
FF03FC
FF03FC
FF03FC
FF03FC
FF03FC
FFFFFC
FFFFFC
FFFFFC
FFFFFC
FFFFFC
FFFFFC
FFFFFC
FF03FC
FF03FC
FF03FC
FF03FC
FF03FC
FF03FC
FF03F8
ENDCHAR
STARTCHAR I
ENCODING 73
SWIDTH 850 0
DWIDTH 26 0
BBX 21 21 2 0
BITMAP
FFFFF8
FFFFF8
FFFFF8
FFFFF8
FFFFF8
FFFFF8
01FE00
01FE00
01FE00
01FE00
01FE00
01FE00
01FE00
01FE00
01FE00
FFFFF8
FFFFF8
FFFFF8
FFFFF8
FFFFF8
FFFFF8
ENDCHAR
STARTCHAR J
ENCODING 74
SWIDTH 850 0
DWIDTH 26 0
BBX 22 21 1 0
BITMAP
3FFFFC
3FFFFC
3FFFFC
3FFFFC
3FFFFC
3FFFFC
0003FC
0003FC
0003FC
0003FC
0003FC
0003FC
0003FC
FF03FC
FF87FC
FFFFFC
7FFFF8
3FFFF0
1FFFE0
0FFFC0
01FE00
ENDCHAR
STARTCHAR K
ENCODING 75
SWIDTH 850 0
DWIDTH 26 0
BBX 22 21 3 0
BITMAP
FE0FF8
FF0FF8
FF1FF0
FF3FE0
FF7FC0
FFFFC0
FFFF80
FFFF00
FFFE00
FFFC00
FFFE00
FFFE00
FFFF00
FFFF80
FFFFC0
FF7FE0
FF7FE0
FF3FF0
FF1FF8
FF0FFC
FF07FC
ENDCHAR
STARTCHAR L
ENCODING 76
SWIDTH 850 0
DWIDTH 26 0
BBX 19 21 4 0
BITMAP
FF0000
FF0000
FF0000
FF0000
FF0000
FF0000
FF0000
FF0000
FF0000
FF0000
FF0000
FF0000
FF0000
FF0000
FF0000
FFFFE0
FFFFE0
FFFFE0
FFFFE0
FFFFE0
FFFFE0
ENDCHAR
STARTCHAR M
ENCODING 77
SWIDTH 850 0
DWIDTH 26 0
BBX 23 21 1 0
BITMAP
FF00FE
FF01FE
FF81FE
FF83FE
FFC3FE
FFC7FE
FFE7FE
FFEFFE
FFFFFE
FFFFFE
FFFFFE
FEFFFE
FEFEFE
FE7EFE
FE7CFE
FE3CFE
FE00FE
FE00FE
FE00FE
FE00FE
FE00FE
ENDCHAR
STARTCHAR N
ENCODING 78
SWIDTH 850 0
DWIDTH 26 0
BBX 21 21 2 0
BITMAP
FE03F8
FF03F8
FF83F8
FF83F8
FFC3F8
FFE3F8
FFE3F8
FFF3F8
FFFBF8
FFFFF8
FFFFF8
FFFFF8
FFFFF8
FF7FF8
FF7FF8
FF3FF8
FF1FF8
FF0FF8
FF07F8
FF07F8
FF03F8
ENDCHAR
STARTCHAR O
ENCODING 79
SWIDTH 850 0
DWIDTH 26 0
BBX 22 21 2 0
BITMAP
03FE00
0FFFC0
3FFFE0
7FFFF0
7FFFF8
FFFFF8
FF87FC
FF03FC
FF03FC
FF03FC
FF03FC
FF03FC
FF03FC
FF03FC
FF87FC
FFFFF8
7FFFF8
7FFFF0
3FFFE0
0FFFC0
03FE00
ENDCHAR
STARTCHAR P
ENCODING 80
SWIDTH 850 0
DWIDTH 26 0
BBX 21 21 4 0
BITMAP
FFFE00
FFFFC0
FFFFE0
FFFFF0
FFFFF0
FFFFF8
FF07F8
FF07F8
FF07F8
FFFFF8
FFFFF8
FFFFF0
FFFFE0
FFFFC0
FFFF00
FF0000
FF0000
FF0000
FF0000
FF0000
FF0000
ENDCHAR
STARTCHAR Q
ENCODING 81
SWIDTH 850 0
DWIDTH 26 0
BBX 22 22 2 -1
BITMAP
03FE00
0FFFC0
3FFFE0
7FFFF0
7FFFF8
FFFFF8
FF87FC
FF03FC
FF03FC
FF03FC
FF03FC
FF03FC
FF03FC
FF03FC
FF87FC
FFFFF8
7FFFF8
7FFFF0
3FFFE0
1FFFF0
03FFF0
0007F8
ENDCHAR
STARTCHAR R
ENCODING 82
SWIDTH 850 0
DWIDTH 26 0
BBX 22 21 3 0
BITMAP
FFFF00
FFFFC0
FFFFE0
FFFFF0
FFFFF8
FFFFF8
FF07F8
FF07F8
FF07F8
FFFFF8
FFFFF8
FFFFF0
FFFFE0
FFFFC0
FFFFC0
FF1FE0
FF1FF0
FF0FF0
FF0FF8
FF07F8
FF07FC
ENDCHAR
STARTCHAR S
ENCODING 83
SWIDTH 850 0
DWIDTH 26 0
BBX 21 21 2 0
BITMAP
03FE00
0FFF80
3FFFE0
7FFFF0
7FFFF0
7FFFF8
7F8FF8
7F8000
7FFF00
7FFFE0
3FFFF0
0FFFF8
01FFF8
0007F8
FF07F8
FFFFF8
FFFFF8
7FFFF0
3FFFE0
1FFFC0
03FE00
ENDCHAR
STARTCHAR T
ENCODING 84
SWIDTH 850 0
DWIDTH 26 0
BBX 22 21 2 0
BITMAP
FFFFFC
FFFFFC
FFFFFC
FFFFFC
FFFFFC
FFFFFC
01FE00
01FE00
01FE00
01FE00
01FE00
01FE00
01FE00
01FE00
01FE00
01FE00
01FE00
01FE00
01FE00
01FE00
01FE00
ENDCHAR
STARTCHAR U
ENCODING 85
SWIDTH 850 0
DWIDTH 26 0
BBX 22 21 2 0
BITMAP
FF03FC
FF03FC
FF03FC
FF03FC
FF03FC
FF03FC
FF03FC
FF03FC
FF03FC
FF03FC
FF03FC
FF03FC
FF03FC
FF03FC
FF87F8
FFFFF8
7FFFF8
7FFFF0
3FFFE0
0FFFC0
03FE00
ENDCHAR
STARTCHAR V
ENCODING 86
SWIDTH 850 0
DWIDTH 26 0
BBX 24 21 1 0
BITMAP
FF01FF
FF01FE
FF81FE
7F83FE
7F83FC
3FC3FC
3FC3FC
3FC7F8
1FE7F8
1FE7F0
1FEFF0
0FEFF0
0FFFE0
07FFE0
07FFE0
07FFC0
03FFC0
03FFC0
03FF80
01FF80
01FF00
ENDCHAR
STARTCHAR W
ENCODING 87
SWIDTH 850 0
DWIDTH 26 0
BBX 24 21 1 0
BITMAP
FC007F
FE007F
FE007F
FE007F
FE007F
FE3CFF
FE7CFE
7E7EFE
7F7EFE
7FFFFE
7FFFFE
7FFFFE
7FFFFE
7FFFFC
7FFFFC
3FE7FC
3FE7FC
3FC7FC
3FC3FC
3F83FC
1F81F8
ENDCHAR
STARTCHAR X
ENCODING 88
SWIDTH 850 0
DWIDTH 26 0
BBX 23 21 1 0
BITMAP
7F81FE
3FC3FC
3FE7FC
1FE7F8
0FFFF0
0FFFF0
07FFE0
03FFC0
03FFC0
01FF80
01FF80
03FF80
03FFC0
07FFE0
0FFFE0
0FFFF0
1FEFF8
3FE7F8
3FC7FC
7F83FE
FF81FE
ENDCHAR
STARTCHAR Y
ENCODING 89
SWIDTH 850 0
DWIDTH 26 0
BBX 23 21 1 0
BITMAP
FF01FE
FF81FE
7F83FC
3FC3FC
3FC7F8
1FEFF8
1FFFF0
0FFFE0
07FFE0
07FFC0
03FFC0
03FF80
01FF00
00FF00
00FF00
00FF00
00FF00
00FF00
00FF00
00FF00
00FF00
ENDCHAR
STARTCHAR Z
ENCODING 90
SWIDTH 850 0
DWIDTH 26 0
BBX 21 21 2 0
BITMAP
7FFFF8
7FFFF8
7FFFF8
7FFFF8
7FFFF8
7FFFF8
003FF0
007FE0
00FFC0
03FF80
07FF00
0FFE00
1FFC00
3FF000
7FE000
FFFFF8
FFFFF8
FFFFF8
FFFFF8
FFFFF8
FFFFF8
ENDCHAR
STARTCHAR bracketleft
ENCODING 91
SWIDTH 850 0
DWIDTH 26 0
BBX 13 28 7 -5
BITMAP
FFF0
FFF8
FFF8
FFF8
FFF0
FC00
FC00
FC00
FC00
FC00
FC00
FC00
FC00
FC00
FC00
FC00
FC00
FC00
FC00
FC00
FC00
FC00
FC00
FFF0
FFF8
FFF8
FFF8
FFF0
ENDCHAR
STARTCHAR backslash
ENCODING 92
SWIDTH 850 0
DWIDTH 26 0
BBX 17 26 4 -2
BITMAP
780000
FE0000
7E0000
7E0000
3F0000
3F0000
1F8000
1F8000
0FC000
0FC000
0FE000
07E000
07F000
03F000
03F000
01F800
01F800
00FC00
00FC00
007E00
007E00
007F00
003F00
003F00
001F80
001F80
ENDCHAR
STARTCHAR bracketright
ENCODING 93
SWIDTH 850 0
DWIDTH 26 0
BBX 13 28 6 -5
BITMAP
FFF8
FFF8
FFF8
FFF8
FFF8
01F8
01F8
01F8
01F8
01F8
01F8
01F8
01F8
01F8
01F8
01F8
01F8
01F8
01F8
01F8
01F8
01F8
01F8
FFF8
FFF8
FFF8
FFF8
FFF8
ENDCHAR
STARTCHAR asciicircum
ENCODING 94
SWIDTH 850 0
DWIDTH 26 0
BBX 12 4 7 22
BITMAP
0F00
3F80
7FE0
F9F0
ENDCHAR
STARTCHAR underscore
ENCODING 95
SWIDTH 850 0
DWIDTH 26 0
BBX 23 6 1 -2
BITMAP
FFFFFE
FFFFFE
FFFFFE
FFFFFE
FFFFFE
FFFFFE
ENDCHAR
STARTCHAR a
ENCODING 97
SWIDTH 850 0
DWIDTH 26 0
BBX 24 21 1 0
BITMAP
01FF80
03FFC0
03FFC0
07FFC0
07FFE0
07FFE0
0FFFE0
0FEFF0
0FE7F0
1FE7F0
1FC7F8
1FC3F8
3FFFF8
3FFFFC
3FFFFC
7FFFFC
7FFFFE
7FFFFE
FF00FE
FF00FF
FE007F
ENDCHAR
STARTCHAR b
ENCODING 98
SWIDTH 850 0
DWIDTH 26 0
BBX 21 21 3 0
BITMAP
FFFF00
FFFFE0
FFFFF0
FFFFF0
FFFFF8
FE0FF8
FE07F8
FE0FF8
FFFFF0
FFFFE0
FFFFE0
FFFFF0
FFFFF8
FE07F8
FE07F8
FE07F8
FFFFF8
FFFFF8
FFFFF0
FFFFE0
FFFF80
ENDCHAR
STARTCHAR c
ENCODING 99
SWIDTH 850 0
DWIDTH 26 0
BBX 22 21 2 0
BITMAP
01FE00
0FFFC0
1FFFE0
3FFFF0
7FFFF8
FFFFFC
FF87FC
FF03FC
FF0000
FF0000
FF0000
FF0000
FF0000
FF03FC
FF87FC
FFFFFC
7FFFF8
3FFFF0
1FFFE0
0FFFC0
01FE00
ENDCHAR
STARTCHAR d
ENCODING 100
SWIDTH 850 0
DWIDTH 26 0
BBX 22 21 2 0
BITMAP
FFFE00
FFFFC0
FFFFE0
FFFFF0
FFFFF8
FFFFF8
FF07FC
FF03FC
FF03FC
FF03FC
FF03FC
FF03FC
FF03FC
FF03FC
FF07FC
FFFFF8
FFFFF8
FFFFF0
FFFFE0
FFFFC0
FFFE00
ENDCHAR
STARTCHAR e
ENCODING 101
SWIDTH 850 0
DWIDTH 26 0
BBX 20 21 3 0
BITMAP
FFFFF0
FFFFF0
FFFFF0
FFFFF0
FFFFF0
FFFFF0
FF0000
FF0000
FFFFC0
FFFFC0
FFFFC0
FFFFC0
FFFFC0
FFFFC0
FF0000
FFFFF0
FFFFF0
FFFFF0
FFFFF0
FFFFF0
FFFFF0
ENDCHAR
STARTCHAR f
ENCODING 102
SWIDTH 850 0
DWIDTH 26 0
BBX 21 21 3 0
BITMAP
FFFFF8
FFFFF8
FFFFF8
FFFFF8
FFFFF8
FFFFF8
FF0000
FF0000
FFFFE0
FFFFE0
FFFFE0
FFFFE0
FFFFE0
FFFFE0
FF0000
FF0000
FF0000
FF0000
FF0000
FF0000
FF0000
ENDCHAR
STARTCHAR g
ENCODING 103
SWIDTH 850 0
DWIDTH 26 0
BBX 22 21 2 0
BITMAP
01FE00
0FFFC0
3FFFE0
7FFFF8
7FFFF8
FFFFFC
FF87FC
FF0000
FF0FFC
FF0FFC
FF0FFC
FF0FFC
FF0FFC
FF01FC
FF83FC
FFFFFC
7FFFF8
7FFFF8
3FFFF0
0FFFC0
01FF00
ENDCHAR
STARTCHAR h
ENCODING 104
SWIDTH 850 0
DWIDTH 26 0
BBX 22 21 2 0
BITMAP
FF03F8
FF03FC
FF03FC
FF03FC
FF03FC
FF03FC
FF03FC
FFFFFC
FFFFFC
FFFFFC
FFFFFC
FFFFFC
FFFFFC
FFFFFC
FF03FC
FF03FC
FF03FC
FF03FC
FF03FC
FF03FC
FF03F8
ENDCHAR
STARTCHAR i
ENCODING 105
SWIDTH 850 0
DWIDTH 26 0
BBX 21 21 2 0
BITMAP
FFFFF8
FFFFF8
FFFFF8
FFFFF8
FFFFF8
FFFFF8
01FE00
01FE00
01FE00
01FE00
01FE00
01FE00
01FE00
01FE00
01FE00
FFFFF8
FFFFF8
FFFFF8
FFFFF8
FFFFF8
FFFFF8
ENDCHAR
STARTCHAR j
ENCODING 106
SWIDTH 850 0
DWIDTH 26 0
BBX 22 21 1 0
BITMAP
3FFFFC
3FFFFC
3FFFFC
3FFFFC
3FFFFC
3FFFFC
0003FC
0003FC
0003FC
0003FC
0003FC
0003FC
0003FC
FF03FC
FF87FC
FFFFFC
7FFFF8
3FFFF0
1FFFE0
0FFFC0
01FE00
ENDCHAR
STARTCHAR k
ENCODING 107
SWIDTH 850 0
DWIDTH 26 0
BBX 22 21 3 0
BITMAP
FE0FF8
FF0FF8
FF1FF0
FF3FE0
FF7FC0
FFFFC0
FFFF80
FFFF00
FFFE00
FFFC00
FFFE00
FFFE00
FFFF00
FFFF80
FFFFC0
FF7FE0
FF7FE0
FF3FF0
FF1FF8
FF0FFC
FF07FC
ENDCHAR
STARTCHAR l
ENCODING 108
SWIDTH 850 0
DWIDTH 26 0
BBX 19 21 4 0
BITMAP
FF0000
FF0000
FF0000
FF0000
FF0000
FF0000
FF0000
FF0000
FF0000
FF0000
FF0000
FF0000
FF0000
FF0000
FF0000
FFFFE0
FFFFE0
FFFFE0
FFFFE0
FFFFE0
FFFFE0
ENDCHAR
STARTCHAR m
ENCODING 109
SWIDTH 850 0
DWIDTH 26 0
BBX 23 21 1 0
BITMAP
FF00FE
FF01FE
FF81FE
FF83FE
FFC3FE
FFC7FE
FFE7FE
FFEFFE
FFFFFE
FFFFFE
FFFFFE
FEFFFE
FEFEFE
FE7EFE
FE7CFE
FE3CFE
FE00FE
FE00FE
FE00FE
FE00FE
FE00FE
ENDCHAR
STARTCHAR n
ENCODING 110
SWIDTH 850 0
DWIDTH 26 0
BBX 21 21 2 0
BITMAP
FE03F8
FF03F8
FF83F8
FF83F8
FFC3F8
FFE3F8
FFE3F8
FFF3F8
FFFBF8
FFFFF8
FFFFF8
FFFFF8
FFFFF8
FF7FF8
FF7FF8
FF3FF8
FF1FF8
FF0FF8
FF07F8
FF07F8
FF03F8
ENDCHAR
STARTCHAR o
ENCODING 111
SWIDTH 850 0
DWIDTH 26 0
BBX 22 21 2 0
BITMAP
03FE00
0FFFC0
3FFFE0
7FFFF0
7FFFF8
FFFFF8
FF87FC
FF03FC
FF03FC
FF03FC
FF03FC
FF03FC
FF03FC
FF03FC
FF87FC
FFFFF8
7FFFF8
7FFFF0
3FFFE0
0FFFC0
03FE00
ENDCHAR
STARTCHAR p
ENCODING 112
SWIDTH 850 0
DWIDTH 26 0
BBX 21 21 4 0
BITMAP
FFFE00
FFFFC0
FFFFE0
FFFFF0
FFFFF0
FFFFF8
FF07F8
FF07F8
FF07F8
FFFFF8
FFFFF8
FFFFF0
FFFFE0
FFFFC0
FFFF00
FF0000
FF0000
FF0000
FF0000
FF0000
FF0000
ENDCHAR
STARTCHAR q
ENCODING 113
SWIDTH 850 0
DWIDTH 26 0
BBX 22 22 2 -1
BITMAP
03FE00
0FFFC0
3FFFE0
7FFFF0
7FFFF8
FFFFF8
FF87FC
FF03FC
FF03FC
FF03FC
FF03FC
FF03FC
FF03FC
FF03FC
FF87FC
FFFFF8
7FFFF8
7FFFF0
3FFFE0
1FFFF0
03FFF0
0007F8
ENDCHAR
STARTCHAR r
ENCODING 114
SWIDTH 850 0
DWIDTH 26 0
BBX 22 21 3 0
BITMAP
FFFF00
FFFFC0
FFFFE0
FFFFF0
FFFFF8
FFFFF8
FF07F8
FF07F8
FF07F8
FFFFF8
FFFFF8
FFFFF0
FFFFE0
FFFFC0
FFFFC0
FF1FE0
FF1FF0
FF0FF0
FF0FF8
FF07F8
FF07FC
ENDCHAR
STARTCHAR s
ENCODING 115
SWIDTH 850 0
DWIDTH 26 0
BBX 21 21 2 0
BITMAP
03FE00
0FFF80
3FFFE0
7FFFF0
7FFFF0
7FFFF8
7F8FF8
7F8000
7FFF00
7FFFE0
3FFFF0
0FFFF8
01FFF8
0007F8
FF07F8
FFFFF8
FFFFF8
7FFFF0
3FFFE0
1FFFC0
03FE00
ENDCHAR
STARTCHAR t
ENCODING 116
SWIDTH 850 0
DWIDTH 26 0
BBX 22 21 2 0
BITMAP
FFFFFC
FFFFFC
FFFFFC
FFFFFC
FFFFFC
FFFFFC
01FE00
01FE00
01FE00
01FE00
01FE00
01FE00
01FE00
01FE00
01FE00
01FE00
01FE00
01FE00
01FE00
01FE00
01FE00
ENDCHAR
STARTCHAR u
ENCODING 117
SWIDTH 850 0
DWIDTH 26 0
BBX 22 21 2 0
BITMAP
FF03FC
FF03FC
FF03FC
FF03FC
FF03FC
FF03FC
FF03FC
FF03FC
FF03FC
FF03FC
FF03FC
FF03FC
FF03FC
FF03FC
FF87F8
FFFFF8
7FFFF8
7FFFF0
3FFFE0
0FFFC0
03FE00
ENDCHAR
STARTCHAR v
ENCODING 118
SWIDTH 850 0
DWIDTH 26 0
BBX 24 21 1 0
BITMAP
FF01FF
FF01FE
FF81FE
7F83FE
7F83FC
3FC3FC
3FC3FC
3FC7F8
1FE7F8
1FE7F0
1FEFF0
0FEFF0
0FFFE0
07FFE0
07FFE0
07FFC0
03FFC0
03FFC0
03FF80
01FF80
01FF00
ENDCHAR
STARTCHAR w
ENCODING 119
SWIDTH 850 0
DWIDTH 26 0
BBX 24 21 1 0
BITMAP
FC007F
FE007F
FE007F
FE007F
FE007F
FE3CFF
FE7CFE
7E7EFE
7F7EFE
7FFFFE
7FFFFE
7FFFFE
7FFFFE
7FFFFC
7FFFFC
3FE7FC
3FE7FC
3FC7FC
3FC3FC
3F83FC
1F81F8
ENDCHAR
STARTCHAR x
ENCODING 120
SWIDTH 850 0
DWIDTH 26 0
BBX 23 21 1 0
BITMAP
7F81FE
3FC3FC
3FE7FC
1FE7F8
0FFFF0
0FFFF0
07FFE0
03FFC0
03FFC0
01FF80
01FF80
03FF80
03FFC0
07FFE0
0FFFE0
0FFFF0
1FEFF8
3FE7F8
3FC7FC
7F83FE
FF81FE
ENDCHAR
STARTCHAR y
ENCODING 121
SWIDTH 850 0
DWIDTH 26 0
BBX 23 21 1 0
BITMAP
FF01FE
FF81FE
7F83FC
3FC3FC
3FC7F8
1FEFF8
1FFFF0
0FFFE0
07FFE0
07FFC0
03FFC0
03FF80
01FF00
00FF00
00FF00
00FF00
00FF00
00FF00
00FF00
00FF00
00FF00
ENDCHAR
STARTCHAR z
ENCODING 122
SWIDTH 850 0
DWIDTH 26 0
BBX 21 21 2 0
BITMAP
7FFFF8
7FFFF8
7FFFF8
7FFFF8
7FFFF8
7FFFF8
003FF0
007FE0
00FFC0
03FF80
07FF00
0FFE00
1FFC00
3FF000
7FE000
FFFFF8
FFFFF8
FFFFF8
FFFFF8
FFFFF8
FFFFF8
ENDCHAR
STARTCHAR braceleft
ENCODING 123
SWIDTH 850 0
DWIDTH 26 0
BBX 13 28 6 -5
BITMAP
0078
01F8
07F8
0FF8
0FF8
1FF8
1FC0
1FC0
1F80
1F80
1F80
3F80
FF80
FF00
FE00
FF00
3F80
1F80
1F80
1F80
1FC0
1FC0
1FF8
0FF8
0FF8
07F8
03F8
0078
ENDCHAR
STARTCHAR bar
ENCODING 124
SWIDTH 850 0
DWIDTH 26 0
BBX 6 30 10 -4
BITMAP
FC
FC
FC
FC
FC
FC
FC
FC
FC
FC
FC
FC
FC
FC
FC
FC
FC
FC
FC
FC
FC
FC
FC
FC
FC
FC
FC
FC
FC
FC
ENDCHAR
STARTCHAR braceright
ENCODING 125
SWIDTH 850 0
DWIDTH 26 0
BBX 13 28 6 -5
BITMAP
F800
FE00
FF00
FF80
FFC0
FFC0
1FC0
0FC0
0FC0
0FC0
0FE0
0FF0
07F8
07F8
03F8
07F8
07F0
0FE0
0FE0
0FC0
0FC0
1FC0
7FC0
FFC0
FF80
FF00
FE00
F800
ENDCHAR
STARTCHAR asciitilde
ENCODING 126
SWIDTH 850 0
DWIDTH 26 0
BBX 15 7 5 5
BITMAP
3F02
7FFE
FFFE
FFFE
FFFE
FFFE
C0FC
ENDCHAR
STARTCHAR nbsp
ENCODING 160
SWIDTH 850 0
DWIDTH 26 0
BBX 1 1 0 0
BITMAP
00
ENDCHAR
STARTCHAR exclamdown
ENCODING 161
SWIDTH 850 0
DWIDTH 26 0
BBX 8 20 9 -4
BITMAP
FF
FF
FF
FF
FF
FF
00
FF
FF
FF
FF
FF
FF
FF
FF
FF
FF
FF
FF
FF
ENDCHAR
STARTCHAR cent
ENCODING 162
SWIDTH 850 0
DWIDTH 26 0
BBX 19 21 3 -3
BITMAP
03F000
03F800
03F800
0FFE00
3FFF00
7FFF80
7FFFC0
FF3FE0
FF1FC0
FF0000
FF0000
FF1FC0
FF3FE0
7FFFC0
7FFFC0
3FFF80
1FFF00
07FC00
03F800
03F800
03F000
ENDCHAR
STARTCHAR sterling
ENCODING 163
SWIDTH 850 0
DWIDTH 26 0
BBX 23 21 1 0
BITMAP
00FF80
07FFE0
0FFFF8
1FFFFC
1FFFFC
3FFFFE
3FE3FE
3FC000
7FFC00
7FFC00
7FFC00
7FFC00
7FFC00
0FE000
0FE07E
3FFFFE
3FFFFE
7FFFFC
7FFFFC
7FFFF8
FC1FE0
ENDCHAR
STARTCHAR currency
ENCODING 164
SWIDTH 850 0
DWIDTH 26 0
BBX 18 17 4 1
BITMAP
100600
3FEF00
7FFF80
FFFFC0
7FFF80
3FFF00
3E3F00
7C1F00
7C1F00
7C1F00
3E3F00
3FFF00
7FFF80
FFFFC0
7FFF80
3FEF00
180600
ENDCHAR
STARTCHAR yen
ENCODING 165
SWIDTH 850 0
DWIDTH 26 0
BBX 23 21 1 0
BITMAP
FF01FE
7F81FE
7F83FC
3FC3FC
3FC7F8
1FEFF8
1FFFF0
0FFFE0
07FFE0
07FFC0
03FFC0
03FF80
0FFFF0
0FFFF0
0FFFF0
0FFFF0
0FFFF0
00FF00
00FF00
00FF00
00FF00
ENDCHAR
STARTCHAR brokenbar
ENCODING 166
SWIDTH 850 0
DWIDTH 26 0
BBX 6 25 10 0
BITMAP
FC
FC
FC
FC
FC
FC
FC
FC
FC
FC
FC
00
00
00
FC
FC
FC
FC
FC
FC
FC
FC
FC
FC
FC
ENDCHAR
STARTCHAR section
ENCODING 167
SWIDTH 850 0
DWIDTH 26 0
BBX 19 26 3 -5
BITMAP
01FC00
07FF00
1FFF80
1FFFC0
3FFFC0
3FDFE0
3FC000
3FF800
3FFF00
3FFFC0
7FFFC0
FFFFE0
FE1FE0
FF8FE0
7FFFE0
7FFFE0
3FFFC0
0FFF80
01FF80
003FC0
7F3FC0
7FFF80
3FFF80
3FFF00
0FFE00
03F800
ENDCHAR
STARTCHAR copyright
ENCODING 169
SWIDTH 850 0
DWIDTH 26 0
BBX 22 21 2 0
BITMAP
01FC00
07FF00
0FFFC0
1F03E0
3C00F0
78FC70
73FE38
E3FF38
E78F38
E78018
E7801C
E7801C
E78F38
E3FF38
73FE38
78FC70
3C00F0
1F03E0
0FFFC0
07FF00
01FC00
ENDCHAR
STARTCHAR ordfeminine
ENCODING 170
SWIDTH 850 0
DWIDTH 26 0
BBX 9 8 8 13
BITMAP
3F00
7F80
7F80
0F80
7F80
F780
FF80
7B80
ENDCHAR
STARTCHAR guillemotleft
ENCODING 171
SWIDTH 850 0
DWIDTH 26 0
BBX 16 15 4 2
BITMAP
0101
0303
0707
0F0F
3F1F
7F3F
FE7E
FC7C
FE7E
7F3F
3F1F
0F0F
0707
0303
0101
ENDCHAR
STARTCHAR logicalnot
ENCODING 172
SWIDTH 850 0
DWIDTH 26 0
BBX 15 8 5 5
BITMAP
FFFE
FFFE
FFFE
FFFE
FFFE
003E
003E
003E
ENDCHAR
STARTCHAR registered
ENCODING 174
SWIDTH 850 0
DWIDTH 26 0
BBX 22 21 2 0
BITMAP
01FC00
07FF00
0FFFC0
1F03E0
3C00F0
7FFC70
77FE38
E7FF38
E78F38
E7FF18
E7FF1C
E7FE1C
E79E38
E79F38
778F38
780070
3C00F0
1F03E0
0FFFC0
07FF00
01FC00
ENDCHAR
STARTCHAR degree
ENCODING 176
SWIDTH 850 0
DWIDTH 26 0
BBX 13 11 6 10
BITMAP
0FC0
3FE0
7FF0
7CF8
F8F8
F8F8
F8F8
7CF8
7FF0
3FE0
0FC0
ENDCHAR
STARTCHAR plusminus
ENCODING 177
SWIDTH 850 0
DWIDTH 26 0
BBX 16 20 5 0
BITMAP
07E0
07E0
07E0
07E0
FFFF
FFFF
FFFF
FFFF
FFFF
FFFF
07E0
07E0
07E0
07E0
07E0
0000
FFFF
FFFF
FFFF
FFFF
ENDCHAR
STARTCHAR twosuperior
ENCODING 178
SWIDTH 850 0
DWIDTH 26 0
BBX 10 10 8 11
BITMAP
3F00
FF80
FF80
F780
0F80
1F00
7C00
FFC0
FFC0
FFC0
ENDCHAR
STARTCHAR threesuperior
ENCODING 179
SWIDTH 850 0
DWIDTH 26 0
BBX 11 11 7 10
BITMAP
7FC0
7FC0
7FC0
0780
1F80
1FE0
0FE0
71E0
FFE0
7FC0
1F80
ENDCHAR
STARTCHAR mu
ENCODING 181
SWIDTH 850 0
DWIDTH 26 0
BBX 18 21 4 -6
BITMAP
FE3FC0
FE3FC0
FE3FC0
FE3FC0
FE3FC0
FE3FC0
FE3FC0
FE3FC0
FE3FC0
FF3FC0
FFFFC0
FFFFC0
FFFFC0
FFFFC0
FF9FC0
FE0000
FE0000
FE0000
FE0000
FE0000
FE0000
ENDCHAR
STARTCHAR paragraph
ENCODING 182
SWIDTH 850 0
DWIDTH 26 0
BBX 15 24 5 -3
BITMAP
0FFE
3FFE
7FFE
7FFE
FFCE
FFCE
FFCE
FFCE
7FCE
7FCE
3FCE
1FCE
03CE
03CE
03CE
03CE
03CE
03CE
03CE
03CE
03CE
03CE
03CE
038E
ENDCHAR
STARTCHAR periodcentered
ENCODING 183
SWIDTH 850 0
DWIDTH 26 0
BBX 9 9 8 8
BITMAP
1E00
7F00
7F80
FF80
FF80
FF80
7F80
7F00
1E00
ENDCHAR
STARTCHAR onesuperior
ENCODING 185
SWIDTH 850 0
DWIDTH 26 0
BBX 10 10 8 11
BITMAP
3E00
7E00
FE00
FE00
5E00
1E00
1E00
FFC0
FFC0
FFC0
ENDCHAR
STARTCHAR ordmasculine
ENCODING 186
SWIDTH 850 0
DWIDTH 26 0
BBX 10 7 8 14
BITMAP
3F00
7F80
F780
F7C0
F7C0
FF80
7F00
ENDCHAR
STARTCHAR guillemotright
ENCODING 187
SWIDTH 850 0
DWIDTH 26 0
BBX 16 15 5 2
BITMAP
80C0
E0E0
F0F0
F8F8
FCFC
FEFE
7F7F
3F3F
7F7F
FEFE
FCFC
F8F8
F0F0
E0E0
80C0
ENDCHAR
STARTCHAR onequarter
ENCODING 188
SWIDTH 850 0
DWIDTH 26 0
BBX 23 21 1 0
BITMAP
1F0078
3F00F0
FF01F0
7F01E0
6F03C0
0F0780
0F0F80
0F0F00
0F1E00
0F3C00
007CFC
00F9FC
00F1FC
01E3FC
03C7BC
07CF3C
078FFE
0F0FFE
1E0FFE
3E003C
3C003C
ENDCHAR
STARTCHAR onehalf
ENCODING 189
SWIDTH 850 0
DWIDTH 26 0
BBX 24 21 1 0
BITMAP
1F0078
7F00F0
FF01E0
FF03E0
7F03C0
1F0780
1F0F00
1F1F00
1F1E00
1F3C00
0078F8
00F3FE
00F3FE
01E7DE
03C03E
07807C
0F81F8
0F03F0
1E07FF
3C07FF
3C07FF
ENDCHAR
STARTCHAR threequarters
ENCODING 190
SWIDTH 850 0
DWIDTH 26 0
BBX 25 21 0 0
BITMAP
7FC03C00
7FC07C00
7FC07800
0780F000
1F81E000
1FC3E000
1FE3C000
F3E78000
FFEF0000
7FDF0000
3F1E0000
003C7E00
0078FE00
00F8FE00
00F1FE00
01E3DE00
03C7FF80
07C7FF80
0F87FF80
0F001E00
1E001E00
ENDCHAR
STARTCHAR questiondown
ENCODING 191
SWIDTH 850 0
DWIDTH 26 0
BBX 20 21 3 -5
BITMAP
03F800
03F800
03F800
03F800
03F800
03F800
000000
03FC00
07FC00
0FF800
1FF000
3FE000
7F8000
FF8FE0
FF9FF0
FFFFE0
FFFFE0
7FFFC0
7FFF80
1FFF00
07FC00
ENDCHAR
STARTCHAR Agrave
ENCODING 192
SWIDTH 850 0
DWIDTH 26 0
BBX 24 25 1 0
BITMAP
03C7C0
03E7C0
03E7C0
03C7C0
01FF80
03FFC0
03FFC0
07FFC0
07FFE0
07FFE0
0FFFE0
0FEFF0
0FE7F0
1FE7F0
1FC7F8
1FC3F8
3FFFF8
3FFFFC
3FFFFC
7FFFFC
7FFFFE
7FFFFE
FF00FE
FF00FF
FE007F
ENDCHAR
STARTCHAR Aacute
ENCODING 193
SWIDTH 850 0
DWIDTH 26 0
BBX 24 25 1 0
BITMAP
001FC0
001F80
003F00
007E00
01FF80
03FFC0
03FFC0
07FFC0
07FFE0
07FFE0
0FFFE0
0FEFF0
0FE7F0
1FE7F0
1FC7F8
1FC3F8
3FFFF8
3FFFFC
3FFFFC
7FFFFC
7FFFFE
7FFFFE
FF00FE
FF00FF
FE007F
ENDCHAR
STARTCHAR Acircumflex
ENCODING 194
SWIDTH 850 0
DWIDTH 26 0
BBX 24 25 1 0
BITMAP
007E00
00FF00
03FFC0
038380
01FF80
03FFC0
03FFC0
07FFC0
07FFE0
07FFE0
0FFFE0
0FEFF0
0FE7F0
1FE7F0
1FC7F8
1FC3F8
3FFFF8
3FFFFC
3FFFFC
7FFFFC
7FFFFE
7FFFFE
FF00FE
FF00FF
FE007F
ENDCHAR
STARTCHAR Atilde
ENCODING 195
SWIDTH 850 0
DWIDTH 26 0
BBX 24 25 1 0
BITMAP
00F3C0
03FFC0
03FF80
03CF00
01FF80
03FFC0
03FFC0
07FFC0
07FFE0
07FFE0
0FFFE0
0FEFF0
0FE7F0
1FE7F0
1FC7F8
1FC3F8
3FFFF8
3FFFFC
3FFFFC
7FFFFC
7FFFFE
7FFFFE
FF00FE
FF00FF
FE007F
ENDCHAR
STARTCHAR Adieresis
ENCODING 196
SWIDTH 850 0
DWIDTH 26 0
BBX 24 25 1 0
BITMAP
03F000
01F800
00FC00
007C00
01FF80
03FFC0
03FFC0
07FFC0
07FFE0
07FFE0
0FFFE0
0FEFF0
0FE7F0
1FE7F0
1FC7F8
1FC3F8
3FFFF8
3FFFFC
3FFFFC
7FFFFC
7FFFFE
7FFFFE
FF00FE
FF00FF
FE007F
ENDCHAR
STARTCHAR Aring
ENCODING 197
SWIDTH 850 0
DWIDTH 26 0
BBX 24 25 1 0
BITMAP
003C00
006E00
006E00
003C00
01FF80
03FFC0
03FFC0
07FFC0
07FFE0
07FFE0
0FFFE0
0FEFF0
0FE7F0
1FE7F0
1FC7F8
1FC3F8
3FFFF8
3FFFFC
3FFFFC
7FFFFC
7FFFFE
7FFFFE
FF00FE
FF00FF
FE007F
ENDCHAR
STARTCHAR AE
ENCODING 198
SWIDTH 850 0
DWIDTH 26 0
BBX 25 21 0 0
BITMAP
01FFFF80
01FFFF80
01FFFF80
03FFFF80
03FFFF80
03FFFF80
07F7F000
07F7F000
0FE7FF00
0FE7FF00
0FC7FF00
1FC7FF00
1FFFFF00
1FFFFF00
3FFFF000
3FFFFF80
3FFFFF80
7FFFFF80
7F07FF80
7F07FF80
FE07FF80
ENDCHAR
STARTCHAR Ccedilla
ENCODING 199
SWIDTH 850 0
DWIDTH 26 0
BBX 22 25 2 -4
BITMAP
01FE00
0FFFC0
1FFFE0
3FFFF0
7FFFF8
FFFFFC
FF87FC
FF03FC
FF0000
FF0000
FF0000
FF0000
FF0000
FF03FC
FF87FC
FFFFFC
7FFFF8
3FFFF0
1FFFF0
0FFFC0
03FF00
007E00
007E00
00E600
007C00
ENDCHAR
STARTCHAR Egrave
ENCODING 200
SWIDTH 850 0
DWIDTH 26 0
BBX 21 25 3 0
BITMAP
07E000
03F000
01F800
00FC00
FFFFF0
FFFFF0
FFFFF0
FFFFF0
FFFFF0
FFFFF0
FF0000
FF0000
FFFFE0
FFFFE0
FFFFE0
FFFFE0
FFFFE0
FFFFE0
FF0000
FFFFF8
FFFFF8
FFFFF8
FFFFF8
FFFFF8
FFFFF8
ENDCHAR
STARTCHAR Eacute
ENCODING 201
SWIDTH 850 0
DWIDTH 26 0
BBX 21 26 3 0
BITMAP
007F00
007E00
00FC00
01F800
000000
FFFFF0
FFFFF0
FFFFF0
FFFFF0
FFFFF0
FFFFF0
FF0000
FF0000
FFFFE0
FFFFE0
FFFFE0
FFFFE0
FFFFE0
FFFFE0
FF0000
FFFFF8
FFFFF8
FFFFF8
FFFFF8
FFFFF8
FFFFF8
ENDCHAR
STARTCHAR Ecircumflex
ENCODING 202
SWIDTH 850 0
DWIDTH 26 0
BBX 21 25 3 0
BITMAP
01F800
07FC00
0FFE00
0E0F00
FFFFF0
FFFFF0
FFFFF0
FFFFF0
FFFFF0
FFFFF0
FF0000
FF0000
FFFFE0
FFFFE0
FFFFE0
FFFFE0
FFFFE0
FFFFE0
FF0000
FFFFF8
FFFFF8
FFFFF8
FFFFF8
FFFFF8
FFFFF8
ENDCHAR
STARTCHAR Edieresis
ENCODING 203
SWIDTH 850 0
DWIDTH 26 0
BBX 21 25 3 0
BITMAP
0F9F00
0F9F00
0F9F00
0F9F00
FFFFF0
FFFFF0
FFFFF0
FFFFF0
FFFFF0
FFFFF0
FF0000
FF0000
FFFFE0
FFFFE0
FFFFE0
FFFFE0
FFFFE0
FFFFE0
FF0000
FFFFF8
FFFFF8
FFFFF8
FFFFF8
FFFFF8
FFFFF8
ENDCHAR
STARTCHAR Igrave
ENCODING 204
SWIDTH 850 0
DWIDTH 26 0
BBX 21 25 2 0
BITMAP
03F000
03F800
01FC00
007C00
FFFFF8
FFFFF8
FFFFF8
FFFFF8
FFFFF8
FFFFF8
01FE00
01FE00
01FE00
01FE00
01FE00
01FE00
01FE00
01FE00
01FE00
FFFFF8
FFFFF8
FFFFF8
FFFFF8
FFFFF8
FFFFF8
ENDCHAR
STARTCHAR Iacute
ENCODING 205
SWIDTH 850 0
DWIDTH 26 0
BBX 21 25 2 0
BITMAP
003F80
003F00
007E00
00FC00
FFFFF8
FFFFF8
FFFFF8
FFFFF8
FFFFF8
FFFFF8
01FE00
01FE00
01FE00
01FE00
01FE00
01FE00
01FE00
01FE00
01FE00
FFFFF8
FFFFF8
FFFFF8
FFFFF8
FFFFF8
FFFFF8
ENDCHAR
STARTCHAR Icircumflex
ENCODING 206
SWIDTH 850 0
DWIDTH 26 0
BBX 21 25 2 0
BITMAP
00FC00
01FE00
07FF00
070780
FFFFF8
FFFFF8
FFFFF8
FFFFF8
FFFFF8
FFFFF8
01FE00
01FE00
01FE00
01FE00
01FE00
01FE00
01FE00
01FE00
01FE00
FFFFF8
FFFFF8
FFFFF8
FFFFF8
FFFFF8
FFFFF8
ENDCHAR
STARTCHAR Idieresis
ENCODING 207
SWIDTH 850 0
DWIDTH 26 0
BBX 21 25 2 0
BITMAP
078F80
078F80
078F80
078F80
FFFFF8
FFFFF8
FFFFF8
FFFFF8
FFFFF8
FFFFF8
01FE00
01FE00
01FE00
01FE00
01FE00
01FE00
01FE00
01FE00
01FE00
FFFFF8
FFFFF8
FFFFF8
FFFFF8
FFFFF8
FFFFF8
ENDCHAR
STARTCHAR Eth
ENCODING 208
SWIDTH 850 0
DWIDTH 26 0
BBX 24 21 0 0
BITMAP
3FFF80
3FFFF0
3FFFF8
3FFFFC
3FFFFE
3FFFFE
3FC1FF
3FC0FF
FFF8FF
FFF8FF
FFF8FF
FFF8FF
FFF8FF
3FC0FF
3FC1FF
3FFFFE
3FFFFE
3FFFFC
3FFFF8
3FFFF0
3FFF80
ENDCHAR
STARTCHAR Ntilde
ENCODING 209
SWIDTH 850 0
DWIDTH 26 0
BBX 21 25 2 0
BITMAP
03FF80
07FF00
07FE00
000000
FE03F8
FF03F8
FF83F8
FF83F8
FFC3F8
FFE3F8
FFE3F8
FFF3F8
FFFBF8
FFFFF8
FFFFF8
FFFFF8
FFFFF8
FF7FF8
FF7FF8
FF3FF8
FF1FF8
FF0FF8
FF07F8
FF07F8
FF03F8
ENDCHAR
STARTCHAR Ograve
ENCODING 210
SWIDTH 850 0
DWIDTH 26 0
BBX 22 26 2 0
BITMAP
07F000
03F000
01F800
00FC00
000000
03FE00
0FFFC0
3FFFE0
7FFFF0
7FFFF8
FFFFF8
FF87FC
FF03FC
FF03FC
FF03FC
FF03FC
FF03FC
FF03FC
FF03FC
FF87FC
FFFFF8
7FFFF8
7FFFF0
3FFFE0
0FFFC0
03FE00
ENDCHAR
STARTCHAR Oacute
ENCODING 211
SWIDTH 850 0
DWIDTH 26 0
BBX 22 26 2 0
BITMAP
003F00
007E00
00FC00
00F800
000000
03FE00
0FFFC0
3FFFE0
7FFFF0
7FFFF8
FFFFF8
FF87FC
FF03FC
FF03FC
FF03FC
FF03FC
FF03FC
FF03FC
FF03FC
FF87FC
FFFFF8
7FFFF8
7FFFF0
3FFFE0
0FFFC0
03FE00
ENDCHAR
STARTCHAR Ocircumflex
ENCODING 212
SWIDTH 850 0
DWIDTH 26 0
BBX 22 26 2 0
BITMAP
007800
01FC00
03FF00
07CF80
000000
03FE00
0FFFC0
3FFFE0
7FFFF0
7FFFF8
FFFFF8
FF87FC
FF03FC
FF03FC
FF03FC
FF03FC
FF03FC
FF03FC
FF03FC
FF87FC
FFFFF8
7FFFF8
7FFFF0
3FFFE0
0FFFC0
03FE00
ENDCHAR
STARTCHAR Otilde
ENCODING 213
SWIDTH 850 0
DWIDTH 26 0
BBX 22 26 2 0
BITMAP
01E780
03FF80
07FF00
079E00
000000
03FE00
0FFFC0
3FFFE0
7FFFF0
7FFFF8
FFFFF8
FF87FC
FF03FC
FF03FC
FF03FC
FF03FC
FF03FC
FF03FC
FF03FC
FF87FC
FFFFF8
7FFFF8
7FFFF0
3FFFE0
0FFFC0
03FE00
ENDCHAR
STARTCHAR Odieresis
ENCODING 214
SWIDTH 850 0
DWIDTH 26 0
BBX 22 26 2 0
BITMAP
078F80
078F80
078F80
078F80
000000
03FE00
0FFFC0
3FFFE0
7FFFF0
7FFFF8
FFFFF8
FF87FC
FF03FC
FF03FC
FF03FC
FF03FC
FF03FC
FF03FC
FF03FC
FF87FC
FFFFF8
7FFFF8
7FFFF0
3FFFE0
0FFFC0
03FE00
ENDCHAR
STARTCHAR multiply
ENCODING 215
SWIDTH 850 0
DWIDTH 26 0
BBX 18 16 4 2
BITMAP
180600
3C0F00
7E1F00
FF3F80
FFFFC0
7FFF00
3FFE00
1FFC00
0FFC00
1FFE00
7FFF00
FFFF80
FF7FC0
7E1F00
3C0F00
180600
ENDCHAR
STARTCHAR Oslash
ENCODING 216
SWIDTH 850 0
DWIDTH 26 0
BBX 26 21 0 0
BITMAP
00FF8000
03FFF000
0FFFF800
1FFFFC00
1FFFFFC0
3FFFFFC0
3FE1FFC0
3FC1FFC0
3FCFFF80
3FFFFF00
3FFFFF00
3FFFFF00
7FFCFF00
FFE0FF00
FFE1FF00
FFFFFE00
FFFFFE00
1FFFFC00
0FFFF800
03FFF000
00FF8000
ENDCHAR
STARTCHAR Ugrave
ENCODING 217
SWIDTH 850 0
DWIDTH 26 0
BBX 22 26 2 0
BITMAP
07F000
03F000
01F800
00FC00
000000
FF03FC
FF03FC
FF03FC
FF03FC
FF03FC
FF03FC
FF03FC
FF03FC
FF03FC
FF03FC
FF03FC
FF03FC
FF03FC
FF03FC
FF87F8
FFFFF8
7FFFF8
7FFFF0
3FFFE0
0FFFC0
03FE00
ENDCHAR
STARTCHAR Uacute
ENCODING 218
SWIDTH 850 0
DWIDTH 26 0
BBX 22 26 2 0
BITMAP
003F00
007F00
007E00
00FC00
000000
FF03FC
FF03FC
FF03FC
FF03FC
FF03FC
FF03FC
FF03FC
FF03FC
FF03FC
FF03FC
FF03FC
FF03FC
FF03FC
FF03FC
FF87F8
FFFFF8
7FFFF8
7FFFF0
3FFFE0
0FFFC0
03FE00
ENDCHAR
STARTCHAR Ucircumflex
ENCODING 219
SWIDTH 850 0
DWIDTH 26 0
BBX 22 26 2 0
BITMAP
007800
01FC00
03FF00
07CF80
000000
FF03FC
FF03FC
FF03FC
FF03FC
FF03FC
FF03FC
FF03FC
FF03FC
FF03FC
FF03FC
FF03FC
FF03FC
FF03FC
FF03FC
FF87F8
FFFFF8
7FFFF8
7FFFF0
3FFFE0
0FFFC0
03FE00
ENDCHAR
STARTCHAR Udieresis
ENCODING 220
SWIDTH 850 0
DWIDTH 26 0
BBX 22 26 2 0
BITMAP
078F80
078F80
078F80
078F80
000000
FF03FC
FF03FC
FF03FC
FF03FC
FF03FC
FF03FC
FF03FC
FF03FC
FF03FC
FF03FC
FF03FC
FF03FC
FF03FC
FF03FC
FF87F8
FFFFF8
7FFFF8
7FFFF0
3FFFE0
0FFFC0
03FE00
ENDCHAR
STARTCHAR Yacute
ENCODING 221
SWIDTH 850 0
DWIDTH 26 0
BBX 23 25 1 0
BITMAP
001F80
003F80
007E00
007C00
FF01FE
FF81FE
7F83FC
3FC3FC
3FC7F8
1FEFF8
1FFFF0
0FFFE0
07FFE0
07FFC0
03FFC0
03FF80
01FF00
00FF00
00FF00
00FF00
00FF00
00FF00
00FF00
00FF00
00FF00
ENDCHAR
STARTCHAR Thorn
ENCODING 222
SWIDTH 850 0
DWIDTH 26 0
BBX 22 21 2 0
BITMAP
FF0000
FF8000
FF8000
FFFF00
FFFFC0
FFFFF0
FFFFF8
FFFFF8
FFFFFC
FF83FC
FF83FC
FFFFFC
FFFFF8
FFFFF8
FFFFF0
FFFFE0
FFFF80
FF8000
FF8000
FF8000
FF0000
ENDCHAR
STARTCHAR agrave
ENCODING 224
SWIDTH 850 0
DWIDTH 26 0
BBX 24 25 1 0
BITMAP
03F000
01F800
00FC00
007C00
01FF80
03FFC0
03FFC0
07FFC0
07FFE0
07FFE0
0FFFE0
0FEFF0
0FE7F0
1FE7F0
1FC7F8
1FC3F8
3FFFF8
3FFFFC
3FFFFC
7FFFFC
7FFFFE
7FFFFE
FF00FE
FF00FF
FE007F
ENDCHAR
STARTCHAR aacute
ENCODING 225
SWIDTH 850 0
DWIDTH 26 0
BBX 24 25 1 0
BITMAP
001FC0
001F80
003F00
007E00
01FF80
03FFC0
03FFC0
07FFC0
07FFE0
07FFE0
0FFFE0
0FEFF0
0FE7F0
1FE7F0
1FC7F8
1FC3F8
3FFFF8
3FFFFC
3FFFFC
7FFFFC
7FFFFE
7FFFFE
FF00FE
FF00FF
FE007F
ENDCHAR
STARTCHAR acircumflex
ENCODING 226
SWIDTH 850 0
DWIDTH 26 0
BBX 24 25 1 0
BITMAP
007E00
00FF00
03FFC0
038380
01FF80
03FFC0
03FFC0
07FFC0
07FFE0
07FFE0
0FFFE0
0FEFF0
0FE7F0
1FE7F0
1FC7F8
1FC3F8
3FFFF8
3FFFFC
3FFFFC
7FFFFC
7FFFFE
7FFFFE
FF00FE
FF00FF
FE007F
ENDCHAR
STARTCHAR atilde
ENCODING 227
SWIDTH 850 0
DWIDTH 26 0
BBX 24 25 1 0
BITMAP
00F3C0
03FFC0
03FF80
03CF00
01FF80
03FFC0
03FFC0
07FFC0
07FFE0
07FFE0
0FFFE0
0FEFF0
0FE7F0
1FE7F0
1FC7F8
1FC3F8
3FFFF8
3FFFFC
3FFFFC
7FFFFC
7FFFFE
7FFFFE
FF00FE
FF00FF
FE007F
ENDCHAR
STARTCHAR adieresis
ENCODING 228
SWIDTH 850 0
DWIDTH 26 0
BBX 24 25 1 0
BITMAP
03C7C0
03E7C0
03E7C0
03C7C0
01FF80
03FFC0
03FFC0
07FFC0
07FFE0
07FFE0
0FFFE0
0FEFF0
0FE7F0
1FE7F0
1FC7F8
1FC3F8
3FFFF8
3FFFFC
3FFFFC
7FFFFC
7FFFFE
7FFFFE
FF00FE
FF00FF
FE007F
ENDCHAR
STARTCHAR aring
ENCODING 229
SWIDTH 850 0
DWIDTH 26 0
BBX 24 25 1 0
BITMAP
003C00
006E00
006E00
003C00
01FF80
03FFC0
03FFC0
07FFC0
07FFE0
07FFE0
0FFFE0
0FEFF0
0FE7F0
1FE7F0
1FC7F8
1FC3F8
3FFFF8
3FFFFC
3FFFFC
7FFFFC
7FFFFE
7FFFFE
FF00FE
FF00FF
FE007F
ENDCHAR
STARTCHAR ae
ENCODING 230
SWIDTH 850 0
DWIDTH 26 0
BBX 25 21 0 0
BITMAP
01FFFF80
01FFFF80
01FFFF80
03FFFF80
03FFFF80
03FFFF80
07F7F000
07F7F000
0FE7FF00
0FE7FF00
0FC7FF00
1FC7FF00
1FFFFF00
1FFFFF00
3FFFF000
3FFFFF80
3FFFFF80
7FFFFF80
7F07FF80
7F07FF80
FE07FF80
ENDCHAR
STARTCHAR ccedilla
ENCODING 231
SWIDTH 850 0
DWIDTH 26 0
BBX 22 25 2 -4
BITMAP
01FE00
0FFFC0
1FFFE0
3FFFF0
7FFFF8
FFFFFC
FF87FC
FF03FC
FF0000
FF0000
FF0000
FF0000
FF0000
FF03FC
FF87FC
FFFFFC
7FFFF8
3FFFF0
1FFFF0
0FFFC0
03FF00
007E00
007E00
00E600
007C00
ENDCHAR
STARTCHAR egrave
ENCODING 232
SWIDTH 850 0
DWIDTH 26 0
BBX 21 25 3 0
BITMAP
07E000
03F000
01F800
00FC00
FFFFF0
FFFFF0
FFFFF0
FFFFF0
FFFFF0
FFFFF0
FF0000
FF0000
FFFFE0
FFFFE0
FFFFE0
FFFFE0
FFFFE0
FFFFE0
FF0000
FFFFF8
FFFFF8
FFFFF8
FFFFF8
FFFFF8
FFFFF8
ENDCHAR
STARTCHAR eacute
ENCODING 233
SWIDTH 850 0
DWIDTH 26 0
BBX 21 26 3 0
BITMAP
007F00
007E00
00FC00
01F800
000000
FFFFF0
FFFFF0
FFFFF0
FFFFF0
FFFFF0
FFFFF0
FF0000
FF0000
FFFFE0
FFFFE0
FFFFE0
FFFFE0
FFFFE0
FFFFE0
FF0000
FFFFF8
FFFFF8
FFFFF8
FFFFF8
FFFFF8
FFFFF8
ENDCHAR
STARTCHAR ecircumflex
ENCODING 234
SWIDTH 850 0
DWIDTH 26 0
BBX 21 25 3 0
BITMAP
01F800
07FC00
0FFE00
0E0F00
FFFFF0
FFFFF0
FFFFF0
FFFFF0
FFFFF0
FFFFF0
FF0000
FF0000
FFFFE0
FFFFE0
FFFFE0
FFFFE0
FFFFE0
FFFFE0
FF0000
FFFFF8
FFFFF8
FFFFF8
FFFFF8
FFFFF8
FFFFF8
ENDCHAR
STARTCHAR edieresis
ENCODING 235
SWIDTH 850 0
DWIDTH 26 0
BBX 21 25 3 0
BITMAP
0F9F00
0F9F00
0F9F00
0F9F00
FFFFF0
FFFFF0
FFFFF0
FFFFF0
FFFFF0
FFFFF0
FF0000
FF0000
FFFFE0
FFFFE0
FFFFE0
FFFFE0
FFFFE0
FFFFE0
FF0000
FFFFF8
FFFFF8
FFFFF8
FFFFF8
FFFFF8
FFFFF8
ENDCHAR
STARTCHAR igrave
ENCODING 236
SWIDTH 850 0
DWIDTH 26 0
BBX 21 25 2 0
BITMAP
03F000
03F800
01FC00
007C00
FFFFF8
FFFFF8
FFFFF8
FFFFF8
FFFFF8
FFFFF8
01FE00
01FE00
01FE00
01FE00
01FE00
01FE00
01FE00
01FE00
01FE00
FFFFF8
FFFFF8
FFFFF8
FFFFF8
FFFFF8
FFFFF8
ENDCHAR
STARTCHAR iacute
ENCODING 237
SWIDTH 850 0
DWIDTH 26 0
BBX 21 25 2 0
BITMAP
003F80
003F00
007E00
00FC00
FFFFF8
FFFFF8
FFFFF8
FFFFF8
FFFFF8
FFFFF8
01FE00
01FE00
01FE00
01FE00
01FE00
01FE00
01FE00
01FE00
01FE00
FFFFF8
FFFFF8
FFFFF8
FFFFF8
FFFFF8
FFFFF8
ENDCHAR
STARTCHAR icircumflex
ENCODING 238
SWIDTH 850 0
DWIDTH 26 0
BBX 21 25 2 0
BITMAP
00FC00
01FE00
07FF00
070780
FFFFF8
FFFFF8
FFFFF8
FFFFF8
FFFFF8
FFFFF8
01FE00
01FE00
01FE00
01FE00
01FE00
01FE00
01FE00
01FE00
01FE00
FFFFF8
FFFFF8
FFFFF8
FFFFF8
FFFFF8
FFFFF8
ENDCHAR
STARTCHAR idieresis
ENCODING 239
SWIDTH 850 0
DWIDTH 26 0
BBX 21 25 2 0
BITMAP
078F80
078F80
078F80
078F80
FFFFF8
FFFFF8
FFFFF8
FFFFF8
FFFFF8
FFFFF8
01FE00
01FE00
01FE00
01FE00
01FE00
01FE00
01FE00
01FE00
01FE00
FFFFF8
FFFFF8
FFFFF8
FFFFF8
FFFFF8
FFFFF8
ENDCHAR
STARTCHAR eth
ENCODING 240
SWIDTH 850 0
DWIDTH 26 0
BBX 24 21 0 0
BITMAP
3FFF80
3FFFF0
3FFFF8
3FFFFC
3FFFFE
3FFFFE
3FC1FF
3FC0FF
FFF8FF
FFF8FF
FFF8FF
FFF8FF
FFF8FF
3FC0FF
3FC1FF
3FFFFE
3FFFFE
3FFFFC
3FFFF8
3FFFF0
3FFF80
ENDCHAR
STARTCHAR ntilde
ENCODING 241
SWIDTH 850 0
DWIDTH 26 0
BBX 21 25 2 0
BITMAP
03FF80
07FF00
07FE00
000000
FE03F8
FF03F8
FF83F8
FF83F8
FFC3F8
FFE3F8
FFE3F8
FFF3F8
FFFBF8
FFFFF8
FFFFF8
FFFFF8
FFFFF8
FF7FF8
FF7FF8
FF3FF8
FF1FF8
FF0FF8
FF07F8
FF07F8
FF03F8
ENDCHAR
STARTCHAR ograve
ENCODING 242
SWIDTH 850 0
DWIDTH 26 0
BBX 22 26 2 0
BITMAP
07F000
03F000
01F800
00FC00
000000
03FE00
0FFFC0
3FFFE0
7FFFF0
7FFFF8
FFFFF8
FF87FC
FF03FC
FF03FC
FF03FC
FF03FC
FF03FC
FF03FC
FF03FC
FF87FC
FFFFF8
7FFFF8
7FFFF0
3FFFE0
0FFFC0
03FE00
ENDCHAR
STARTCHAR oacute
ENCODING 243
SWIDTH 850 0
DWIDTH 26 0
BBX 22 26 2 0
BITMAP
003F00
007E00
00FC00
00F800
000000
03FE00
0FFFC0
3FFFE0
7FFFF0
7FFFF8
FFFFF8
FF87FC
FF03FC
FF03FC
FF03FC
FF03FC
FF03FC
FF03FC
FF03FC
FF87FC
FFFFF8
7FFFF8
7FFFF0
3FFFE0
0FFFC0
03FE00
ENDCHAR
STARTCHAR ocircumflex
ENCODING 244
SWIDTH 850 0
DWIDTH 26 0
BBX 22 26 2 0
BITMAP
007800
01FC00
03FF00
07CF80
000000
03FE00
0FFFC0
3FFFE0
7FFFF0
7FFFF8
FFFFF8
FF87FC
FF03FC
FF03FC
FF03FC
FF03FC
FF03FC
FF03FC
FF03FC
FF87FC
FFFFF8
7FFFF8
7FFFF0
3FFFE0
0FFFC0
03FE00
ENDCHAR
STARTCHAR otilde
ENCODING 245
SWIDTH 850 0
DWIDTH 26 0
BBX 22 26 2 0
BITMAP
01E780
03FF80
07FF00
079E00
000000
03FE00
0FFFC0
3FFFE0
7FFFF0
7FFFF8
FFFFF8
FF87FC
FF03FC
FF03FC
FF03FC
FF03FC
FF03FC
FF03FC
FF03FC
FF87FC
FFFFF8
7FFFF8
7FFFF0
3FFFE0
0FFFC0
03FE00
ENDCHAR
STARTCHAR odieresis
ENCODING 246
SWIDTH 850 0
DWIDTH 26 0
BBX 22 26 2 0
BITMAP
078F80
078F80
078F80
078F80
000000
03FE00
0FFFC0
3FFFE0
7FFFF0
7FFFF8
FFFFF8
FF87FC
FF03FC
FF03FC
FF03FC
FF03FC
FF03FC
FF03FC
FF03FC
FF87FC
FFFFF8
7FFFF8
7FFFF0
3FFFE0
0FFFC0
03FE00
ENDCHAR
STARTCHAR divide
ENCODING 247
SWIDTH 850 0
DWIDTH 26 0
BBX 17 18 4 1
BITMAP
03E000
03E000
03E000
03E000
03E000
000000
000000
FFFF80
FFFF80
FFFF80
FFFF80
FFFF80
000000
03E000
03E000
03E000
03E000
03E000
ENDCHAR
STARTCHAR oslash
ENCODING 248
SWIDTH 850 0
DWIDTH 26 0
BBX 26 21 0 0
BITMAP
00FF8000
03FFF000
0FFFF800
1FFFFC00
1FFFFFC0
3FFFFFC0
3FE1FFC0
3FC1FFC0
3FCFFF80
3FFFFF00
3FFFFF00
3FFFFF00
7FFCFF00
FFE0FF00
FFE1FF00
FFFFFE00
FFFFFE00
1FFFFC00
0FFFF800
03FFF000
00FF8000
ENDCHAR
STARTCHAR ugrave
ENCODING 249
SWIDTH 850 0
DWIDTH 26 0
BBX 22 26 2 0
BITMAP
07F000
03F000
01F800
00FC00
000000
FF03FC
FF03FC
FF03FC
FF03FC
FF03FC
FF03FC
FF03FC
FF03FC
FF03FC
FF03FC
FF03FC
FF03FC
FF03FC
FF03FC
FF87F8
FFFFF8
7FFFF8
7FFFF0
3FFFE0
0FFFC0
03FE00
ENDCHAR
STARTCHAR uacute
ENCODING 250
SWIDTH 850 0
DWIDTH 26 0
BBX 22 26 2 0
BITMAP
003F00
007F00
007E00
00FC00
000000
FF03FC
FF03FC
FF03FC
FF03FC
FF03FC
FF03FC
FF03FC
FF03FC
FF03FC
FF03FC
FF03FC
FF03FC
FF03FC
FF03FC
FF87F8
FFFFF8
7FFFF8
7FFFF0
3FFFE0
0FFFC0
03FE00
ENDCHAR
STARTCHAR ucircumflex
ENCODING 251
SWIDTH 850 0
DWIDTH 26 0
BBX 22 26 2 0
BITMAP
007800
01FC00
03FF00
07CF80
000000
FF03FC
FF03FC
FF03FC
FF03FC
FF03FC
FF03FC
FF03FC
FF03FC
FF03FC
FF03FC
FF03FC
FF03FC
FF03FC
FF03FC
FF87F8
FFFFF8
7FFFF8
7FFFF0
3FFFE0
0FFFC0
03FE00
ENDCHAR
STARTCHAR udieresis
ENCODING 252
SWIDTH 850 0
DWIDTH 26 0
BBX 22 26 2 0
BITMAP
078F80
078F80
078F80
078F80
000000
FF03FC
FF03FC
FF03FC
FF03FC
FF03FC
FF03FC
FF03FC
FF03FC
FF03FC
FF03FC
FF03FC
FF03FC
FF03FC
FF03FC
FF87F8
FFFFF8
7FFFF8
7FFFF0
3FFFE0
0FFFC0
03FE00
ENDCHAR
STARTCHAR yacute
ENCODING 253
SWIDTH 850 0
DWIDTH 26 0
BBX 23 25 1 0
BITMAP
001F80
003F80
007E00
007C00
FF01FE
FF81FE
7F83FC
3FC3FC
3FC7F8
1FEFF8
1FFFF0
0FFFE0
07FFE0
07FFC0
03FFC0
03FF80
01FF00
00FF00
00FF00
00FF00
00FF00
00FF00
00FF00
00FF00
00FF00
ENDCHAR
STARTCHAR thorn
ENCODING 254
SWIDTH 850 0
DWIDTH 26 0
BBX 22 21 2 0
BITMAP
FF0000
FF8000
FF8000
FFFF00
FFFFC0
FFFFF0
FFFFF8
FFFFF8
FFFFFC
FF83FC
FF83FC
FFFFFC
FFFFF8
FFFFF8
FFFFF0
FFFFE0
FFFF80
FF8000
FF8000
FF8000
FF0000
ENDCHAR
STARTCHAR ydieresis
ENCODING 255
SWIDTH 850 0
DWIDTH 26 0
BBX 23 26 1 0
BITMAP
03C7C0
03C7C0
03C7C0
03C7C0
000000
FF01FE
FF81FE
7F83FC
3FC3FC
3FC7F8
1FEFF8
1FFFF0
0FFFE0
07FFE0
07FFC0
03FFC0
03FF80
01FF00
00FF00
00FF00
00FF00
00FF00
00FF00
00FF00
00FF00
00FF00
ENDCHAR
STARTCHAR Amacron
ENCODING 256
SWIDTH 850 0
DWIDTH 26 0
BBX 24 25 1 0
BITMAP
03FFC0
03FFC0
03FFC0
03FFC0
01FF80
03FFC0
03FFC0
07FFC0
07FFE0
07FFE0
0FFFE0
0FEFF0
0FE7F0
1FE7F0
1FC7F8
1FC3F8
3FFFF8
3FFFFC
3FFFFC
7FFFFC
7FFFFE
7FFFFE
FF00FE
FF00FF
FE007F
ENDCHAR
STARTCHAR amacron
ENCODING 257
SWIDTH 850 0
DWIDTH 26 0
BBX 24 25 1 0
BITMAP
03FFC0
03FFC0
03FFC0
03FFC0
01FF80
03FFC0
03FFC0
07FFC0
07FFE0
07FFE0
0FFFE0
0FEFF0
0FE7F0
1FE7F0
1FC7F8
1FC3F8
3FFFF8
3FFFFC
3FFFFC
7FFFFC
7FFFFE
7FFFFE
FF00FE
FF00FF
FE007F
ENDCHAR
STARTCHAR Abreve
ENCODING 258
SWIDTH 850 0
DWIDTH 26 0
BBX 24 25 1 0
BITMAP
01E780
01FF80
01FF00
007E00
01FF80
03FFC0
03FFC0
07FFC0
07FFE0
07FFE0
0FFFE0
0FEFF0
0FE7F0
1FE7F0
1FC7F8
1FC3F8
3FFFF8
3FFFFC
3FFFFC
7FFFFC
7FFFFE
7FFFFE
FF00FE
FF00FF
FE007F
ENDCHAR
STARTCHAR abreve
ENCODING 259
SWIDTH 850 0
DWIDTH 26 0
BBX 24 25 1 0
BITMAP
01E780
01FF80
01FF00
007E00
01FF80
03FFC0
03FFC0
07FFC0
07FFE0
07FFE0
0FFFE0
0FEFF0
0FE7F0
1FE7F0
1FC7F8
1FC3F8
3FFFF8
3FFFFC
3FFFFC
7FFFFC
7FFFFE
7FFFFE
FF00FE
FF00FF
FE007F
ENDCHAR
STARTCHAR Aogonek
ENCODING 260
SWIDTH 850 0
DWIDTH 26 0
BBX 24 25 1 -4
BITMAP
01FF80
03FFC0
03FFC0
07FFC0
07FFE0
07FFE0
0FFFE0
0FEFF0
0FE7F0
1FE7F0
1FC7F8
1FC3F8
3FFFF8
3FFFFC
3FFFFC
7FFFFC
7FFFFE
7FFFFE
FF00FE
FF00FF
FE007F
00003C
00003F
00001F
00000F
ENDCHAR
STARTCHAR aogonek
ENCODING 261
SWIDTH 850 0
DWIDTH 26 0
BBX 24 25 1 -4
BITMAP
01FF80
03FFC0
03FFC0
07FFC0
07FFE0
07FFE0
0FFFE0
0FEFF0
0FE7F0
1FE7F0
1FC7F8
1FC3F8
3FFFF8
3FFFFC
3FFFFC
7FFFFC
7FFFFE
7FFFFE
FF00FE
FF00FF
FE007F
00003C
00003F
00001F
00000F
ENDCHAR
STARTCHAR Cacute
ENCODING 262
SWIDTH 850 0
DWIDTH 26 0
BBX 22 26 2 0
BITMAP
003F00
007F00
007E00
00FC00
000000
01FE00
0FFFC0
1FFFE0
3FFFF0
7FFFF8
FFFFFC
FF87FC
FF03FC
FF0000
FF0000
FF0000
FF0000
FF0000
FF03FC
FF87FC
FFFFFC
7FFFF8
3FFFF0
1FFFE0
0FFFC0
01FE00
ENDCHAR
STARTCHAR cacute
ENCODING 263
SWIDTH 850 0
DWIDTH 26 0
BBX 22 26 2 0
BITMAP
003F00
007F00
007E00
00FC00
000000
01FE00
0FFFC0
1FFFE0
3FFFF0
7FFFF8
FFFFFC
FF87FC
FF03FC
FF0000
FF0000
FF0000
FF0000
FF0000
FF03FC
FF87FC
FFFFFC
7FFFF8
3FFFF0
1FFFE0
0FFFC0
01FE00
ENDCHAR
STARTCHAR Ccircumflex
ENCODING 264
SWIDTH 850 0
DWIDTH 26 0
BBX 22 26 2 0
BITMAP
007800
01FE00
03FF00
07CF80
000000
01FE00
0FFFC0
1FFFE0
3FFFF0
7FFFF8
FFFFFC
FF87FC
FF03FC
FF0000
FF0000
FF0000
FF0000
FF0000
FF03FC
FF87FC
FFFFFC
7FFFF8
3FFFF0
1FFFE0
0FFFC0
01FE00
ENDCHAR
STARTCHAR ccircumflex
ENCODING 265
SWIDTH 850 0
DWIDTH 26 0
BBX 22 26 2 0
BITMAP
007800
01FE00
03FF00
07CF80
000000
01FE00
0FFFC0
1FFFE0
3FFFF0
7FFFF8
FFFFFC
FF87FC
FF03FC
FF0000
FF0000
FF0000
FF0000
FF0000
FF03FC
FF87FC
FFFFFC
7FFFF8
3FFFF0
1FFFE0
0FFFC0
01FE00
ENDCHAR
STARTCHAR Cdotaccent
ENCODING 266
SWIDTH 850 0
DWIDTH 26 0
BBX 22 26 2 0
BITMAP
00F800
00FC00
00FC00
00FC00
000000
01FE00
0FFFC0
1FFFE0
3FFFF0
7FFFF8
FFFFFC
FF87FC
FF03FC
FF0000
FF0000
FF0000
FF0000
FF0000
FF03FC
FF87FC
FFFFFC
7FFFF8
3FFFF0
1FFFE0
0FFFC0
01FE00
ENDCHAR
STARTCHAR cdotaccent
ENCODING 267
SWIDTH 850 0
DWIDTH 26 0
BBX 22 26 2 0
BITMAP
00F800
00FC00
00FC00
00FC00
000000
01FE00
0FFFC0
1FFFE0
3FFFF0
7FFFF8
FFFFFC
FF87FC
FF03FC
FF0000
FF0000
FF0000
FF0000
FF0000
FF03FC
FF87FC
FFFFFC
7FFFF8
3FFFF0
1FFFE0
0FFFC0
01FE00
ENDCHAR
STARTCHAR Ccaron
ENCODING 268
SWIDTH 850 0
DWIDTH 26 0
BBX 22 25 2 0
BITMAP
07CF80
03FF00
01FC00
000000
01FE00
0FFFC0
1FFFF0
3FFFF8
7FFFF8
FFFFFC
FF87FC
FF03FC
FF0000
FF0000
FF0000
FF0000
FF0000
FF03FC
FF87FC
FFFFFC
7FFFF8
3FFFF0
1FFFE0
0FFFC0
01FE00
ENDCHAR
STARTCHAR ccaron
ENCODING 269
SWIDTH 850 0
DWIDTH 26 0
BBX 22 25 2 0
BITMAP
07CF80
03FF00
01FC00
000000
01FE00
0FFFC0
1FFFF0
3FFFF8
7FFFF8
FFFFFC
FF87FC
FF03FC
FF0000
FF0000
FF0000
FF0000
FF0000
FF03FC
FF87FC
FFFFFC
7FFFF8
3FFFF0
1FFFE0
0FFFC0
01FE00
ENDCHAR
STARTCHAR Dcaron
ENCODING 270
SWIDTH 850 0
DWIDTH 26 0
BBX 22 25 2 0
BITMAP
0F9E00
07FC00
03F800
00E000
FFFE00
FFFFC0
FFFFE0
FFFFF0
FFFFF8
FFFFF8
FF07FC
FF03FC
FF03FC
FF03FC
FF03FC
FF03FC
FF03FC
FF03FC
FF07FC
FFFFF8
FFFFF8
FFFFF0
FFFFE0
FFFFC0
FFFE00
ENDCHAR
STARTCHAR dcaron
ENCODING 271
SWIDTH 850 0
DWIDTH 26 0
BBX 22 25 2 0
BITMAP
0F9E00
07FC00
03F800
00E000
FFFE00
FFFFC0
FFFFE0
FFFFF0
FFFFF8
FFFFF8
FF07FC
FF03FC
FF03FC
FF03FC
FF03FC
FF03FC
FF03FC
FF03FC
FF07FC
FFFFF8
FFFFF8
FFFFF0
FFFFE0
FFFFC0
FFFE00
ENDCHAR
STARTCHAR Dcroat
ENCODING 272
SWIDTH 850 0
DWIDTH 26 0
BBX 24 21 0 0
BITMAP
3FFF80
3FFFF0
3FFFF8
3FFFFC
3FFFFE
3FFFFE
3FC1FF
3FC0FF
FFF0FF
FFF0FF
FFF0FF
FFF0FF
FFF0FF
3FC0FF
3FC1FF
3FFFFE
3FFFFE
3FFFFC
3FFFF8
3FFFF0
3FFF80
ENDCHAR
STARTCHAR dcroat
ENCODING 273
SWIDTH 850 0
DWIDTH 26 0
BBX 24 21 0 0
BITMAP
3FFF80
3FFFF0
3FFFF8
3FFFFC
3FFFFE
3FFFFE
3FC1FF
3FC0FF
FFF0FF
FFF0FF
FFF0FF
FFF0FF
FFF0FF
3FC0FF
3FC1FF
3FFFFE
3FFFFE
3FFFFC
3FFFF8
3FFFF0
3FFF80
ENDCHAR
STARTCHAR Emacron
ENCODING 274
SWIDTH 850 0
DWIDTH 26 0
BBX 20 25 3 0
BITMAP
1FFF00
1FFF00
1FFF00
1FFF00
FFFFF0
FFFFF0
FFFFF0
FFFFF0
FFFFF0
FFFFF0
FF0000
FF0000
FFFFC0
FFFFC0
FFFFC0
FFFFC0
FFFFC0
FFFFC0
FF0000
FFFFF0
FFFFF0
FFFFF0
FFFFF0
FFFFF0
FFFFF0
ENDCHAR
STARTCHAR emacron
ENCODING 275
SWIDTH 850 0
DWIDTH 26 0
BBX 20 25 3 0
BITMAP
1FFF00
1FFF00
1FFF00
1FFF00
FFFFF0
FFFFF0
FFFFF0
FFFFF0
FFFFF0
FFFFF0
FF0000
FF0000
FFFFC0
FFFFC0
FFFFC0
FFFFC0
FFFFC0
FFFFC0
FF0000
FFFFF0
FFFFF0
FFFFF0
FFFFF0
FFFFF0
FFFFF0
ENDCHAR
STARTCHAR Ebreve
ENCODING 276
SWIDTH 850 0
DWIDTH 26 0
BBX 20 25 3 0
BITMAP
079E00
07FE00
03FC00
01F800
FFFFF0
FFFFF0
FFFFF0
FFFFF0
FFFFF0
FFFFF0
FF0000
FF0000
FFFFC0
FFFFC0
FFFFC0
FFFFC0
FFFFC0
FFFFC0
FF0000
FFFFF0
FFFFF0
FFFFF0
FFFFF0
FFFFF0
FFFFF0
ENDCHAR
STARTCHAR ebreve
ENCODING 277
SWIDTH 850 0
DWIDTH 26 0
BBX 20 25 3 0
BITMAP
079E00
07FE00
03FC00
01F800
FFFFF0
FFFFF0
FFFFF0
FFFFF0
FFFFF0
FFFFF0
FF0000
FF0000
FFFFC0
FFFFC0
FFFFC0
FFFFC0
FFFFC0
FFFFC0
FF0000
FFFFF0
FFFFF0
FFFFF0
FFFFF0
FFFFF0
FFFFF0
ENDCHAR
STARTCHAR Edotaccent
ENCODING 278
SWIDTH 850 0
DWIDTH 26 0
BBX 20 25 3 0
BITMAP
01F000
01F000
01F000
01F000
FFFFF0
FFFFF0
FFFFF0
FFFFF0
FFFFF0
FFFFF0
FF0000
FF0000
FFFFC0
FFFFC0
FFFFC0
FFFFC0
FFFFC0
FFFFC0
FF0000
FFFFF0
FFFFF0
FFFFF0
FFFFF0
FFFFF0
FFFFF0
ENDCHAR
STARTCHAR edotaccent
ENCODING 279
SWIDTH 850 0
DWIDTH 26 0
BBX 20 25 3 0
BITMAP
01F000
01F000
01F000
01F000
FFFFF0
FFFFF0
FFFFF0
FFFFF0
FFFFF0
FFFFF0
FF0000
FF0000
FFFFC0
FFFFC0
FFFFC0
FFFFC0
FFFFC0
FFFFC0
FF0000
FFFFF0
FFFFF0
FFFFF0
FFFFF0
FFFFF0
FFFFF0
ENDCHAR
STARTCHAR Eogonek
ENCODING 280
SWIDTH 850 0
DWIDTH 26 0
BBX 20 25 3 -4
BITMAP
FFFFF0
FFFFF0
FFFFF0
FFFFF0
FFFFF0
FFFFF0
FF0000
FF0000
FFFFC0
FFFFC0
FFFFC0
FFFFC0
FFFFC0
FFFFC0
FF0000
FFFFF0
FFFFF0
FFFFF0
FFFFF0
FFFFF0
FFFFF0
0003C0
0001F0
0001F0
0000F0
ENDCHAR
STARTCHAR eogonek
ENCODING 281
SWIDTH 850 0
DWIDTH 26 0
BBX 20 25 3 -4
BITMAP
FFFFF0
FFFFF0
FFFFF0
FFFFF0
FFFFF0
FFFFF0
FF0000
FF0000
FFFFC0
FFFFC0
FFFFC0
FFFFC0
FFFFC0
FFFFC0
FF0000
FFFFF0
FFFFF0
FFFFF0
FFFFF0
FFFFF0
FFFFF0
0003C0
0001F0
0001F0
0000F0
ENDCHAR
STARTCHAR Ecaron
ENCODING 282
SWIDTH 850 0
DWIDTH 26 0
BBX 20 25 3 0
BITMAP
0F9F00
07FE00
03F800
00E000
FFFFF0
FFFFF0
FFFFF0
FFFFF0
FFFFF0
FFFFF0
FF0000
FF0000
FFFFC0
FFFFC0
FFFFC0
FFFFC0
FFFFC0
FFFFC0
FF0000
FFFFF0
FFFFF0
FFFFF0
FFFFF0
FFFFF0
FFFFF0
ENDCHAR
STARTCHAR ecaron
ENCODING 283
SWIDTH 850 0
DWIDTH 26 0
BBX 20 25 3 0
BITMAP
0F9F00
07FE00
03F800
00E000
FFFFF0
FFFFF0
FFFFF0
FFFFF0
FFFFF0
FFFFF0
FF0000
FF0000
FFFFC0
FFFFC0
FFFFC0
FFFFC0
FFFFC0
FFFFC0
FF0000
FFFFF0
FFFFF0
FFFFF0
FFFFF0
FFFFF0
FFFFF0
ENDCHAR
STARTCHAR Gcircumflex
ENCODING 284
SWIDTH 850 0
DWIDTH 26 0
BBX 22 26 2 0
BITMAP
007800
01FE00
03FF00
07CF80
000000
01FE00
0FFFC0
3FFFE0
7FFFF8
7FFFF8
FFFFFC
FF87FC
FF0000
FF0FFC
FF0FFC
FF0FFC
FF0FFC
FF0FFC
FF01FC
FF83FC
FFFFFC
7FFFF8
7FFFF8
3FFFF0
0FFFC0
01FF00
ENDCHAR
STARTCHAR gcircumflex
ENCODING 285
SWIDTH 850 0
DWIDTH 26 0
BBX 22 26 2 0
BITMAP
007800
01FE00
03FF00
07CF80
000000
01FE00
0FFFC0
3FFFE0
7FFFF8
7FFFF8
FFFFFC
FF87FC
FF0000
FF0FFC
FF0FFC
FF0FFC
FF0FFC
FF0FFC
FF01FC
FF83FC
FFFFFC
7FFFF8
7FFFF8
3FFFF0
0FFFC0
01FF00
ENDCHAR
STARTCHAR Gbreve
ENCODING 286
SWIDTH 850 0
DWIDTH 26 0
BBX 22 26 2 0
BITMAP
07CF00
03FF00
03FE00
00FC00
000000
01FE00
0FFFC0
3FFFE0
7FFFF8
7FFFF8
FFFFFC
FF87FC
FF0000
FF0FFC
FF0FFC
FF0FFC
FF0FFC
FF0FFC
FF01FC
FF83FC
FFFFFC
7FFFF8
7FFFF8
3FFFF0
0FFFC0
01FF00
ENDCHAR
STARTCHAR gbreve
ENCODING 287
SWIDTH 850 0
DWIDTH 26 0
BBX 22 26 2 0
BITMAP
07CF00
03FF00
03FE00
00FC00
000000
01FE00
0FFFC0
3FFFE0
7FFFF8
7FFFF8
FFFFFC
FF87FC
FF0000
FF0FFC
FF0FFC
FF0FFC
FF0FFC
FF0FFC
FF01FC
FF83FC
FFFFFC
7FFFF8
7FFFF8
3FFFF0
0FFFC0
01FF00
ENDCHAR
STARTCHAR Gdotaccent
ENCODING 288
SWIDTH 850 0
DWIDTH 26 0
BBX 22 26 2 0
BITMAP
00F800
00F800
00F800
00F800
000000
01FE00
0FFFC0
3FFFE0
7FFFF8
7FFFF8
FFFFFC
FF87FC
FF0000
FF0FFC
FF0FFC
FF0FFC
FF0FFC
FF0FFC
FF01FC
FF83FC
FFFFFC
7FFFF8
7FFFF8
3FFFF0
0FFFC0
01FF00
ENDCHAR
STARTCHAR gdotaccent
ENCODING 289
SWIDTH 850 0
DWIDTH 26 0
BBX 22 26 2 0
BITMAP
00F800
00F800
00F800
00F800
000000
01FE00
0FFFC0
3FFFE0
7FFFF8
7FFFF8
FFFFFC
FF87FC
FF0000
FF0FFC
FF0FFC
FF0FFC
FF0FFC
FF0FFC
FF01FC
FF83FC
FFFFFC
7FFFF8
7FFFF8
3FFFF0
0FFFC0
01FF00
ENDCHAR
STARTCHAR Gcommaaccent
ENCODING 290
SWIDTH 850 0
DWIDTH 26 0
BBX 22 25 2 -4
BITMAP
01FE00
0FFFC0
3FFFE0
7FFFF8
7FFFF8
FFFFFC
FF87FC
FF0000
FF0FFC
FF0FFC
FF0FFC
FF0FFC
FF0FFC
FF01FC
FF83FC
FFFFFC
7FFFF8
7FFFF8
3FFFF0
0FFFC0
01FF00
00FC00
01FC00
03F000
03E000
ENDCHAR
STARTCHAR gcommaaccent
ENCODING 291
SWIDTH 850 0
DWIDTH 26 0
BBX 22 25 2 -4
BITMAP
01FE00
0FFFC0
3FFFE0
7FFFF8
7FFFF8
FFFFFC
FF87FC
FF0000
FF0FFC
FF0FFC
FF0FFC
FF0FFC
FF0FFC
FF01FC
FF83FC
FFFFFC
7FFFF8
7FFFF8
3FFFF0
0FFFC0
01FF00
00FC00
01FC00
03F000
03E000
ENDCHAR
STARTCHAR Hcircumflex
ENCODING 292
SWIDTH 850 0
DWIDTH 26 0
BBX 22 25 2 0
BITMAP
00FC00
03FE00
07FF00
070700
FF03F8
FF03FC
FF03FC
FF03FC
FF03FC
FF03FC
FF03FC
FFFFFC
FFFFFC
FFFFFC
FFFFFC
FFFFFC
FFFFFC
FFFFFC
FF03FC
FF03FC
FF03FC
FF03FC
FF03FC
FF03FC
FF03F8
ENDCHAR
STARTCHAR hcircumflex
ENCODING 293
SWIDTH 850 0
DWIDTH 26 0
BBX 22 25 2 0
BITMAP
00FC00
03FE00
07FF00
070700
FF03F8
FF03FC
FF03FC
FF03FC
FF03FC
FF03FC
FF03FC
FFFFFC
FFFFFC
FFFFFC
FFFFFC
FFFFFC
FFFFFC
FFFFFC
FF03FC
FF03FC
FF03FC
FF03FC
FF03FC
FF03FC
FF03F8
ENDCHAR
STARTCHAR Hbar
ENCODING 294
SWIDTH 850 0
DWIDTH 26 0
BBX 22 21 2 0
BITMAP
FF03F8
FF03FC
FFFFFC
FFFFFC
FFFFFC
FFFFFC
FF03FC
FFFFFC
FFFFFC
FFFFFC
FFFFFC
FFFFFC
FFFFFC
FFFFFC
FF03FC
FF03FC
FF03FC
FF03FC
FF03FC
FF03FC
FF03F8
ENDCHAR
STARTCHAR hbar
ENCODING 295
SWIDTH 850 0
DWIDTH 26 0
BBX 22 21 2 0
BITMAP
FF03F8
FF03FC
FFFFFC
FFFFFC
FFFFFC
FFFFFC
FF03FC
FFFFFC
FFFFFC
FFFFFC
FFFFFC
FFFFFC
FFFFFC
FFFFFC
FF03FC
FF03FC
FF03FC
FF03FC
FF03FC
FF03FC
FF03F8
ENDCHAR
STARTCHAR Itilde
ENCODING 296
SWIDTH 850 0
DWIDTH 26 0
BBX 21 25 2 0
BITMAP
01E780
07FF80
07FF00
079E00
FFFFF8
FFFFF8
FFFFF8
FFFFF8
FFFFF8
FFFFF8
01FE00
01FE00
01FE00
01FE00
01FE00
01FE00
01FE00
01FE00
01FE00
FFFFF8
FFFFF8
FFFFF8
FFFFF8
FFFFF8
FFFFF8
ENDCHAR
STARTCHAR itilde
ENCODING 297
SWIDTH 850 0
DWIDTH 26 0
BBX 21 25 2 0
BITMAP
01E780
07FF80
07FF00
079E00
FFFFF8
FFFFF8
FFFFF8
FFFFF8
FFFFF8
FFFFF8
01FE00
01FE00
01FE00
01FE00
01FE00
01FE00
01FE00
01FE00
01FE00
FFFFF8
FFFFF8
FFFFF8
FFFFF8
FFFFF8
FFFFF8
ENDCHAR
STARTCHAR imacron
ENCODING 299
SWIDTH 850 0
DWIDTH 26 0
BBX 21 25 2 0
BITMAP
07FF80
07FF80
07FF80
07FF80
FFFFF8
FFFFF8
FFFFF8
FFFFF8
FFFFF8
FFFFF8
01FE00
01FE00
01FE00
01FE00
01FE00
01FE00
01FE00
01FE00
01FE00
FFFFF8
FFFFF8
FFFFF8
FFFFF8
FFFFF8
FFFFF8
ENDCHAR
STARTCHAR Ibreve
ENCODING 300
SWIDTH 850 0
DWIDTH 26 0
BBX 21 25 2 0
BITMAP
07CF00
03FF00
03FE00
00FC00
FFFFF8
FFFFF8
FFFFF8
FFFFF8
FFFFF8
FFFFF8
01FE00
01FE00
01FE00
01FE00
01FE00
01FE00
01FE00
01FE00
01FE00
FFFFF8
FFFFF8
FFFFF8
FFFFF8
FFFFF8
FFFFF8
ENDCHAR
STARTCHAR ibreve
ENCODING 301
SWIDTH 850 0
DWIDTH 26 0
BBX 21 25 2 0
BITMAP
07CF00
03FF00
03FE00
00FC00
FFFFF8
FFFFF8
FFFFF8
FFFFF8
FFFFF8
FFFFF8
01FE00
01FE00
01FE00
01FE00
01FE00
01FE00
01FE00
01FE00
01FE00
FFFFF8
FFFFF8
FFFFF8
FFFFF8
FFFFF8
FFFFF8
ENDCHAR
STARTCHAR Iogonek
ENCODING 302
SWIDTH 850 0
DWIDTH 26 0
BBX 21 25 2 -4
BITMAP
FFFFF8
FFFFF8
FFFFF8
FFFFF8
FFFFF8
FFFFF8
01FE00
01FE00
01FE00
01FE00
01FE00
01FE00
01FE00
01FE00
01FE00
FFFFF8
FFFFF8
FFFFF8
FFFFF8
FFFFF8
FFFFF8
0001E0
0001F8
0000F8
000078
ENDCHAR
STARTCHAR iogonek
ENCODING 303
SWIDTH 850 0
DWIDTH 26 0
BBX 21 25 2 -4
BITMAP
FFFFF8
FFFFF8
FFFFF8
FFFFF8
FFFFF8
FFFFF8
01FE00
01FE00
01FE00
01FE00
01FE00
01FE00
01FE00
01FE00
01FE00
FFFFF8
FFFFF8
FFFFF8
FFFFF8
FFFFF8
FFFFF8
0001E0
0001F8
0000F8
000078
ENDCHAR
STARTCHAR Idotaccent
ENCODING 304
SWIDTH 850 0
DWIDTH 26 0
BBX 21 25 2 0
BITMAP
00F800
00F800
00F800
00F800
FFFFF8
FFFFF8
FFFFF8
FFFFF8
FFFFF8
FFFFF8
01FE00
01FE00
01FE00
01FE00
01FE00
01FE00
01FE00
01FE00
01FE00
FFFFF8
FFFFF8
FFFFF8
FFFFF8
FFFFF8
FFFFF8
ENDCHAR
STARTCHAR Jcircumflex
ENCODING 308
SWIDTH 850 0
DWIDTH 26 0
BBX 22 26 1 0
BITMAP
003C00
00FF00
01FF80
03E7C0
000000
3FFFFC
3FFFFC
3FFFFC
3FFFFC
3FFFFC
3FFFFC
0003FC
0003FC
0003FC
0003FC
0003FC
0003FC
0003FC
FF03FC
FF87FC
FFFFFC
7FFFF8
3FFFF0
1FFFE0
0FFFC0
01FE00
ENDCHAR
STARTCHAR jcircumflex
ENCODING 309
SWIDTH 850 0
DWIDTH 26 0
BBX 22 26 1 0
BITMAP
003C00
00FF00
01FF80
03E7C0
000000
3FFFFC
3FFFFC
3FFFFC
3FFFFC
3FFFFC
3FFFFC
0003FC
0003FC
0003FC
0003FC
0003FC
0003FC
0003FC
FF03FC
FF87FC
FFFFFC
7FFFF8
3FFFF0
1FFFE0
0FFFC0
01FE00
ENDCHAR
STARTCHAR Kcommaaccent
ENCODING 310
SWIDTH 850 0
DWIDTH 26 0
BBX 22 26 3 -5
BITMAP
FE0FF8
FF0FF8
FF1FF0
FF3FE0
FF7FC0
FFFFC0
FFFF80
FFFF00
FFFE00
FFFC00
FFFE00
FFFE00
FFFF00
FFFF80
FFFFC0
FF7FE0
FF7FE0
FF3FF0
FF1FF8
FF0FFC
FF07FC
000000
01F800
03F000
07E000
07C000
ENDCHAR
STARTCHAR kcommaaccent
ENCODING 311
SWIDTH 850 0
DWIDTH 26 0
BBX 22 26 3 -5
BITMAP
FE0FF8
FF0FF8
FF1FF0
FF3FE0
FF7FC0
FFFFC0
FFFF80
FFFF00
FFFE00
FFFC00
FFFE00
FFFE00
FFFF00
FFFF80
FFFFC0
FF7FE0
FF7FE0
FF3FF0
FF1FF8
FF0FFC
FF07FC
000000
01F800
03F000
07E000
07C000
ENDCHAR
STARTCHAR Lacute
ENCODING 313
SWIDTH 850 0
DWIDTH 26 0
BBX 19 25 4 0
BITMAP
1FC000
1F8000
3F0000
7E0000
FF0000
FF0000
FF0000
FF0000
FF0000
FF0000
FF0000
FF0000
FF0000
FF0000
FF0000
FF0000
FF0000
FF0000
FF0000
FFFFE0
FFFFE0
FFFFE0
FFFFE0
FFFFE0
FFFFE0
ENDCHAR
STARTCHAR lacute
ENCODING 314
SWIDTH 850 0
DWIDTH 26 0
BBX 19 25 4 0
BITMAP
1FC000
1F8000
3F0000
7E0000
FF0000
FF0000
FF0000
FF0000
FF0000
FF0000
FF0000
FF0000
FF0000
FF0000
FF0000
FF0000
FF0000
FF0000
FF0000
FFFFE0
FFFFE0
FFFFE0
FFFFE0
FFFFE0
FFFFE0
ENDCHAR
STARTCHAR Lcommaaccent
ENCODING 315
SWIDTH 850 0
DWIDTH 26 0
BBX 19 26 4 -5
BITMAP
FF0000
FF0000
FF0000
FF0000
FF0000
FF0000
FF0000
FF0000
FF0000
FF0000
FF0000
FF0000
FF0000
FF0000
FF0000
FFFFE0
FFFFE0
FFFFE0
FFFFE0
FFFFE0
FFFFE0
000000
03F800
03F000
07E000
0FC000
ENDCHAR
STARTCHAR lcommaaccent
ENCODING 316
SWIDTH 850 0
DWIDTH 26 0
BBX 19 26 4 -5
BITMAP
FF0000
FF0000
FF0000
FF0000
FF0000
FF0000
FF0000
FF0000
FF0000
FF0000
FF0000
FF0000
FF0000
FF0000
FF0000
FFFFE0
FFFFE0
FFFFE0
FFFFE0
FFFFE0
FFFFE0
000000
03F800
03F000
07E000
0FC000
ENDCHAR
STARTCHAR Lcaron
ENCODING 317
SWIDTH 850 0
DWIDTH 26 0
BBX 19 21 4 0
BITMAP
FF0F80
FF1F80
FF1F00
FF1F00
FF1E00
FF1E00
FF0000
FF0000
FF0000
FF0000
FF0000
FF0000
FF0000
FF0000
FF0000
FFFFE0
FFFFE0
FFFFE0
FFFFE0
FFFFE0
FFFFE0
ENDCHAR
STARTCHAR lcaron
ENCODING 318
SWIDTH 850 0
DWIDTH 26 0
BBX 19 21 4 0
BITMAP
FF0F80
FF1F80
FF1F00
FF1F00
FF1E00
FF1E00
FF0000
FF0000
FF0000
FF0000
FF0000
FF0000
FF0000
FF0000
FF0000
FFFFE0
FFFFE0
FFFFE0
FFFFE0
FFFFE0
FFFFE0
ENDCHAR
STARTCHAR Ldot
ENCODING 319
SWIDTH 850 0
DWIDTH 26 0
BBX 19 21 4 0
BITMAP
FF0000
FF0000
FF0000
FF0000
FF0000
FF0000
FF1F00
FF1F00
FF1F00
FF1F00
FF1F00
FF1F00
FF0000
FF0000
FF0000
FFFFE0
FFFFE0
FFFFE0
FFFFE0
FFFFE0
FFFFE0
ENDCHAR
STARTCHAR ldot
ENCODING 320
SWIDTH 850 0
DWIDTH 26 0
BBX 19 21 4 0
BITMAP
FF0000
FF0000
FF0000
FF0000
FF0000
FF0000
FF1F00
FF1F00
FF1F00
FF1F00
FF1F00
FF1F00
FF0000
FF0000
FF0000
FFFFE0
FFFFE0
FFFFE0
FFFFE0
FFFFE0
FFFFE0
ENDCHAR
STARTCHAR Lslash
ENCODING 321
SWIDTH 850 0
DWIDTH 26 0
BBX 20 21 3 0
BITMAP
7F8000
7F8000
7F8000
7F8000
7F8200
7F8E00
7FFE00
7FFE00
7FFE00
7FFC00
FFF000
FF8000
FF8000
FF8000
FF8000
7FFFF0
7FFFF0
7FFFF0
7FFFF0
7FFFF0
7FFFF0
ENDCHAR
STARTCHAR lslash
ENCODING 322
SWIDTH 850 0
DWIDTH 26 0
BBX 20 21 3 0
BITMAP
7F8000
7F8000
7F8000
7F8000
7F8200
7F8E00
7FFE00
7FFE00
7FFE00
7FFC00
FFF000
FF8000
FF8000
FF8000
FF8000
7FFFF0
7FFFF0
7FFFF0
7FFFF0
7FFFF0
7FFFF0
ENDCHAR
STARTCHAR Nacute
ENCODING 323
SWIDTH 850 0
DWIDTH 26 0
BBX 21 25 2 0
BITMAP
003F00
007F00
00FC00
00F800
FE03F8
FF03F8
FF83F8
FF83F8
FFC3F8
FFE3F8
FFE3F8
FFF3F8
FFFBF8
FFFFF8
FFFFF8
FFFFF8
FFFFF8
FF7FF8
FF7FF8
FF3FF8
FF1FF8
FF0FF8
FF07F8
FF07F8
FF03F8
ENDCHAR
STARTCHAR nacute
ENCODING 324
SWIDTH 850 0
DWIDTH 26 0
BBX 21 25 2 0
BITMAP
003F00
007F00
00FC00
00F800
FE03F8
FF03F8
FF83F8
FF83F8
FFC3F8
FFE3F8
FFE3F8
FFF3F8
FFFBF8
FFFFF8
FFFFF8
FFFFF8
FFFFF8
FF7FF8
FF7FF8
FF3FF8
FF1FF8
FF0FF8
FF07F8
FF07F8
FF03F8
ENDCHAR
STARTCHAR Ncommaaccent
ENCODING 325
SWIDTH 850 0
DWIDTH 26 0
BBX 21 26 2 -5
BITMAP
FE03F8
FF03F8
FF83F8
FF83F8
FFC3F8
FFE3F8
FFE3F8
FFF3F8
FFFBF8
FFFFF8
FFFFF8
FFFFF8
FFFFF8
FF7FF8
FF7FF8
FF3FF8
FF1FF8
FF0FF8
FF07F8
FF07F8
FF03F8
000000
00FC00
01F800
03F000
03E000
ENDCHAR
STARTCHAR ncommaaccent
ENCODING 326
SWIDTH 850 0
DWIDTH 26 0
BBX 21 26 2 -5
BITMAP
FE03F8
FF03F8
FF83F8
FF83F8
FFC3F8
FFE3F8
FFE3F8
FFF3F8
FFFBF8
FFFFF8
FFFFF8
FFFFF8
FFFFF8
FF7FF8
FF7FF8
FF3FF8
FF1FF8
FF0FF8
FF07F8
FF07F8
FF03F8
000000
00FC00
01F800
03F000
03E000
ENDCHAR
STARTCHAR Ncaron
ENCODING 327
SWIDTH 850 0
DWIDTH 26 0
BBX 21 25 2 0
BITMAP
07CF80
03FF00
01FC00
007000
FE03F8
FF03F8
FF83F8
FF83F8
FFC3F8
FFE3F8
FFE3F8
FFF3F8
FFFBF8
FFFFF8
FFFFF8
FFFFF8
FFFFF8
FF7FF8
FF7FF8
FF3FF8
FF1FF8
FF0FF8
FF07F8
FF07F8
FF03F8
ENDCHAR
STARTCHAR ncaron
ENCODING 328
SWIDTH 850 0
DWIDTH 26 0
BBX 21 25 2 0
BITMAP
07CF80
03FF00
01FC00
007000
FE03F8
FF03F8
FF83F8
FF83F8
FFC3F8
FFE3F8
FFE3F8
FFF3F8
FFFBF8
FFFFF8
FFFFF8
FFFFF8
FFFFF8
FF7FF8
FF7FF8
FF3FF8
FF1FF8
FF0FF8
FF07F8
FF07F8
FF03F8
ENDCHAR
STARTCHAR Eng
ENCODING 330
SWIDTH 850 0
DWIDTH 26 0
BBX 21 25 2 -4
BITMAP
FE03F8
FF03F8
FF83F8
FF83F8
FFC3F8
FFE3F8
FFE3F8
FFF3F8
FFFBF8
FFFFF8
FFFFF8
FFFFF8
FFFFF8
FF7FF8
FF7FF8
FF3FF8
FF1FF8
FF0FF8
FF07F8
FF07F8
FF03F8
0007F0
003FF0
003FE0
003F80
ENDCHAR
STARTCHAR eng
ENCODING 331
SWIDTH 850 0
DWIDTH 26 0
BBX 21 25 2 -4
BITMAP
FE03F8
FF03F8
FF83F8
FF83F8
FFC3F8
FFE3F8
FFE3F8
FFF3F8
FFFBF8
FFFFF8
FFFFF8
FFFFF8
FFFFF8
FF7FF8
FF7FF8
FF3FF8
FF1FF8
FF0FF8
FF07F8
FF07F8
FF03F8
0007F0
003FF0
003FE0
003F80
ENDCHAR
STARTCHAR Omacron
ENCODING 332
SWIDTH 850 0
DWIDTH 26 0
BBX 22 26 2 0
BITMAP
07FF80
07FF80
07FF80
07FF80
000000
03FE00
0FFFC0
3FFFE0
7FFFF0
7FFFF8
FFFFF8
FF87FC
FF03FC
FF03FC
FF03FC
FF03FC
FF03FC
FF03FC
FF03FC
FF87FC
FFFFF8
7FFFF8
7FFFF0
3FFFE0
0FFFC0
03FE00
ENDCHAR
STARTCHAR omacron
ENCODING 333
SWIDTH 850 0
DWIDTH 26 0
BBX 22 26 2 0
BITMAP
07FF80
07FF80
07FF80
07FF80
000000
03FE00
0FFFC0
3FFFE0
7FFFF0
7FFFF8
FFFFF8
FF87FC
FF03FC
FF03FC
FF03FC
FF03FC
FF03FC
FF03FC
FF03FC
FF87FC
FFFFF8
7FFFF8
7FFFF0
3FFFE0
0FFFC0
03FE00
ENDCHAR
STARTCHAR Obreve
ENCODING 334
SWIDTH 850 0
DWIDTH 26 0
BBX 22 26 2 0
BITMAP
07CF00
03FF00
03FE00
00FC00
000000
03FE00
0FFFC0
3FFFE0
7FFFF0
7FFFF8
FFFFF8
FF87FC
FF03FC
FF03FC
FF03FC
FF03FC
FF03FC
FF03FC
FF03FC
FF87FC
FFFFF8
7FFFF8
7FFFF0
3FFFE0
0FFFC0
03FE00
ENDCHAR
STARTCHAR obreve
ENCODING 335
SWIDTH 850 0
DWIDTH 26 0
BBX 22 26 2 0
BITMAP
07CF00
03FF00
03FE00
00FC00
000000
03FE00
0FFFC0
3FFFE0
7FFFF0
7FFFF8
FFFFF8
FF87FC
FF03FC
FF03FC
FF03FC
FF03FC
FF03FC
FF03FC
FF03FC
FF87FC
FFFFF8
7FFFF8
7FFFF0
3FFFE0
0FFFC0
03FE00
ENDCHAR
STARTCHAR Ohungarumlaut
ENCODING 336
SWIDTH 850 0
DWIDTH 26 0
BBX 22 26 2 0
BITMAP
01F3E0
03F7E0
03E7C0
07CF80
000000
03FE00
0FFFC0
3FFFE0
7FFFF0
7FFFF8
FFFFF8
FF87FC
FF03FC
FF03FC
FF03FC
FF03FC
FF03FC
FF03FC
FF03FC
FF87FC
FFFFF8
7FFFF8
7FFFF0
3FFFE0
0FFFC0
03FE00
ENDCHAR
STARTCHAR ohungarumlaut
ENCODING 337
SWIDTH 850 0
DWIDTH 26 0
BBX 22 26 2 0
BITMAP
01F3E0
03F7E0
03E7C0
07CF80
000000
03FE00
0FFFC0
3FFFE0
7FFFF0
7FFFF8
FFFFF8
FF87FC
FF03FC
FF03FC
FF03FC
FF03FC
FF03FC
FF03FC
FF03FC
FF87FC
FFFFF8
7FFFF8
7FFFF0
3FFFE0
0FFFC0
03FE00
ENDCHAR
STARTCHAR OE
ENCODING 338
SWIDTH 850 0
DWIDTH 26 0
BBX 22 21 2 0
BITMAP
03FFFC
1FFFFC
3FFFFC
7FFFFC
7FFFFC
FFFFFC
FF3F80
FE3F80
FE3FF8
FE3FF8
FE3FF8
FE3FF8
FE3FF8
FE3FF8
FF3F80
FFFFFC
FFFFFC
7FFFFC
3FFFFC
1FFFFC
03FFFC
ENDCHAR
STARTCHAR oe
ENCODING 339
SWIDTH 850 0
DWIDTH 26 0
BBX 22 21 2 0
BITMAP
03FFFC
1FFFFC
3FFFFC
7FFFFC
7FFFFC
FFFFFC
FF3F80
FE3F80
FE3FF8
FE3FF8
FE3FF8
FE3FF8
FE3FF8
FE3FF8
FF3F80
FFFFFC
FFFFFC
7FFFFC
3FFFFC
1FFFFC
03FFFC
ENDCHAR
STARTCHAR Racute
ENCODING 340
SWIDTH 850 0
DWIDTH 26 0
BBX 22 25 3 0
BITMAP
007E00
00FC00
01F800
03F000
FFFF00
FFFFC0
FFFFE0
FFFFF0
FFFFF8
FFFFF8
FF07F8
FF07F8
FF07F8
FFFFF8
FFFFF8
FFFFF0
FFFFE0
FFFFC0
FFFFC0
FF1FE0
FF1FF0
FF0FF0
FF0FF8
FF07F8
FF07FC
ENDCHAR
STARTCHAR racute
ENCODING 341
SWIDTH 850 0
DWIDTH 26 0
BBX 22 25 3 0
BITMAP
007E00
00FC00
01F800
03F000
FFFF00
FFFFC0
FFFFE0
FFFFF0
FFFFF8
FFFFF8
FF07F8
FF07F8
FF07F8
FFFFF8
FFFFF8
FFFFF0
FFFFE0
FFFFC0
FFFFC0
FF1FE0
FF1FF0
FF0FF0
FF0FF8
FF07F8
FF07FC
ENDCHAR
STARTCHAR Rcommaaccent
ENCODING 342
SWIDTH 850 0
DWIDTH 26 0
BBX 22 26 3 -5
BITMAP
FFFF00
FFFFC0
FFFFE0
FFFFF0
FFFFF8
FFFFF8
FF07F8
FF07F8
FF07F8
FFFFF8
FFFFF8
FFFFF0
FFFFE0
FFFFC0
FFFFC0
FF1FE0
FF1FF0
FF0FF0
FF0FF8
FF07F8
FF07FC
000000
01FC00
01F800
03F000
07E000
ENDCHAR
STARTCHAR rcommaaccent
ENCODING 343
SWIDTH 850 0
DWIDTH 26 0
BBX 22 26 3 -5
BITMAP
FFFF00
FFFFC0
FFFFE0
FFFFF0
FFFFF8
FFFFF8
FF07F8
FF07F8
FF07F8
FFFFF8
FFFFF8
FFFFF0
FFFFE0
FFFFC0
FFFFC0
FF1FE0
FF1FF0
FF0FF0
FF0FF8
FF07F8
FF07FC
000000
01FC00
01F800
03F000
07E000
ENDCHAR
STARTCHAR Rcaron
ENCODING 344
SWIDTH 850 0
DWIDTH 26 0
BBX 22 25 3 0
BITMAP
0F3E00
07FC00
03F800
00E000
FFFF00
FFFFC0
FFFFE0
FFFFF0
FFFFF8
FFFFF8
FF07F8
FF07F8
FF07F8
FFFFF8
FFFFF8
FFFFF0
FFFFE0
FFFFC0
FFFFC0
FF1FE0
FF1FF0
FF0FF0
FF0FF8
FF07F8
FF07FC
ENDCHAR
STARTCHAR rcaron
ENCODING 345
SWIDTH 850 0
DWIDTH 26 0
BBX 22 25 3 0
BITMAP
0F3E00
07FC00
03F800
00E000
FFFF00
FFFFC0
FFFFE0
FFFFF0
FFFFF8
FFFFF8
FF07F8
FF07F8
FF07F8
FFFFF8
FFFFF8
FFFFF0
FFFFE0
FFFFC0
FFFFC0
FF1FE0
FF1FF0
FF0FF0
FF0FF8
FF07F8
FF07FC
ENDCHAR
STARTCHAR Sacute
ENCODING 346
SWIDTH 850 0
DWIDTH 26 0
BBX 21 26 2 0
BITMAP
007E00
00FE00
00FC00
01F800
000000
03FE00
0FFF80
3FFFE0
7FFFF0
7FFFF0
7FFFF8
7F8FF8
7F8000
7FFF00
7FFFE0
3FFFF0
0FFFF8
01FFF8
0007F8
FF07F8
FFFFF8
FFFFF8
7FFFF0
3FFFE0
1FFFC0
03FE00
ENDCHAR
STARTCHAR sacute
ENCODING 347
SWIDTH 850 0
DWIDTH 26 0
BBX 21 26 2 0
BITMAP
007E00
00FE00
00FC00
01F800
000000
03FE00
0FFF80
3FFFE0
7FFFF0
7FFFF0
7FFFF8
7F8FF8
7F8000
7FFF00
7FFFE0
3FFFF0
0FFFF8
01FFF8
0007F8
FF07F8
FFFFF8
FFFFF8
7FFFF0
3FFFE0
1FFFC0
03FE00
ENDCHAR
STARTCHAR Scircumflex
ENCODING 348
SWIDTH 850 0
DWIDTH 26 0
BBX 21 26 2 0
BITMAP
007000
01FC00
03FE00
07CF00
000000
03FE00
0FFF80
3FFFE0
7FFFF0
7FFFF0
7FFFF8
7F8FF8
7F8000
7FFF00
7FFFE0
3FFFF0
0FFFF8
01FFF8
0007F8
FF07F8
FFFFF8
FFFFF8
7FFFF0
3FFFE0
1FFFC0
03FE00
ENDCHAR
STARTCHAR scircumflex
ENCODING 349
SWIDTH 850 0
DWIDTH 26 0
BBX 21 26 2 0
BITMAP
007000
01FC00
03FE00
07CF00
000000
03FE00
0FFF80
3FFFE0
7FFFF0
7FFFF0
7FFFF8
7F8FF8
7F8000
7FFF00
7FFFE0
3FFFF0
0FFFF8
01FFF8
0007F8
FF07F8
FFFFF8
FFFFF8
7FFFF0
3FFFE0
1FFFC0
03FE00
ENDCHAR
STARTCHAR Scedilla
ENCODING 350
SWIDTH 850 0
DWIDTH 26 0
BBX 21 25 2 -4
BITMAP
03FE00
0FFF80
3FFFE0
7FFFF0
7FFFF0
7FFFF8
7F8FF8
7F8000
7FFF00
7FFFC0
3FFFF0
0FFFF8
01FFF8
0007F8
FF07F8
FFFFF8
FFFFF8
7FFFF0
3FFFF0
1FFFC0
03FF00
007C00
00EE00
00FE00
007C00
ENDCHAR
STARTCHAR scedilla
ENCODING 351
SWIDTH 850 0
DWIDTH 26 0
BBX 21 25 2 -4
BITMAP
03FE00
0FFF80
3FFFE0
7FFFF0
7FFFF0
7FFFF8
7F8FF8
7F8000
7FFF00
7FFFC0
3FFFF0
0FFFF8
01FFF8
0007F8
FF07F8
FFFFF8
FFFFF8
7FFFF0
3FFFF0
1FFFC0
03FF00
007C00
00EE00
00FE00
007C00
ENDCHAR
STARTCHAR Scaron
ENCODING 352
SWIDTH 850 0
DWIDTH 26 0
BBX 21 26 2 0
BITMAP
070300
07FF00
03FE00
00FC00
000000
03FE00
0FFF80
3FFFE0
7FFFF0
7FFFF0
7FFFF8
7F8FF8
7F8000
7FFF00
7FFFE0
3FFFF0
0FFFF8
01FFF8
0007F8
FF07F8
FFFFF8
FFFFF8
7FFFF0
3FFFE0
1FFFC0
03FE00
ENDCHAR
STARTCHAR scaron
ENCODING 353
SWIDTH 850 0
DWIDTH 26 0
BBX 21 26 2 0
BITMAP
070300
07FF00
03FE00
00FC00
000000
03FE00
0FFF80
3FFFE0
7FFFF0
7FFFF0
7FFFF8
7F8FF8
7F8000
7FFF00
7FFFE0
3FFFF0
0FFFF8
01FFF8
0007F8
FF07F8
FFFFF8
FFFFF8
7FFFF0
3FFFE0
1FFFC0
03FE00
ENDCHAR
STARTCHAR Tcommaaccent
ENCODING 354
SWIDTH 850 0
DWIDTH 26 0
BBX 22 26 2 -5
BITMAP
FFFFFC
FFFFFC
FFFFFC
FFFFFC
FFFFFC
FFFFFC
01FE00
01FE00
01FE00
01FE00
01FE00
01FE00
01FE00
01FE00
01FE00
01FE00
01FE00
01FE00
01FE00
01FE00
01FE00
000000
01FC00
01F800
03F000
07E000
ENDCHAR
STARTCHAR tcommaaccent
ENCODING 355
SWIDTH 850 0
DWIDTH 26 0
BBX 22 26 2 -5
BITMAP
FFFFFC
FFFFFC
FFFFFC
FFFFFC
FFFFFC
FFFFFC
01FE00
01FE00
01FE00
01FE00
01FE00
01FE00
01FE00
01FE00
01FE00
01FE00
01FE00
01FE00
01FE00
01FE00
01FE00
000000
01FC00
01F800
03F000
07E000
ENDCHAR
STARTCHAR Tcaron
ENCODING 356
SWIDTH 850 0
DWIDTH 26 0
BBX 22 25 2 0
BITMAP
07CF80
03FF00
01FC00
007000
FFFFFC
FFFFFC
FFFFFC
FFFFFC
FFFFFC
FFFFFC
01FE00
01FE00
01FE00
01FE00
01FE00
01FE00
01FE00
01FE00
01FE00
01FE00
01FE00
01FE00
01FE00
01FE00
01FE00
ENDCHAR
STARTCHAR tcaron
ENCODING 357
SWIDTH 850 0
DWIDTH 26 0
BBX 22 25 2 0
BITMAP
07CF80
03FF00
01FC00
007000
FFFFFC
FFFFFC
FFFFFC
FFFFFC
FFFFFC
FFFFFC
01FE00
01FE00
01FE00
01FE00
01FE00
01FE00
01FE00
01FE00
01FE00
01FE00
01FE00
01FE00
01FE00
01FE00
01FE00
ENDCHAR
STARTCHAR Tbar
ENCODING 358
SWIDTH 850 0
DWIDTH 26 0
BBX 22 21 2 0
BITMAP
FFFFFC
FFFFFC
FFFFFC
FFFFFC
FFFFFC
FFFFFC
01FE00
01FE00
01FE00
01FE00
0FFFC0
1FFFC0
1FFFC0
0FFFC0
01FE00
01FE00
01FE00
01FE00
01FE00
01FE00
01FE00
ENDCHAR
STARTCHAR tbar
ENCODING 359
SWIDTH 850 0
DWIDTH 26 0
BBX 22 21 2 0
BITMAP
FFFFFC
FFFFFC
FFFFFC
FFFFFC
FFFFFC
FFFFFC
01FE00
01FE00
01FE00
01FE00
0FFFC0
1FFFC0
1FFFC0
0FFFC0
01FE00
01FE00
01FE00
01FE00
01FE00
01FE00
01FE00
ENDCHAR
STARTCHAR Utilde
ENCODING 360
SWIDTH 850 0
DWIDTH 26 0
BBX 22 26 2 0
BITMAP
01E780
07FF80
07FF00
079E00
000000
FF03FC
FF03FC
FF03FC
FF03FC
FF03FC
FF03FC
FF03FC
FF03FC
FF03FC
FF03FC
FF03FC
FF03FC
FF03FC
FF03FC
FF87F8
FFFFF8
7FFFF8
7FFFF0
3FFFE0
0FFFC0
03FE00
ENDCHAR
STARTCHAR utilde
ENCODING 361
SWIDTH 850 0
DWIDTH 26 0
BBX 22 26 2 0
BITMAP
01E780
07FF80
07FF00
079E00
000000
FF03FC
FF03FC
FF03FC
FF03FC
FF03FC
FF03FC
FF03FC
FF03FC
FF03FC
FF03FC
FF03FC
FF03FC
FF03FC
FF03FC
FF87F8
FFFFF8
7FFFF8
7FFFF0
3FFFE0
0FFFC0
03FE00
ENDCHAR
STARTCHAR Umacron
ENCODING 362
SWIDTH 850 0
DWIDTH 26 0
BBX 22 26 2 0
BITMAP
07FF80
07FF80
07FF80
07FF80
000000
FF03FC
FF03FC
FF03FC
FF03FC
FF03FC
FF03FC
FF03FC
FF03FC
FF03FC
FF03FC
FF03FC
FF03FC
FF03FC
FF03FC
FF87F8
FFFFF8
7FFFF8
7FFFF0
3FFFE0
0FFFC0
03FE00
ENDCHAR
STARTCHAR umacron
ENCODING 363
SWIDTH 850 0
DWIDTH 26 0
BBX 22 26 2 0
BITMAP
07FF80
07FF80
07FF80
07FF80
000000
FF03FC
FF03FC
FF03FC
FF03FC
FF03FC
FF03FC
FF03FC
FF03FC
FF03FC
FF03FC
FF03FC
FF03FC
FF03FC
FF03FC
FF87F8
FFFFF8
7FFFF8
7FFFF0
3FFFE0
0FFFC0
03FE00
ENDCHAR
STARTCHAR Ubreve
ENCODING 364
SWIDTH 850 0
DWIDTH 26 0
BBX 22 26 2 0
BITMAP
07CF00
03FF00
03FE00
00FC00
000000
FF03FC
FF03FC
FF03FC
FF03FC
FF03FC
FF03FC
FF03FC
FF03FC
FF03FC
FF03FC
FF03FC
FF03FC
FF03FC
FF03FC
FF87F8
FFFFF8
7FFFF8
7FFFF0
3FFFE0
0FFFC0
03FE00
ENDCHAR
STARTCHAR ubreve
ENCODING 365
SWIDTH 850 0
DWIDTH 26 0
BBX 22 26 2 0
BITMAP
07CF00
03FF00
03FE00
00FC00
000000
FF03FC
FF03FC
FF03FC
FF03FC
FF03FC
FF03FC
FF03FC
FF03FC
FF03FC
FF03FC
FF03FC
FF03FC
FF03FC
FF03FC
FF87F8
FFFFF8
7FFFF8
7FFFF0
3FFFE0
0FFFC0
03FE00
ENDCHAR
STARTCHAR Uring
ENCODING 366
SWIDTH 850 0
DWIDTH 26 0
BBX 22 26 2 0
BITMAP
007800
00DC00
00DC00
007800
000000
FF03FC
FF03FC
FF03FC
FF03FC
FF03FC
FF03FC
FF03FC
FF03FC
FF03FC
FF03FC
FF03FC
FF03FC
FF03FC
FF03FC
FF87F8
FFFFF8
7FFFF8
7FFFF0
3FFFE0
0FFFC0
03FE00
ENDCHAR
STARTCHAR uring
ENCODING 367
SWIDTH 850 0
DWIDTH 26 0
BBX 22 26 2 0
BITMAP
007800
00DC00
00DC00
007800
000000
FF03FC
FF03FC
FF03FC
FF03FC
FF03FC
FF03FC
FF03FC
FF03FC
FF03FC
FF03FC
FF03FC
FF03FC
FF03FC
FF03FC
FF87F8
FFFFF8
7FFFF8
7FFFF0
3FFFE0
0FFFC0
03FE00
ENDCHAR
STARTCHAR Uhungarumlaut
ENCODING 368
SWIDTH 850 0
DWIDTH 26 0
BBX 22 26 2 0
BITMAP
03F7E0
03F7E0
07EFC0
07CF80
000000
FF03FC
FF03FC
FF03FC
FF03FC
FF03FC
FF03FC
FF03FC
FF03FC
FF03FC
FF03FC
FF03FC
FF03FC
FF03FC
FF03FC
FF87F8
FFFFF8
7FFFF8
7FFFF0
3FFFE0
0FFFC0
03FE00
ENDCHAR
STARTCHAR uhungarumlaut
ENCODING 369
SWIDTH 850 0
DWIDTH 26 0
BBX 22 26 2 0
BITMAP
03F7E0
03F7E0
07EFC0
07CF80
000000
FF03FC
FF03FC
FF03FC
FF03FC
FF03FC
FF03FC
FF03FC
FF03FC
FF03FC
FF03FC
FF03FC
FF03FC
FF03FC
FF03FC
FF87F8
FFFFF8
7FFFF8
7FFFF0
3FFFE0
0FFFC0
03FE00
ENDCHAR
STARTCHAR Uogonek
ENCODING 370
SWIDTH 850 0
DWIDTH 26 0
BBX 22 25 2 -4
BITMAP
FF03FC
FF03FC
FF03FC
FF03FC
FF03FC
FF03FC
FF03FC
FF03FC
FF03FC
FF03FC
FF03FC
FF03FC
FF03FC
FF07FC
FF8FF8
FFFFF8
7FFFF8
7FFFF0
3FFFE0
0FFF80
01F800
00F000
00FC00
007C00
003C00
ENDCHAR
STARTCHAR uogonek
ENCODING 371
SWIDTH 850 0
DWIDTH 26 0
BBX 22 25 2 -4
BITMAP
FF03FC
FF03FC
FF03FC
FF03FC
FF03FC
FF03FC
FF03FC
FF03FC
FF03FC
FF03FC
FF03FC
FF03FC
FF03FC
FF07FC
FF8FF8
FFFFF8
7FFFF8
7FFFF0
3FFFE0
0FFF80
01F800
00F000
00FC00
007C00
003C00
ENDCHAR
STARTCHAR Wcircumflex
ENCODING 372
SWIDTH 850 0
DWIDTH 26 0
BBX 24 25 1 0
BITMAP
007E00
00FF00
03FFC0
038380
FC007F
FE007F
FE007F
FE007F
FE007F
FE3CFF
FE7CFE
7E7EFE
7F7EFE
7FFFFE
7FFFFE
7FFFFE
7FFFFE
7FFFFC
7FFFFC
3FE7FC
3FE7FC
3FC7FC
3FC3FC
3F83FC
1F81F8
ENDCHAR
STARTCHAR wcircumflex
ENCODING 373
SWIDTH 850 0
DWIDTH 26 0
BBX 24 25 1 0
BITMAP
007E00
00FF00
03FFC0
038380
FC007F
FE007F
FE007F
FE007F
FE007F
FE3CFF
FE7CFE
7E7EFE
7F7EFE
7FFFFE
7FFFFE
7FFFFE
7FFFFE
7FFFFC
7FFFFC
3FE7FC
3FE7FC
3FC7FC
3FC3FC
3F83FC
1F81F8
ENDCHAR
STARTCHAR Ycircumflex
ENCODING 374
SWIDTH 850 0
DWIDTH 26 0
BBX 23 25 1 0
BITMAP
007E00
01FF00
03EFC0
000000
FF01FE
FF81FE
7F83FC
3FC3FC
3FC7F8
1FEFF8
1FFFF0
0FFFE0
07FFE0
07FFC0
03FFC0
03FF80
01FF00
00FF00
00FF00
00FF00
00FF00
00FF00
00FF00
00FF00
00FF00
ENDCHAR
STARTCHAR ycircumflex
ENCODING 375
SWIDTH 850 0
DWIDTH 26 0
BBX 23 25 1 0
BITMAP
007E00
01FF00
03EFC0
000000
FF01FE
FF81FE
7F83FC
3FC3FC
3FC7F8
1FEFF8
1FFFF0
0FFFE0
07FFE0
07FFC0
03FFC0
03FF80
01FF00
00FF00
00FF00
00FF00
00FF00
00FF00
00FF00
00FF00
00FF00
ENDCHAR
STARTCHAR Ydieresis
ENCODING 376
SWIDTH 850 0
DWIDTH 26 0
BBX 23 26 1 0
BITMAP
03C7C0
03C7C0
03C7C0
03C7C0
000000
FF01FE
FF81FE
7F83FC
3FC3FC
3FC7F8
1FEFF8
1FFFF0
0FFFE0
07FFE0
07FFC0
03FFC0
03FF80
01FF00
00FF00
00FF00
00FF00
00FF00
00FF00
00FF00
00FF00
00FF00
ENDCHAR
STARTCHAR Zacute
ENCODING 377
SWIDTH 850 0
DWIDTH 26 0
BBX 21 25 2 0
BITMAP
003F00
007E00
00FC00
00F800
7FFFF8
7FFFF8
7FFFF8
7FFFF8
7FFFF8
7FFFF8
003FF0
007FE0
00FFC0
03FF80
07FF00
0FFE00
1FFC00
3FF000
7FE000
FFFFF8
FFFFF8
FFFFF8
FFFFF8
FFFFF8
FFFFF8
ENDCHAR
STARTCHAR zacute
ENCODING 378
SWIDTH 850 0
DWIDTH 26 0
BBX 21 25 2 0
BITMAP
003F00
007E00
00FC00
00F800
7FFFF8
7FFFF8
7FFFF8
7FFFF8
7FFFF8
7FFFF8
003FF0
007FE0
00FFC0
03FF80
07FF00
0FFE00
1FFC00
3FF000
7FE000
FFFFF8
FFFFF8
FFFFF8
FFFFF8
FFFFF8
FFFFF8
ENDCHAR
STARTCHAR Zdotaccent
ENCODING 379
SWIDTH 850 0
DWIDTH 26 0
BBX 21 25 2 0
BITMAP
00F800
00F800
00F800
00F800
7FFFF8
7FFFF8
7FFFF8
7FFFF8
7FFFF8
7FFFF8
003FF0
007FE0
00FFC0
03FF80
07FF00
0FFE00
1FFC00
3FF000
7FE000
FFFFF8
FFFFF8
FFFFF8
FFFFF8
FFFFF8
FFFFF8
ENDCHAR
STARTCHAR zdotaccent
ENCODING 380
SWIDTH 850 0
DWIDTH 26 0
BBX 21 25 2 0
BITMAP
00F800
00F800
00F800
00F800
7FFFF8
7FFFF8
7FFFF8
7FFFF8
7FFFF8
7FFFF8
003FF0
007FE0
00FFC0
03FF80
07FF00
0FFE00
1FFC00
3FF000
7FE000
FFFFF8
FFFFF8
FFFFF8
FFFFF8
FFFFF8
FFFFF8
ENDCHAR
STARTCHAR Zcaron
ENCODING 381
SWIDTH 850 0
DWIDTH 26 0
BBX 21 25 2 0
BITMAP
07CF80
03FF00
01FE00
007800
7FFFF8
7FFFF8
7FFFF8
7FFFF8
7FFFF8
7FFFF8
003FF0
007FE0
00FFC0
03FF80
07FF00
0FFE00
1FFC00
3FF000
7FE000
FFFFF8
FFFFF8
FFFFF8
FFFFF8
FFFFF8
FFFFF8
ENDCHAR
STARTCHAR zcaron
ENCODING 382
SWIDTH 850 0
DWIDTH 26 0
BBX 21 25 2 0
BITMAP
07CF80
03FF00
01FE00
007800
7FFFF8
7FFFF8
7FFFF8
7FFFF8
7FFFF8
7FFFF8
003FF0
007FE0
00FFC0
03FF80
07FF00
0FFE00
1FFC00
3FF000
7FE000
FFFFF8
FFFFF8
FFFFF8
FFFFF8
FFFFF8
FFFFF8
ENDCHAR
STARTCHAR florin
ENCODING 402
SWIDTH 850 0
DWIDTH 26 0
BBX 16 27 5 -4
BITMAP
00FF
03FF
07FF
0FFF
0FFF
0FFF
0FE0
7FFE
7FFE
7FFE
7FFE
7FFE
7FFE
0FE0
0FE0
0FE0
0FE0
0FE0
0FE0
0FE0
1FE0
FFE0
FFE0
FFC0
FF80
FF00
FC00
ENDCHAR
STARTCHAR AEacute
ENCODING 508
SWIDTH 850 0
DWIDTH 26 0
BBX 25 25 0 0
BITMAP
0003F000
0007F000
000FE000
000F8000
01FFFF80
01FFFF80
01FFFF80
03FFFF80
03FFFF80
03FFFF80
07F7F000
07F7F000
0FE7FF00
0FE7FF00
0FC7FF00
1FC7FF00
1FFFFF00
1FFFFF00
3FFFF000
3FFFFF80
3FFFFF80
7FFFFF80
7F07FF80
7F07FF80
FE07FF80
ENDCHAR
STARTCHAR aeacute
ENCODING 509
SWIDTH 850 0
DWIDTH 26 0
BBX 25 25 0 0
BITMAP
0003F000
0007F000
000FE000
000F8000
01FFFF80
01FFFF80
01FFFF80
03FFFF80
03FFFF80
03FFFF80
07F7F000
07F7F000
0FE7FF00
0FE7FF00
0FC7FF00
1FC7FF00
1FFFFF00
1FFFFF00
3FFFF000
3FFFFF80
3FFFFF80
7FFFFF80
7F07FF80
7F07FF80
FE07FF80
ENDCHAR
STARTCHAR Oslashacute
ENCODING 510
SWIDTH 850 0
DWIDTH 26 0
BBX 26 26 0 0
BITMAP
000FC000
001FC000
003F0000
003E0000
00000000
00FF8000
03FFF000
0FFFF800
1FFFFC00
1FFFFFC0
3FFFFFC0
3FE1FFC0
3FC1FFC0
3FCFFF80
3FFFFF00
3FFFFF00
3FFFFF00
7FFCFF00
FFE0FF00
FFE1FF00
FFFFFE00
FFFFFE00
1FFFFC00
0FFFF800
03FFF000
00FF8000
ENDCHAR
STARTCHAR oslashacute
ENCODING 511
SWIDTH 850 0
DWIDTH 26 0
BBX 26 26 0 0
BITMAP
000FC000
001FC000
003F0000
003E0000
00000000
00FF8000
03FFF000
0FFFF800
1FFFFC00
1FFFFFC0
3FFFFFC0
3FE1FFC0
3FC1FFC0
3FCFFF80
3FFFFF00
3FFFFF00
3FFFFF00
7FFCFF00
FFE0FF00
FFE1FF00
FFFFFE00
FFFFFE00
1FFFFC00
0FFFF800
03FFF000
00FF8000
ENDCHAR
STARTCHAR Scommaaccent
ENCODING 536
SWIDTH 850 0
DWIDTH 26 0
BBX 21 25 2 -4
BITMAP
03FE00
0FFF80
3FFFE0
7FFFF0
7FFFF0
7FFFF8
7F8FF8
7F8000
7FFF00
7FFFE0
3FFFF0
0FFFF8
01FFF8
0007F8
FF07F8
FFFFF8
FFFFF8
7FFFF0
3FFFE0
1FFFC0
03FE00
01FC00
01F800
03F000
07E000
ENDCHAR
STARTCHAR scommaaccent
ENCODING 537
SWIDTH 850 0
DWIDTH 26 0
BBX 21 25 2 -4
BITMAP
03FE00
0FFF80
3FFFE0
7FFFF0
7FFFF0
7FFFF8
7F8FF8
7F8000
7FFF00
7FFFE0
3FFFF0
0FFFF8
01FFF8
0007F8
FF07F8
FFFFF8
FFFFF8
7FFFF0
3FFFE0
1FFFC0
03FE00
01FC00
01F800
03F000
07E000
ENDCHAR
STARTCHAR afii10023
ENCODING 1025
SWIDTH 850 0
DWIDTH 26 0
BBX 20 25 3 0
BITMAP
0F9F00
0F9F00
0F9F00
0F9F00
FFFFF0
FFFFF0
FFFFF0
FFFFF0
FFFFF0
FFFFF0
FF0000
FF0000
FFFFC0
FFFFC0
FFFFC0
FFFFC0
FFFFC0
FFFFC0
FF0000
FFFFF0
FFFFF0
FFFFF0
FFFFF0
FFFFF0
FFFFF0
ENDCHAR
STARTCHAR afii10051
ENCODING 1026
SWIDTH 850 0
DWIDTH 26 0
BBX 23 27 1 -6
BITMAP
FFFFC0
FFFFC0
FFFFC0
FFFFC0
FFFFC0
FFFFC0
07F000
07F000
07FFC0
07FFF8
07FFFC
07FFFC
07FFFE
07FFFE
07F0FE
07F07E
07F07E
07F07E
07F07E
07F07E
07F07E
0000FE
0007FC
0007FC
0007F8
0007F0
0007C0
ENDCHAR
STARTCHAR afii10052
ENCODING 1027
SWIDTH 850 0
DWIDTH 26 0
BBX 18 25 6 0
BITMAP
01FC00
01F800
03F000
07E000
FFFFC0
FFFFC0
FFFFC0
FFFFC0
FFFFC0
FFFFC0
FF0000
FF0000
FF0000
FF0000
FF0000
FF0000
FF0000
FF0000
FF0000
FF0000
FF0000
FF0000
FF0000
FF0000
FF0000
ENDCHAR
STARTCHAR afii10053
ENCODING 1028
SWIDTH 850 0
DWIDTH 26 0
BBX 22 21 2 0
BITMAP
01FE00
0FFFC0
1FFFE0
3FFFF0
7FFFF8
FFFFFC
FF87FC
FF01FC
FFFC00
FFFC00
FFFC00
FFFC00
FFFC00
FF01FC
FF87FC
FFFFFC
7FFFF8
3FFFF0
1FFFE0
0FFFC0
01FE00
ENDCHAR
STARTCHAR afii10054
ENCODING 1029
SWIDTH 850 0
DWIDTH 26 0
BBX 21 21 2 0
BITMAP
03FE00
0FFF80
3FFFE0
7FFFF0
7FFFF0
7FFFF8
7F8FF8
7F8000
7FFF00
7FFFE0
3FFFF0
0FFFF8
01FFF8
0007F8
FF07F8
FFFFF8
FFFFF8
7FFFF0
3FFFE0
1FFFC0
03FE00
ENDCHAR
STARTCHAR afii10055
ENCODING 1030
SWIDTH 850 0
DWIDTH 26 0
BBX 21 21 2 0
BITMAP
FFFFF8
FFFFF8
FFFFF8
FFFFF8
FFFFF8
FFFFF8
01FE00
01FE00
01FE00
01FE00
01FE00
01FE00
01FE00
01FE00
01FE00
FFFFF8
FFFFF8
FFFFF8
FFFFF8
FFFFF8
FFFFF8
ENDCHAR
STARTCHAR afii10056
ENCODING 1031
SWIDTH 850 0
DWIDTH 26 0
BBX 21 25 2 0
BITMAP
078F80
078F80
078F80
078F80
FFFFF8
FFFFF8
FFFFF8
FFFFF8
FFFFF8
FFFFF8
01FE00
01FE00
01FE00
01FE00
01FE00
01FE00
01FE00
01FE00
01FE00
FFFFF8
FFFFF8
FFFFF8
FFFFF8
FFFFF8
FFFFF8
ENDCHAR
STARTCHAR afii10057
ENCODING 1032
SWIDTH 850 0
DWIDTH 26 0
BBX 22 21 1 0
BITMAP
3FFFFC
3FFFFC
3FFFFC
3FFFFC
3FFFFC
3FFFFC
0003FC
0003FC
0003FC
0003FC
0003FC
0003FC
0003FC
FF03FC
FF87FC
FFFFFC
7FFFF8
3FFFF0
1FFFE0
0FFFC0
01FE00
ENDCHAR
STARTCHAR afii10058
ENCODING 1033
SWIDTH 850 0
DWIDTH 26 0
BBX 26 21 0 0
BITMAP
1FFF8000
1FFF8000
1FFF8000
1FFF8000
1FFF8000
1FFF8000
1F9FF800
1F9FFE00
1F9FFF00
1F9FFF80
1F9FFF80
1F9FFF80
1F9F9F80
1F9F9FC0
3F9F9F80
FF9FFF80
FF9FFF80
FF1FFF00
FF1FFF00
FC1FFE00
F01FF800
ENDCHAR
STARTCHAR afii10059
ENCODING 1034
SWIDTH 850 0
DWIDTH 26 0
BBX 25 21 1 0
BITMAP
FC3F0000
FC3F0000
FC3F0000
FC3F0000
FC3F0000
FC3F0000
FC3F0000
FC3FF000
FFFFFC00
FFFFFE00
FFFFFF00
FFFFFF00
FFFFFF00
FFFF3F80
FC3F3F00
FC3FFF00
FC3FFF00
FC3FFF00
FC3FFE00
FC3FFC00
FC3FF000
ENDCHAR
STARTCHAR afii10060
ENCODING 1035
SWIDTH 850 0
DWIDTH 26 0
BBX 24 21 1 0
BITMAP
FFFFC0
FFFFC0
FFFFC0
FFFFC0
FFFFC0
FFFFC0
07F000
07F000
07FFC0
07FFF8
07FFFC
07FFFC
07FFFE
07FFFE
07F0FE
07F0FF
07F0FF
07F0FF
07F0FF
07F0FF
07F0FF
ENDCHAR
STARTCHAR afii10061
ENCODING 1036
SWIDTH 850 0
DWIDTH 26 0
BBX 23 25 2 0
BITMAP
003F80
003F00
007E00
00FC00
FF07FC
FF0FFC
FF1FF8
FF1FF0
FF3FE0
FF7FC0
FFFF80
FFFF80
FFFF00
FFFE00
FFFE00
FFFF00
FFFF80
FFFFC0
FF7FC0
FF7FE0
FF3FF0
FF1FF8
FF0FFC
FF07FC
FF07FE
ENDCHAR
STARTCHAR afii10062
ENCODING 1038
SWIDTH 850 0
DWIDTH 26 0
BBX 22 25 3 0
BITMAP
03C780
03FF80
01FF00
007E00
FF01FC
FF83FC
7F83FC
7F87F8
3FC7F8
3FC7F0
1FEFF0
1FEFF0
1FEFE0
0FFFE0
0FFFC0
07FFC0
07FF80
03FF80
03FF80
FFFF00
FFFF00
FFFE00
FFFC00
FFF800
FFE000
ENDCHAR
STARTCHAR afii10145
ENCODING 1039
SWIDTH 850 0
DWIDTH 26 0
BBX 19 25 3 -4
BITMAP
FE0FE0
FE0FE0
FE0FE0
FE0FE0
FE0FE0
FE0FE0
FE0FE0
FE0FE0
FE0FE0
FE0FE0
FE0FE0
FE0FE0
FE0FE0
FE0FE0
FE0FE0
FFFFE0
FFFFE0
FFFFE0
FFFFE0
FFFFE0
FFFFE0
01F800
01F800
01F800
01F800
ENDCHAR
STARTCHAR afii10017
ENCODING 1040
SWIDTH 850 0
DWIDTH 26 0
BBX 24 21 1 0
BITMAP
01FF80
03FFC0
03FFC0
07FFC0
07FFE0
07FFE0
0FFFE0
0FEFF0
0FE7F0
1FE7F0
1FC7F8
1FC3F8
3FFFF8
3FFFFC
3FFFFC
7FFFFC
7FFFFE
7FFFFE
FF00FE
FF00FF
FE007F
ENDCHAR
STARTCHAR afii10018
ENCODING 1041
SWIDTH 850 0
DWIDTH 26 0
BBX 21 21 3 0
BITMAP
FFFFE0
FFFFE0
FFFFE0
FFFFE0
FFFFE0
FFFFE0
FE0000
FE0000
FFFF80
FFFFE0
FFFFF0
FFFFF0
FFFFF8
FE07F8
FE07F8
FE07F8
FFFFF8
FFFFF0
FFFFF0
FFFFE0
FFFF80
ENDCHAR
STARTCHAR afii10019
ENCODING 1042
SWIDTH 850 0
DWIDTH 26 0
BBX 21 21 3 0
BITMAP
FFFF00
FFFFE0
FFFFF0
FFFFF0
FFFFF8
FE0FF8
FE07F8
FE0FF8
FFFFF0
FFFFE0
FFFFE0
FFFFF0
FFFFF8
FE07F8
FE07F8
FE07F8
FFFFF8
FFFFF8
FFFFF0
FFFFE0
FFFF80
ENDCHAR
STARTCHAR afii10020
ENCODING 1043
SWIDTH 850 0
DWIDTH 26 0
BBX 18 21 6 0
BITMAP
FFFFC0
FFFFC0
FFFFC0
FFFFC0
FFFFC0
FFFFC0
FF0000
FF0000
FF0000
FF0000
FF0000
FF0000
FF0000
FF0000
FF0000
FF0000
FF0000
FF0000
FF0000
FF0000
FF0000
ENDCHAR
STARTCHAR afii10021
ENCODING 1044
SWIDTH 850 0
DWIDTH 26 0
BBX 23 25 1 -4
BITMAP
0FFFF8
0FFFF8
0FFFF8
0FFFF8
0FFFF8
0FFFF8
0FE3F8
0FE3F8
0FE3F8
0FE3F8
0FE3F8
0FE3F8
0FE3F8
1FE3F8
1FE3F8
FFFFFE
FFFFFE
FFFFFE
FFFFFE
FFFFFE
FFFFFE
FE007E
FE007E
FE007E
FE007E
ENDCHAR
STARTCHAR afii10022
ENCODING 1045
SWIDTH 850 0
DWIDTH 26 0
BBX 20 21 3 0
BITMAP
FFFFF0
FFFFF0
FFFFF0
FFFFF0
FFFFF0
FFFFF0
FF0000
FF0000
FFFFC0
FFFFC0
FFFFC0
FFFFC0
FFFFC0
FFFFC0
FF0000
FFFFF0
FFFFF0
FFFFF0
FFFFF0
FFFFF0
FFFFF0
ENDCHAR
STARTCHAR afii10024
ENCODING 1046
SWIDTH 850 0
DWIDTH 26 0
BBX 26 21 0 0
BITMAP
FE7F1F80
FE7F3F80
7F7F3F80
7F7F3F00
3F7F7F00
3FFF7E00
3FFFFE00
1FFFFE00
1FFFFC00
0FFFFC00
0FFFFC00
1FFFFC00
1FFFFC00
1FFFFE00
3FFFFE00
3FFF7F00
7F7F7F00
7F7F3F80
FE7F3F80
FE7F1F80
FC7F1FC0
ENDCHAR
STARTCHAR afii10025
ENCODING 1047
SWIDTH 850 0
DWIDTH 26 0
BBX 21 21 1 0
BITMAP
03FE00
0FFFC0
3FFFE0
3FFFF0
7FFFF8
7FFFF8
FF87F8
0007F8
03FFF8
03FFF0
03FFC0
03FFF0
03FFF8
0007F8
FF87F8
7FFFF8
7FFFF8
3FFFF0
3FFFE0
0FFFC0
03FE00
ENDCHAR
STARTCHAR afii10026
ENCODING 1048
SWIDTH 850 0
DWIDTH 26 0
BBX 21 21 2 0
BITMAP
FF03F8
FF07F8
FF07F8
FF0FF8
FF1FF8
FF1FF8
FF3FF8
FF7FF8
FFFFF8
FFFFF8
FFFFF8
FFFFF8
FFFBF8
FFFBF8
FFF3F8
FFE3F8
FFC3F8
FFC3F8
FF83F8
FF03F8
FE03F8
ENDCHAR
STARTCHAR afii10027
ENCODING 1049
SWIDTH 850 0
DWIDTH 26 0
BBX 21 25 2 0
BITMAP
03CF00
03FF00
01FE00
00FC00
FF03F8
FF07F8
FF07F8
FF0FF8
FF1FF8
FF1FF8
FF3FF8
FF7FF8
FFFFF8
FFFFF8
FFFFF8
FFFFF8
FFFBF8
FFFBF8
FFF3F8
FFE3F8
FFC3F8
FFC3F8
FF83F8
FF03F8
FE03F8
ENDCHAR
STARTCHAR afii10028
ENCODING 1050
SWIDTH 850 0
DWIDTH 26 0
BBX 22 21 3 0
BITMAP
FE0FF8
FF0FF8
FF1FF0
FF3FE0
FF7FC0
FFFFC0
FFFF80
FFFF00
FFFE00
FFFC00
FFFE00
FFFE00
FFFF00
FFFF80
FFFFC0
FF7FE0
FF7FE0
FF3FF0
FF1FF8
FF0FFC
FF07FC
ENDCHAR
STARTCHAR afii10029
ENCODING 1051
SWIDTH 850 0
DWIDTH 26 0
BBX 22 21 1 0
BITMAP
1FFFFC
1FFFFC
1FFFFC
1FFFFC
1FFFFC
1FFFFC
1FC1FC
1FC1FC
1FC1FC
1FC1FC
1FC1FC
1FC1FC
1FC1FC
1FC1FC
1FC1FC
FFC1FC
FFC1FC
FF81FC
FF01FC
FE01FC
F801FC
ENDCHAR
STARTCHAR afii10030
ENCODING 1052
SWIDTH 850 0
DWIDTH 26 0
BBX 23 21 1 0
BITMAP
FF00FE
FF01FE
FF81FE
FF83FE
FFC3FE
FFC7FE
FFE7FE
FFEFFE
FFFFFE
FFFFFE
FFFFFE
FEFFFE
FEFEFE
FE7EFE
FE7CFE
FE3CFE
FE00FE
FE00FE
FE00FE
FE00FE
FE00FE
ENDCHAR
STARTCHAR afii10031
ENCODING 1053
SWIDTH 850 0
DWIDTH 26 0
BBX 22 21 2 0
BITMAP
FF03F8
FF03FC
FF03FC
FF03FC
FF03FC
FF03FC
FF03FC
FFFFFC
FFFFFC
FFFFFC
FFFFFC
FFFFFC
FFFFFC
FFFFFC
FF03FC
FF03FC
FF03FC
FF03FC
FF03FC
FF03FC
FF03F8
ENDCHAR
STARTCHAR afii10032
ENCODING 1054
SWIDTH 850 0
DWIDTH 26 0
BBX 22 21 2 0
BITMAP
03FE00
0FFFC0
3FFFE0
7FFFF0
7FFFF8
FFFFF8
FF87FC
FF03FC
FF03FC
FF03FC
FF03FC
FF03FC
FF03FC
FF03FC
FF87FC
FFFFF8
7FFFF8
7FFFF0
3FFFE0
0FFFC0
03FE00
ENDCHAR
STARTCHAR afii10033
ENCODING 1055
SWIDTH 850 0
DWIDTH 26 0
BBX 21 21 2 0
BITMAP
FFFFF8
FFFFF8
FFFFF8
FFFFF8
FFFFF8
FFFFF8
FF03F8
FF03F8
FF03F8
FF03F8
FF03F8
FF03F8
FF03F8
FF03F8
FF03F8
FF03F8
FF03F8
FF03F8
FF03F8
FF03F8
FF03F8
ENDCHAR
STARTCHAR afii10034
ENCODING 1056
SWIDTH 850 0
DWIDTH 26 0
BBX 21 21 4 0
BITMAP
FFFE00
FFFFC0
FFFFE0
FFFFF0
FFFFF0
FFFFF8
FF07F8
FF07F8
FF07F8
FFFFF8
FFFFF8
FFFFF0
FFFFE0
FFFFC0
FFFF00
FF0000
FF0000
FF0000
FF0000
FF0000
FF0000
ENDCHAR
STARTCHAR afii10035
ENCODING 1057
SWIDTH 850 0
DWIDTH 26 0
BBX 22 21 2 0
BITMAP
01FE00
0FFFC0
1FFFE0
3FFFF0
7FFFF8
FFFFFC
FF87FC
FF03FC
FF0000
FF0000
FF0000
FF0000
FF0000
FF03FC
FF87FC
FFFFFC
7FFFF8
3FFFF0
1FFFE0
0FFFC0
01FE00
ENDCHAR
STARTCHAR afii10036
ENCODING 1058
SWIDTH 850 0
DWIDTH 26 0
BBX 22 21 2 0
BITMAP
FFFFFC
FFFFFC
FFFFFC
FFFFFC
FFFFFC
FFFFFC
01FE00
01FE00
01FE00
01FE00
01FE00
01FE00
01FE00
01FE00
01FE00
01FE00
01FE00
01FE00
01FE00
01FE00
01FE00
ENDCHAR
STARTCHAR afii10037
ENCODING 1059
SWIDTH 850 0
DWIDTH 26 0
BBX 22 21 3 0
BITMAP
FF01FC
FF83FC
7F83FC
7F87F8
3FC7F8
3FC7F0
1FEFF0
1FEFF0
1FEFE0
0FFFE0
0FFFC0
07FFC0
07FF80
03FF80
03FF80
FFFF00
FFFF00
FFFE00
FFFC00
FFF800
FFE000
ENDCHAR
STARTCHAR afii10038
ENCODING 1060
SWIDTH 850 0
DWIDTH 26 0
BBX 24 21 1 0
BITMAP
007E00
007E00
00FF00
07FFE0
1FFFF8
3FFFFC
7FFFFC
7FFFFE
FE7EFE
FE7E7E
FE7E7F
FE7E7E
FE7EFE
7FFFFE
7FFFFC
3FFFFC
1FFFF8
07FFE0
00FF00
007E00
007E00
ENDCHAR
STARTCHAR afii10039
ENCODING 1061
SWIDTH 850 0
DWIDTH 26 0
BBX 23 21 1 0
BITMAP
7F81FE
3FC3FC
3FE7FC
1FE7F8
0FFFF0
0FFFF0
07FFE0
03FFC0
03FFC0
01FF80
01FF80
03FF80
03FFC0
07FFE0
0FFFE0
0FFFF0
1FEFF8
3FE7F8
3FC7FC
7F83FE
FF81FE
ENDCHAR
STARTCHAR afii10040
ENCODING 1062
SWIDTH 850 0
DWIDTH 26 0
BBX 21 25 3 -4
BITMAP
FF1FE0
FF1FE0
FF1FE0
FF1FE0
FF1FE0
FF1FE0
FF1FE0
FF1FE0
FF1FE0
FF1FE0
FF1FE0
FF1FE0
FF1FE0
FF1FE0
FF1FE0
FFFFF8
FFFFF8
FFFFF8
FFFFF8
FFFFF8
FFFFF8
0003F8
0003F8
0003F8
0003F8
ENDCHAR
STARTCHAR afii10041
ENCODING 1063
SWIDTH 850 0
DWIDTH 26 0
BBX 22 21 0 0
BITMAP
7F03FC
FF03FC
FF03FC
FF03FC
FF03FC
FF03FC
FF03FC
7F83FC
7F83FC
7FFFFC
3FFFFC
3FFFFC
1FFFFC
07FFFC
01FFFC
0003FC
0003FC
0003FC
0003FC
0003FC
0003FC
ENDCHAR
STARTCHAR afii10042
ENCODING 1064
SWIDTH 850 0
DWIDTH 26 0
BBX 23 21 1 0
BITMAP
FE7E7E
FE7E7E
FE7E7E
FE7E7E
FE7E7E
FE7E7E
FE7E7E
FE7E7E
FE7E7E
FE7E7E
FE7E7E
FE7E7E
FE7E7E
FE7E7E
FE7E7E
FFFFFE
FFFFFE
FFFFFE
FFFFFE
FFFFFE
FFFFFE
ENDCHAR
STARTCHAR afii10043
ENCODING 1065
SWIDTH 850 0
DWIDTH 26 0
BBX 25 25 1 -4
BITMAP
FCFCFE00
FCFCFE00
FCFCFE00
FCFCFE00
FCFCFE00
FCFCFE00
FCFCFE00
FCFCFE00
FCFCFE00
FCFCFE00
FCFCFE00
FCFCFE00
FCFCFE00
FCFCFE00
FCFCFE00
FFFFFF00
FFFFFF80
FFFFFF80
FFFFFF80
FFFFFF80
FFFFFF80
00003F80
00003F80
00003F80
00003F00
ENDCHAR
STARTCHAR afii10044
ENCODING 1066
SWIDTH 850 0
DWIDTH 26 0
BBX 24 21 1 0
BITMAP
FFE000
FFE000
FFE000
FFE000
FFE000
FFE000
0FE000
0FFFE0
0FFFF8
0FFFFE
0FFFFE
0FFFFF
0FFFFF
0FE07F
0FE07F
0FFFFF
0FFFFF
0FFFFE
0FFFFE
0FFFF8
0FFFE0
ENDCHAR
STARTCHAR afii10045
ENCODING 1067
SWIDTH 850 0
DWIDTH 26 0
BBX 24 21 1 0
BITMAP
FC007F
FC007F
FC007F
FC007F
FC007F
FC007F
FC007F
FFE07F
FFFC7F
FFFE7F
FFFE7F
FFFF7F
FFFF7F
FC3F7F
FC7F7F
FFFF7F
FFFF7F
FFFE7F
FFFE7F
FFF87F
FFE07F
ENDCHAR
STARTCHAR afii10046
ENCODING 1068
SWIDTH 850 0
DWIDTH 26 0
BBX 21 21 4 0
BITMAP
FF0000
FF0000
FF0000
FF0000
FF0000
FF0000
FF0000
FFFE00
FFFFC0
FFFFE0
FFFFF0
FFFFF0
FFFFF8
FF07F8
FF07F8
FFFFF8
FFFFF0
FFFFF0
FFFFE0
FFFFC0
FFFE00
ENDCHAR
STARTCHAR afii10047
ENCODING 1069
SWIDTH 850 0
DWIDTH 26 0
BBX 23 21 1 0
BITMAP
01FF00
07FFC0
1FFFF0
3FFFF8
7FFFFC
7FFFFC
FF83FC
FF03FE
007FFE
007FFE
007FFE
007FFE
007FFE
FF03FE
FF83FC
7FFFFC
7FFFFC
3FFFF8
1FFFF0
07FFC0
01FF00
ENDCHAR
STARTCHAR afii10048
ENCODING 1070
SWIDTH 850 0
DWIDTH 26 0
BBX 26 21 0 0
BITMAP
FE03F800
FE0FFC00
FE1FFE00
FE3FFF00
FE7FFF80
FE7FFF80
FE7F3F80
FFFF1F80
FFFE1F80
FFFE1F80
FFFE1FC0
FFFE1F80
FFFE1F80
FE7F3F80
FE7F3F80
FE7FFF80
FE3FFF80
FE3FFF00
FE1FFE00
FE0FFE00
FE03F000
ENDCHAR
STARTCHAR afii10049
ENCODING 1071
SWIDTH 850 0
DWIDTH 26 0
BBX 22 21 1 0
BITMAP
03FFFC
0FFFFC
3FFFFC
7FFFFC
7FFFFC
7FFFFC
FF83FC
FF83FC
FF83FC
7FFFFC
7FFFFC
7FFFFC
3FFFFC
1FFFFC
1FFFFC
1FE3FC
3FC3FC
7FC3FC
7F83FC
FF83FC
FF03FC
ENDCHAR
STARTCHAR afii10065
ENCODING 1072
SWIDTH 850 0
DWIDTH 26 0
BBX 24 21 1 0
BITMAP
01FF80
03FFC0
03FFC0
07FFC0
07FFE0
07FFE0
0FFFE0
0FEFF0
0FE7F0
1FE7F0
1FC7F8
1FC3F8
3FFFF8
3FFFFC
3FFFFC
7FFFFC
7FFFFE
7FFFFE
FF00FE
FF00FF
FE007F
ENDCHAR
STARTCHAR afii10066
ENCODING 1073
SWIDTH 850 0
DWIDTH 26 0
BBX 21 21 3 0
BITMAP
FFFFE0
FFFFE0
FFFFE0
FFFFE0
FFFFE0
FFFFE0
FE0000
FE0000
FFFF80
FFFFE0
FFFFF0
FFFFF0
FFFFF8
FE07F8
FE07F8
FE07F8
FFFFF8
FFFFF0
FFFFF0
FFFFE0
FFFF80
ENDCHAR
STARTCHAR afii10067
ENCODING 1074
SWIDTH 850 0
DWIDTH 26 0
BBX 21 21 3 0
BITMAP
FFFF00
FFFFE0
FFFFF0
FFFFF0
FFFFF8
FE0FF8
FE07F8
FE0FF8
FFFFF0
FFFFE0
FFFFE0
FFFFF0
FFFFF8
FE07F8
FE07F8
FE07F8
FFFFF8
FFFFF8
FFFFF0
FFFFE0
FFFF80
ENDCHAR
STARTCHAR afii10068
ENCODING 1075
SWIDTH 850 0
DWIDTH 26 0
BBX 18 21 6 0
BITMAP
FFFFC0
FFFFC0
FFFFC0
FFFFC0
FFFFC0
FFFFC0
FF0000
FF0000
FF0000
FF0000
FF0000
FF0000
FF0000
FF0000
FF0000
FF0000
FF0000
FF0000
FF0000
FF0000
FF0000
ENDCHAR
STARTCHAR afii10069
ENCODING 1076
SWIDTH 850 0
DWIDTH 26 0
BBX 23 25 1 -4
BITMAP
0FFFF8
0FFFF8
0FFFF8
0FFFF8
0FFFF8
0FFFF8
0FE3F8
0FE3F8
0FE3F8
0FE3F8
0FE3F8
0FE3F8
0FE3F8
1FE3F8
1FE3F8
FFFFFE
FFFFFE
FFFFFE
FFFFFE
FFFFFE
FFFFFE
FE007E
FE007E
FE007E
FE007E
ENDCHAR
STARTCHAR afii10070
ENCODING 1077
SWIDTH 850 0
DWIDTH 26 0
BBX 20 21 3 0
BITMAP
FFFFF0
FFFFF0
FFFFF0
FFFFF0
FFFFF0
FFFFF0
FF0000
FF0000
FFFFC0
FFFFC0
FFFFC0
FFFFC0
FFFFC0
FFFFC0
FF0000
FFFFF0
FFFFF0
FFFFF0
FFFFF0
FFFFF0
FFFFF0
ENDCHAR
STARTCHAR afii10072
ENCODING 1078
SWIDTH 850 0
DWIDTH 26 0
BBX 26 21 0 0
BITMAP
FE7F1F80
FE7F3F80
7F7F3F80
7F7F3F00
3F7F7F00
3FFF7E00
3FFFFE00
1FFFFE00
1FFFFC00
0FFFFC00
0FFFFC00
1FFFFC00
1FFFFC00
1FFFFE00
3FFFFE00
3FFF7F00
7F7F7F00
7F7F3F80
FE7F3F80
FE7F1F80
FC7F1FC0
ENDCHAR
STARTCHAR afii10073
ENCODING 1079
SWIDTH 850 0
DWIDTH 26 0
BBX 21 21 1 0
BITMAP
03FE00
0FFFC0
3FFFE0
3FFFF0
7FFFF8
7FFFF8
FF87F8
0007F8
03FFF8
03FFF0
03FFC0
03FFF0
03FFF8
0007F8
FF87F8
7FFFF8
7FFFF8
3FFFF0
3FFFE0
0FFFC0
03FE00
ENDCHAR
STARTCHAR afii10074
ENCODING 1080
SWIDTH 850 0
DWIDTH 26 0
BBX 21 21 2 0
BITMAP
FF03F8
FF07F8
FF07F8
FF0FF8
FF1FF8
FF1FF8
FF3FF8
FF7FF8
FFFFF8
FFFFF8
FFFFF8
FFFFF8
FFFBF8
FFFBF8
FFF3F8
FFE3F8
FFC3F8
FFC3F8
FF83F8
FF03F8
FE03F8
ENDCHAR
STARTCHAR afii10075
ENCODING 1081
SWIDTH 850 0
DWIDTH 26 0
BBX 21 25 2 0
BITMAP
03CF00
03FF00
01FE00
00FC00
FF03F8
FF07F8
FF07F8
FF0FF8
FF1FF8
FF1FF8
FF3FF8
FF7FF8
FFFFF8
FFFFF8
FFFFF8
FFFFF8
FFFBF8
FFFBF8
FFF3F8
FFE3F8
FFC3F8
FFC3F8
FF83F8
FF03F8
FE03F8
ENDCHAR
STARTCHAR afii10076
ENCODING 1082
SWIDTH 850 0
DWIDTH 26 0
BBX 22 21 3 0
BITMAP
FE0FF8
FF0FF8
FF1FF0
FF3FE0
FF7FC0
FFFFC0
FFFF80
FFFF00
FFFE00
FFFC00
FFFE00
FFFE00
FFFF00
FFFF80
FFFFC0
FF7FE0
FF7FE0
FF3FF0
FF1FF8
FF0FFC
FF07FC
ENDCHAR
STARTCHAR afii10077
ENCODING 1083
SWIDTH 850 0
DWIDTH 26 0
BBX 22 21 1 0
BITMAP
1FFFFC
1FFFFC
1FFFFC
1FFFFC
1FFFFC
1FFFFC
1FC1FC
1FC1FC
1FC1FC
1FC1FC
1FC1FC
1FC1FC
1FC1FC
1FC1FC
1FC1FC
FFC1FC
FFC1FC
FF81FC
FF01FC
FE01FC
F801FC
ENDCHAR
STARTCHAR afii10078
ENCODING 1084
SWIDTH 850 0
DWIDTH 26 0
BBX 23 21 1 0
BITMAP
FF00FE
FF01FE
FF81FE
FF83FE
FFC3FE
FFC7FE
FFE7FE
FFEFFE
FFFFFE
FFFFFE
FFFFFE
FEFFFE
FEFEFE
FE7EFE
FE7CFE
FE3CFE
FE00FE
FE00FE
FE00FE
FE00FE
FE00FE
ENDCHAR
STARTCHAR afii10079
ENCODING 1085
SWIDTH 850 0
DWIDTH 26 0
BBX 22 21 2 0
BITMAP
FF03F8
FF03FC
FF03FC
FF03FC
FF03FC
FF03FC
FF03FC
FFFFFC
FFFFFC
FFFFFC
FFFFFC
FFFFFC
FFFFFC
FFFFFC
FF03FC
FF03FC
FF03FC
FF03FC
FF03FC
FF03FC
FF03F8
ENDCHAR
STARTCHAR afii10080
ENCODING 1086
SWIDTH 850 0
DWIDTH 26 0
BBX 22 21 2 0
BITMAP
03FE00
0FFFC0
3FFFE0
7FFFF0
7FFFF8
FFFFF8
FF87FC
FF03FC
FF03FC
FF03FC
FF03FC
FF03FC
FF03FC
FF03FC
FF87FC
FFFFF8
7FFFF8
7FFFF0
3FFFE0
0FFFC0
03FE00
ENDCHAR
STARTCHAR afii10081
ENCODING 1087
SWIDTH 850 0
DWIDTH 26 0
BBX 21 21 2 0
BITMAP
FFFFF8
FFFFF8
FFFFF8
FFFFF8
FFFFF8
FFFFF8
FF03F8
FF03F8
FF03F8
FF03F8
FF03F8
FF03F8
FF03F8
FF03F8
FF03F8
FF03F8
FF03F8
FF03F8
FF03F8
FF03F8
FF03F8
ENDCHAR
STARTCHAR afii10082
ENCODING 1088
SWIDTH 850 0
DWIDTH 26 0
BBX 21 21 4 0
BITMAP
FFFE00
FFFFC0
FFFFE0
FFFFF0
FFFFF0
FFFFF8
FF07F8
FF07F8
FF07F8
FFFFF8
FFFFF8
FFFFF0
FFFFE0
FFFFC0
FFFF00
FF0000
FF0000
FF0000
FF0000
FF0000
FF0000
ENDCHAR
STARTCHAR afii10083
ENCODING 1089
SWIDTH 850 0
DWIDTH 26 0
BBX 22 21 2 0
BITMAP
01FE00
0FFFC0
1FFFE0
3FFFF0
7FFFF8
FFFFFC
FF87FC
FF03FC
FF0000
FF0000
FF0000
FF0000
FF0000
FF03FC
FF87FC
FFFFFC
7FFFF8
3FFFF0
1FFFE0
0FFFC0
01FE00
ENDCHAR
STARTCHAR afii10084
ENCODING 1090
SWIDTH 850 0
DWIDTH 26 0
BBX 22 21 2 0
BITMAP
FFFFFC
FFFFFC
FFFFFC
FFFFFC
FFFFFC
FFFFFC
01FE00
01FE00
01FE00
01FE00
01FE00
01FE00
01FE00
01FE00
01FE00
01FE00
01FE00
01FE00
01FE00
01FE00
01FE00
ENDCHAR
STARTCHAR afii10085
ENCODING 1091
SWIDTH 850 0
DWIDTH 26 0
BBX 22 21 3 0
BITMAP
FF01FC
FF83FC
7F83FC
7F87F8
3FC7F8
3FC7F0
1FEFF0
1FEFF0
1FEFE0
0FFFE0
0FFFC0
07FFC0
07FF80
03FF80
03FF80
FFFF00
FFFF00
FFFE00
FFFC00
FFF800
FFE000
ENDCHAR
STARTCHAR afii10086
ENCODING 1092
SWIDTH 850 0
DWIDTH 26 0
BBX 24 21 1 0
BITMAP
007E00
007E00
00FF00
07FFE0
1FFFF8
3FFFFC
7FFFFC
7FFFFE
FE7EFE
FE7E7E
FE7E7F
FE7E7E
FE7EFE
7FFFFE
7FFFFC
3FFFFC
1FFFF8
07FFE0
00FF00
007E00
007E00
ENDCHAR
STARTCHAR afii10087
ENCODING 1093
SWIDTH 850 0
DWIDTH 26 0
BBX 23 21 1 0
BITMAP
7F81FE
3FC3FC
3FE7FC
1FE7F8
0FFFF0
0FFFF0
07FFE0
03FFC0
03FFC0
01FF80
01FF80
03FF80
03FFC0
07FFE0
0FFFE0
0FFFF0
1FEFF8
3FE7F8
3FC7FC
7F83FE
FF81FE
ENDCHAR
STARTCHAR afii10088
ENCODING 1094
SWIDTH 850 0
DWIDTH 26 0
BBX 21 25 3 -4
BITMAP
FF1FE0
FF1FE0
FF1FE0
FF1FE0
FF1FE0
FF1FE0
FF1FE0
FF1FE0
FF1FE0
FF1FE0
FF1FE0
FF1FE0
FF1FE0
FF1FE0
FF1FE0
FFFFF8
FFFFF8
FFFFF8
FFFFF8
FFFFF8
FFFFF8
0003F8
0003F8
0003F8
0003F8
ENDCHAR
STARTCHAR afii10089
ENCODING 1095
SWIDTH 850 0
DWIDTH 26 0
BBX 22 21 0 0
BITMAP
7F03FC
FF03FC
FF03FC
FF03FC
FF03FC
FF03FC
FF03FC
7F83FC
7F83FC
7FFFFC
3FFFFC
3FFFFC
1FFFFC
07FFFC
01FFFC
0003FC
0003FC
0003FC
0003FC
0003FC
0003FC
ENDCHAR
STARTCHAR afii10090
ENCODING 1096
SWIDTH 850 0
DWIDTH 26 0
BBX 23 21 1 0
BITMAP
FE7E7E
FE7E7E
FE7E7E
FE7E7E
FE7E7E
FE7E7E
FE7E7E
FE7E7E
FE7E7E
FE7E7E
FE7E7E
FE7E7E
FE7E7E
FE7E7E
FE7E7E
FFFFFE
FFFFFE
FFFFFE
FFFFFE
FFFFFE
FFFFFE
ENDCHAR
STARTCHAR afii10091
ENCODING 1097
SWIDTH 850 0
DWIDTH 26 0
BBX 25 25 1 -4
BITMAP
FCFCFE00
FCFCFE00
FCFCFE00
FCFCFE00
FCFCFE00
FCFCFE00
FCFCFE00
FCFCFE00
FCFCFE00
FCFCFE00
FCFCFE00
FCFCFE00
FCFCFE00
FCFCFE00
FCFCFE00
FFFFFF00
FFFFFF80
FFFFFF80
FFFFFF80
FFFFFF80
FFFFFF80
00003F80
00003F80
00003F80
00003F00
ENDCHAR
STARTCHAR afii10092
ENCODING 1098
SWIDTH 850 0
DWIDTH 26 0
BBX 24 21 1 0
BITMAP
FFE000
FFE000
FFE000
FFE000
FFE000
FFE000
0FE000
0FFFE0
0FFFF8
0FFFFE
0FFFFE
0FFFFF
0FFFFF
0FE07F
0FE07F
0FFFFF
0FFFFF
0FFFFE
0FFFFE
0FFFF8
0FFFE0
ENDCHAR
STARTCHAR afii10093
ENCODING 1099
SWIDTH 850 0
DWIDTH 26 0
BBX 24 21 1 0
BITMAP
FC007F
FC007F
FC007F
FC007F
FC007F
FC007F
FC007F
FFE07F
FFFC7F
FFFE7F
FFFE7F
FFFF7F
FFFF7F
FC3F7F
FC7F7F
FFFF7F
FFFF7F
FFFE7F
FFFE7F
FFF87F
FFE07F
ENDCHAR
STARTCHAR afii10094
ENCODING 1100
SWIDTH 850 0
DWIDTH 26 0
BBX 21 21 4 0
BITMAP
FF0000
FF0000
FF0000
FF0000
FF0000
FF0000
FF0000
FFFE00
FFFFC0
FFFFE0
FFFFF0
FFFFF0
FFFFF8
FF07F8
FF07F8
FFFFF8
FFFFF0
FFFFF0
FFFFE0
FFFFC0
FFFE00
ENDCHAR
STARTCHAR afii10095
ENCODING 1101
SWIDTH 850 0
DWIDTH 26 0
BBX 23 21 1 0
BITMAP
01FF00
07FFC0
1FFFF0
3FFFF8
7FFFFC
7FFFFC
FF83FC
FF03FE
007FFE
007FFE
007FFE
007FFE
007FFE
FF03FE
FF83FC
7FFFFC
7FFFFC
3FFFF8
1FFFF0
07FFC0
01FF00
ENDCHAR
STARTCHAR afii10096
ENCODING 1102
SWIDTH 850 0
DWIDTH 26 0
BBX 26 21 0 0
BITMAP
FE03F800
FE0FFC00
FE1FFE00
FE3FFF00
FE7FFF80
FE7FFF80
FE7F3F80
FFFF1F80
FFFE1F80
FFFE1F80
FFFE1FC0
FFFE1F80
FFFE1F80
FE7F3F80
FE7F3F80
FE7FFF80
FE3FFF80
FE3FFF00
FE1FFE00
FE0FFE00
FE03F000
ENDCHAR
STARTCHAR afii10097
ENCODING 1103
SWIDTH 850 0
DWIDTH 26 0
BBX 22 21 1 0
BITMAP
03FFFC
0FFFFC
3FFFFC
7FFFFC
7FFFFC
7FFFFC
FF83FC
FF83FC
FF83FC
7FFFFC
7FFFFC
7FFFFC
3FFFFC
1FFFFC
1FFFFC
1FE3FC
3FC3FC
7FC3FC
7F83FC
FF83FC
FF03FC
ENDCHAR
STARTCHAR afii10071
ENCODING 1105
SWIDTH 850 0
DWIDTH 26 0
BBX 20 25 3 0
BITMAP
0F9F00
0F9F00
0F9F00
0F9F00
FFFFF0
FFFFF0
FFFFF0
FFFFF0
FFFFF0
FFFFF0
FF0000
FF0000
FFFFC0
FFFFC0
FFFFC0
FFFFC0
FFFFC0
FFFFC0
FF0000
FFFFF0
FFFFF0
FFFFF0
FFFFF0
FFFFF0
FFFFF0
ENDCHAR
STARTCHAR afii10099
ENCODING 1106
SWIDTH 850 0
DWIDTH 26 0
BBX 23 27 1 -6
BITMAP
FFFFC0
FFFFC0
FFFFC0
FFFFC0
FFFFC0
FFFFC0
07F000
07F000
07FFC0
07FFF8
07FFFC
07FFFC
07FFFE
07FFFE
07F0FE
07F07E
07F07E
07F07E
07F07E
07F07E
07F07E
0000FE
0007FC
0007FC
0007F8
0007F0
0007C0
ENDCHAR
STARTCHAR afii10100
ENCODING 1107
SWIDTH 850 0
DWIDTH 26 0
BBX 18 25 6 0
BITMAP
01FC00
01F800
03F000
07E000
FFFFC0
FFFFC0
FFFFC0
FFFFC0
FFFFC0
FFFFC0
FF0000
FF0000
FF0000
FF0000
FF0000
FF0000
FF0000
FF0000
FF0000
FF0000
FF0000
FF0000
FF0000
FF0000
FF0000
ENDCHAR
STARTCHAR afii10101
ENCODING 1108
SWIDTH 850 0
DWIDTH 26 0
BBX 22 21 2 0
BITMAP
01FE00
0FFFC0
1FFFE0
3FFFF0
7FFFF8
FFFFFC
FF87FC
FF01FC
FFFC00
FFFC00
FFFC00
FFFC00
FFFC00
FF01FC
FF87FC
FFFFFC
7FFFF8
3FFFF0
1FFFE0
0FFFC0
01FE00
ENDCHAR
STARTCHAR afii10102
ENCODING 1109
SWIDTH 850 0
DWIDTH 26 0
BBX 21 21 2 0
BITMAP
03FE00
0FFF80
3FFFE0
7FFFF0
7FFFF0
7FFFF8
7F8FF8
7F8000
7FFF00
7FFFE0
3FFFF0
0FFFF8
01FFF8
0007F8
FF07F8
FFFFF8
FFFFF8
7FFFF0
3FFFE0
1FFFC0
03FE00
ENDCHAR
STARTCHAR afii10103
ENCODING 1110
SWIDTH 850 0
DWIDTH 26 0
BBX 21 21 2 0
BITMAP
FFFFF8
FFFFF8
FFFFF8
FFFFF8
FFFFF8
FFFFF8
01FE00
01FE00
01FE00
01FE00
01FE00
01FE00
01FE00
01FE00
01FE00
FFFFF8
FFFFF8
FFFFF8
FFFFF8
FFFFF8
FFFFF8
ENDCHAR
STARTCHAR afii10104
ENCODING 1111
SWIDTH 850 0
DWIDTH 26 0
BBX 21 25 2 0
BITMAP
078F80
078F80
078F80
078F80
FFFFF8
FFFFF8
FFFFF8
FFFFF8
FFFFF8
FFFFF8
01FE00
01FE00
01FE00
01FE00
01FE00
01FE00
01FE00
01FE00
01FE00
FFFFF8
FFFFF8
FFFFF8
FFFFF8
FFFFF8
FFFFF8
ENDCHAR
STARTCHAR afii10105
ENCODING 1112
SWIDTH 850 0
DWIDTH 26 0
BBX 22 21 1 0
BITMAP
3FFFFC
3FFFFC
3FFFFC
3FFFFC
3FFFFC
3FFFFC
0003FC
0003FC
0003FC
0003FC
0003FC
0003FC
0003FC
FF03FC
FF87FC
FFFFFC
7FFFF8
3FFFF0
1FFFE0
0FFFC0
01FE00
ENDCHAR
STARTCHAR afii10106
ENCODING 1113
SWIDTH 850 0
DWIDTH 26 0
BBX 26 21 0 0
BITMAP
1FFF8000
1FFF8000
1FFF8000
1FFF8000
1FFF8000
1FFF8000
1F9FF800
1F9FFE00
1F9FFF00
1F9FFF80
1F9FFF80
1F9FFF80
1F9F9F80
1F9F9FC0
3F9F9F80
FF9FFF80
FF9FFF80
FF1FFF00
FF1FFF00
FC1FFE00
F01FF800
ENDCHAR
STARTCHAR afii10107
ENCODING 1114
SWIDTH 850 0
DWIDTH 26 0
BBX 25 21 1 0
BITMAP
FC3F0000
FC3F0000
FC3F0000
FC3F0000
FC3F0000
FC3F0000
FC3F0000
FC3FF000
FFFFFC00
FFFFFE00
FFFFFF00
FFFFFF00
FFFFFF00
FFFF3F80
FC3F3F00
FC3FFF00
FC3FFF00
FC3FFF00
FC3FFE00
FC3FFC00
FC3FF000
ENDCHAR
STARTCHAR afii10108
ENCODING 1115
SWIDTH 850 0
DWIDTH 26 0
BBX 24 21 1 0
BITMAP
FFFFC0
FFFFC0
FFFFC0
FFFFC0
FFFFC0
FFFFC0
07F000
07F000
07FFC0
07FFF8
07FFFC
07FFFC
07FFFE
07FFFE
07F0FE
07F0FF
07F0FF
07F0FF
07F0FF
07F0FF
07F0FF
ENDCHAR
STARTCHAR afii10109
ENCODING 1116
SWIDTH 850 0
DWIDTH 26 0
BBX 23 25 2 0
BITMAP
003F80
003F00
007E00
00FC00
FF07FC
FF0FFC
FF1FF8
FF1FF0
FF3FE0
FF7FC0
FFFF80
FFFF80
FFFF00
FFFE00
FFFE00
FFFF00
FFFF80
FFFFC0
FF7FC0
FF7FE0
FF3FF0
FF1FF8
FF0FFC
FF07FC
FF07FE
ENDCHAR
STARTCHAR afii10110
ENCODING 1118
SWIDTH 850 0
DWIDTH 26 0
BBX 22 25 3 0
BITMAP
03C780
03FF80
01FF00
007E00
FF01FC
FF83FC
7F83FC
7F87F8
3FC7F8
3FC7F0
1FEFF0
1FEFF0
1FEFE0
0FFFE0
0FFFC0
07FFC0
07FF80
03FF80
03FF80
FFFF00
FFFF00
FFFE00
FFFC00
FFF800
FFE000
ENDCHAR
STARTCHAR afii10193
ENCODING 1119
SWIDTH 850 0
DWIDTH 26 0
BBX 19 25 3 -4
BITMAP
FE0FE0
FE0FE0
FE0FE0
FE0FE0
FE0FE0
FE0FE0
FE0FE0
FE0FE0
FE0FE0
FE0FE0
FE0FE0
FE0FE0
FE0FE0
FE0FE0
FE0FE0
FFFFE0
FFFFE0
FFFFE0
FFFFE0
FFFFE0
FFFFE0
01F800
01F800
01F800
01F800
ENDCHAR
STARTCHAR afii10050
ENCODING 1168
SWIDTH 850 0
DWIDTH 26 0
BBX 19 25 6 0
BITMAP
000FE0
000FE0
000FE0
000FE0
FFFFE0
FFFFE0
FFFFE0
FFFFE0
FFFFE0
FFFFE0
FF0000
FF0000
FF0000
FF0000
FF0000
FF0000
FF0000
FF0000
FF0000
FF0000
FF0000
FF0000
FF0000
FF0000
FF0000
ENDCHAR
STARTCHAR afii10098
ENCODING 1169
SWIDTH 850 0
DWIDTH 26 0
BBX 19 25 6 0
BITMAP
000FE0
000FE0
000FE0
000FE0
FFFFE0
FFFFE0
FFFFE0
FFFFE0
FFFFE0
FFFFE0
FF0000
FF0000
FF0000
FF0000
FF0000
FF0000
FF0000
FF0000
FF0000
FF0000
FF0000
FF0000
FF0000
FF0000
FF0000
ENDCHAR
STARTCHAR alefhebrew
ENCODING 1488
SWIDTH 850 0
DWIDTH 26 0
BBX 22 21 2 0
BITMAP
7F83FC
7FC3FC
3FC3FC
3FE3FC
1FF3FC
1FF3FC
0FFBFC
0FFFFC
1FFFF8
3FFFF8
7FFFF0
7FFFE0
7FFFC0
FF7F80
FF7FC0
FF3FC0
FF3FE0
FF1FF0
FF0FF0
FF0FF8
FF07F8
ENDCHAR
STARTCHAR bethebrew
ENCODING 1489
SWIDTH 850 0
DWIDTH 26 0
BBX 22 21 1 0
BITMAP
FFF000
FFFE00
FFFF00
FFFF80
FFFFC0
FFFFC0
003FC0
003FE0
001FE0
001FE0
001FE0
001FE0
001FE0
001FE0
001FE0
FFFFFC
FFFFFC
FFFFFC
FFFFFC
FFFFFC
FFFFFC
ENDCHAR
STARTCHAR gimelhebrew
ENCODING 1490
SWIDTH 850 0
DWIDTH 26 0
BBX 23 21 1 0
BITMAP
1FF000
1FFE00
1FFF00
1FFF80
1FFFC0
1FFFC0
007FC0
003FC0
003FC0
003FC0
003FC0
01FFE0
0FFFE0
1FFFF0
3FFFF0
7FFFF0
7FFFF8
7F87F8
FF03FC
FF03FC
FF01FE
ENDCHAR
STARTCHAR dalethebrew
ENCODING 1491
SWIDTH 850 0
DWIDTH 26 0
BBX 19 21 1 0
BITMAP
FFFFE0
FFFFE0
FFFFE0
FFFFE0
FFFFE0
FFFFE0
00FF00
00FF00
00FF00
00FF00
00FF00
00FF00
00FF00
00FF00
00FF00
00FF00
00FF00
00FF00
00FF00
00FF00
00FF00
ENDCHAR
STARTCHAR hehebrew
ENCODING 1492
SWIDTH 850 0
DWIDTH 26 0
BBX 22 21 1 0
BITMAP
FFFE00
FFFFC0
FFFFE0
FFFFF0
FFFFF8
FFFFF8
0007FC
0003FC
FF03FC
FF03FC
FF03FC
FF03FC
FF03FC
FF03FC
FF03FC
FF03FC
FF03FC
FF03FC
FF03FC
FF03FC
FF03FC
ENDCHAR
STARTCHAR vavhebrew
ENCODING 1493
SWIDTH 850 0
DWIDTH 26 0
BBX 13 21 4 0
BITMAP
7FF8
FFF8
FFF8
FFF8
FFF8
7FF8
07F8
07F8
07F8
07F8
07F8
07F8
07F8
07F8
07F8
07F8
07F8
07F8
07F8
07F8
07F8
ENDCHAR
STARTCHAR zayinhebrew
ENCODING 1494
SWIDTH 850 0
DWIDTH 26 0
BBX 17 21 3 0
BITMAP
FFFF80
FFFF80
FFFF80
FFFF80
FFFF80
FFFF80
03FC00
03FC00
03FC00
03FC00
03FC00
03FC00
03FC00
03FC00
03FC00
03FC00
03FC00
03FC00
03FC00
03FC00
03FC00
ENDCHAR
STARTCHAR hethebrew
ENCODING 1495
SWIDTH 850 0
DWIDTH 26 0
BBX 21 21 3 0
BITMAP
FFFC00
FFFF80
FFFFC0
FFFFE0
FFFFF0
FFFFF0
FF0FF8
FF07F8
FF07F8
FF07F8
FF07F8
FF07F8
FF07F8
FF07F8
FF07F8
FF07F8
FF07F8
FF07F8
FF07F8
FF07F8
FF07F8
ENDCHAR
STARTCHAR tethebrew
ENCODING 1496
SWIDTH 850 0
DWIDTH 26 0
BBX 22 21 2 0
BITMAP
7F3E00
FF3FC0
FF3FF0
FF3FF8
FF3FF8
FF3FFC
FF07FC
FF03FC
FF03FC
FF03FC
FF03FC
FF03FC
FF03FC
7F83FC
7F87FC
7FFFFC
7FFFF8
3FFFF8
1FFFF0
0FFFC0
01FF00
ENDCHAR
STARTCHAR yodhebrew
ENCODING 1497
SWIDTH 850 0
DWIDTH 26 0
BBX 13 13 5 8
BITMAP
FFF8
FFF8
FFF8
FFF8
FFF8
FFF8
07F8
07F8
07F8
07F8
07F8
07F8
07F8
ENDCHAR
STARTCHAR finalkafhebrew
ENCODING 1498
SWIDTH 850 0
DWIDTH 26 0
BBX 19 25 2 -4
BITMAP
FFFFE0
FFFFE0
FFFFE0
FFFFE0
FFFFE0
FFFFE0
01FE00
01FE00
01FE00
01FE00
01FE00
01FE00
01FE00
01FE00
01FE00
01FE00
01FE00
01FE00
01FE00
01FE00
01FE00
01FE00
01FE00
01FE00
01FE00
ENDCHAR
STARTCHAR kafhebrew
ENCODING 1499
SWIDTH 850 0
DWIDTH 26 0
BBX 21 21 1 0
BITMAP
FFFC00
FFFF00
FFFFC0
FFFFE0
FFFFF0
FFFFF0
001FF0
000FF8
0007F8
0007F8
0007F8
0007F8
0007F8
000FF8
001FF0
FFFFF0
FFFFF0
FFFFE0
FFFFC0
FFFF00
FFFC00
ENDCHAR
STARTCHAR lamedhebrew
ENCODING 1500
SWIDTH 850 0
DWIDTH 26 0
BBX 18 26 2 0
BITMAP
FC0000
FE0000
FE0000
FE0000
FE0000
FFFFC0
FFFFC0
FFFFC0
FFFFC0
FFFFC0
FFFFC0
003FC0
003FC0
003FC0
003FC0
003FC0
003FC0
003FC0
003FC0
007FC0
07FF80
07FF80
07FF00
07FF00
07FC00
07F000
ENDCHAR
STARTCHAR finalmemhebrew
ENCODING 1501
SWIDTH 850 0
DWIDTH 26 0
BBX 21 21 2 0
BITMAP
FFFC00
FFFF80
FFFFC0
FFFFE0
FFFFF0
FFFFF0
FF8FF8
FF87F8
FF87F8
FF87F8
FF87F8
FF87F8
FF87F8
FF87F8
FF87F8
FFFFF8
FFFFF8
FFFFF8
FFFFF8
FFFFF8
FFFFF8
ENDCHAR
STARTCHAR memhebrew
ENCODING 1502
SWIDTH 850 0
DWIDTH 26 0
BBX 24 21 1 0
BITMAP
FFFF80
FFFFF0
FFFFF8
FFFFFC
FFFFFE
FFFFFE
0FF1FF
1FE1FF
1FE0FF
1FE0FF
1FE0FF
3FC0FF
3FC0FF
3FC0FF
3FC0FF
7F87FF
7F87FF
7F87FF
7F87FF
FF07FF
FF07FF
ENDCHAR
STARTCHAR finalnunhebrew
ENCODING 1503
SWIDTH 850 0
DWIDTH 26 0
BBX 13 25 4 -4
BITMAP
7FF8
FFF8
FFF8
FFF8
FFF8
7FF8
07F8
07F8
07F8
07F8
07F8
07F8
07F8
07F8
07F8
07F8
07F8
07F8
07F8
07F8
07F8
07F8
07F8
07F8
07F8
ENDCHAR
STARTCHAR nunhebrew
ENCODING 1504
SWIDTH 850 0
DWIDTH 26 0
BBX 15 21 3 0
BITMAP
7F00
FFC0
FFF0
FFF8
FFFC
FFFC
7FFC
03FE
03FE
01FE
01FE
01FE
01FE
01FE
01FE
FFFE
FFFE
FFFE
FFFE
FFFE
FFFE
ENDCHAR
STARTCHAR samekhhebrew
ENCODING 1505
SWIDTH 850 0
DWIDTH 26 0
BBX 21 21 3 0
BITMAP
FFFC00
FFFF80
FFFFC0
FFFFE0
FFFFF0
FFFFF0
FE0FF8
FE07F8
FE07F8
FE07F8
FE07F8
FE07F8
FE07F8
FF07F8
FF0FF8
FFFFF0
7FFFF0
7FFFE0
3FFFC0
1FFF80
03FC00
ENDCHAR
STARTCHAR ayinhebrew
ENCODING 1506
SWIDTH 850 0
DWIDTH 26 0
BBX 22 21 1 0
BITMAP
FF03FC
7F83FC
7F83FC
7F83FC
3FC3FC
3FC3FC
3FC3FC
1FE3FC
1FE3FC
1FE3FC
0FF3FC
0FF3FC
0FF3FC
07FBFC
07FFFC
FFFFF8
FFFFF8
FFFFF0
FFFFE0
FFFFC0
FFFE00
ENDCHAR
STARTCHAR finalpehebrew
ENCODING 1507
SWIDTH 850 0
DWIDTH 26 0
BBX 21 25 1 -4
BITMAP
FFFE00
FFFF80
FFFFE0
FFFFF0
FFFFF0
FFFFF8
FE0FF8
FE07F8
FE07F8
FE03F8
FF03F8
FFE3F8
7FE3F8
7FE3F8
3FE3F8
1FE3F8
0FE3F8
03E3F8
0003F8
0003F8
0003F8
0003F8
0003F8
0003F8
0003F8
ENDCHAR
STARTCHAR pehebrew
ENCODING 1508
SWIDTH 850 0
DWIDTH 26 0
BBX 21 25 1 -4
BITMAP
FF07F8
FF07F8
FF87F8
7F87F8
7F87F8
3FC7F8
3FC7F0
3FEFF0
1FFFF0
1FFFF0
0FFFE0
0FFFC0
07FF80
07FF00
07FC00
03FC00
03FE00
01FE00
01FF00
00FF00
00FF00
00FF80
007F80
007FC0
003FC0
ENDCHAR
STARTCHAR finaltsadihebrew
ENCODING 1509
SWIDTH 850 0
DWIDTH 26 0
BBX 23 21 1 0
BITMAP
FFFF00
FFFFE0
FFFFF0
FFFFF8
FFFFFC
FFFFFC
FF03FE
FFE1FE
7FE1FE
7FE1FE
3FE1FE
1FE1FE
07E1FE
0001FE
0003FE
FFFFFC
FFFFFC
FFFFF8
FFFFF0
FFFFE0
FFFF00
ENDCHAR
STARTCHAR tsadihebrew
ENCODING 1510
SWIDTH 850 0
DWIDTH 26 0
BBX 22 21 0 0
BITMAP
FF81FC
7FC1FC
7FE1FC
3FF1FC
1FF1FC
0FFBFC
07FFFC
07FFFC
03FFFC
01FFF8
00FFF8
00FFF0
007FE0
003FE0
001FF0
7FFFF8
7FFFF8
7FFFF8
7FFFF8
7FFFF8
7FFFF8
ENDCHAR
STARTCHAR qofhebrew
ENCODING 1511
SWIDTH 850 0
DWIDTH 26 0
BBX 23 25 1 -4
BITMAP
7FFFFE
7FFFFE
7FFFFE
7FFFFE
7FFFFE
7FFFFE
0001FE
0001FE
7F81FE
FF81FE
FF81FE
FF81FE
FF81FE
FF83FE
FF83FC
FFBFFC
FFBFFC
FFBFF8
FFBFF0
FFBFE0
FFBF00
FF8000
FF8000
FF8000
7F8000
ENDCHAR
STARTCHAR reshhebrew
ENCODING 1512
SWIDTH 850 0
DWIDTH 26 0
BBX 20 21 1 0
BITMAP
FFFC00
FFFF00
FFFFC0
FFFFE0
FFFFE0
FFFFF0
001FF0
000FF0
000FF0
000FF0
000FF0
000FF0
000FF0
000FF0
000FF0
000FF0
000FF0
000FF0
000FF0
000FF0
000FF0
ENDCHAR
STARTCHAR shinhebrew
ENCODING 1513
SWIDTH 850 0
DWIDTH 26 0
BBX 26 21 0 0
BITMAP
FE7E1FC0
FE7E1FC0
FE7E1FC0
FE7E1FC0
FE7E1FC0
FE7E1FC0
FE7E1FC0
FE7E1FC0
FEFE1FC0
FEFC1FC0
FFFC1FC0
FFFC1FC0
FFF81FC0
FFF03F80
FFE07F80
7FFFFF80
7FFFFF00
3FFFFF00
1FFFFE00
0FFFFC00
03FFE000
ENDCHAR
STARTCHAR tavhebrew
ENCODING 1514
SWIDTH 850 0
DWIDTH 26 0
BBX 24 21 1 0
BITMAP
FFFF80
FFFFF0
FFFFFC
FFFFFC
FFFFFE
FFFFFE
1FE1FF
1FE0FF
1FE0FF
1FE0FF
1FE0FF
1FE0FF
1FE0FF
1FE0FF
1FE0FF
FFE0FF
FFE0FF
FFE0FF
FFE0FF
FFE0FF
FFE0FF
ENDCHAR
STARTCHAR Wgrave
ENCODING 7808
SWIDTH 850 0
DWIDTH 26 0
BBX 24 25 1 0
BITMAP
03F000
01F800
00FC00
007C00
FC007F
FE007F
FE007F
FE007F
FE007F
FE3CFF
FE7CFE
7E7EFE
7F7EFE
7FFFFE
7FFFFE
7FFFFE
7FFFFE
7FFFFC
7FFFFC
3FE7FC
3FE7FC
3FC7FC
3FC3FC
3F83FC
1F81F8
ENDCHAR
STARTCHAR wgrave
ENCODING 7809
SWIDTH 850 0
DWIDTH 26 0
BBX 24 25 1 0
BITMAP
03F000
01F800
00FC00
007C00
FC007F
FE007F
FE007F
FE007F
FE007F
FE3CFF
FE7CFE
7E7EFE
7F7EFE
7FFFFE
7FFFFE
7FFFFE
7FFFFE
7FFFFC
7FFFFC
3FE7FC
3FE7FC
3FC7FC
3FC3FC
3F83FC
1F81F8
ENDCHAR
STARTCHAR Wacute
ENCODING 7810
SWIDTH 850 0
DWIDTH 26 0
BBX 24 25 1 0
BITMAP
001F80
003F80
007F00
007C00
FC007F
FE007F
FE007F
FE007F
FE007F
FE3CFF
FE7CFE
7E7EFE
7F7EFE
7FFFFE
7FFFFE
7FFFFE
7FFFFE
7FFFFC
7FFFFC
3FE7FC
3FE7FC
3FC7FC
3FC3FC
3F83FC
1F81F8
ENDCHAR
STARTCHAR wacute
ENCODING 7811
SWIDTH 850 0
DWIDTH 26 0
BBX 24 25 1 0
BITMAP
001F80
003F80
007F00
007C00
FC007F
FE007F
FE007F
FE007F
FE007F
FE3CFF
FE7CFE
7E7EFE
7F7EFE
7FFFFE
7FFFFE
7FFFFE
7FFFFE
7FFFFC
7FFFFC
3FE7FC
3FE7FC
3FC7FC
3FC3FC
3F83FC
1F81F8
ENDCHAR
STARTCHAR Wdieresis
ENCODING 7812
SWIDTH 850 0
DWIDTH 26 0
BBX 24 25 1 0
BITMAP
03C7C0
03C7C0
03C7C0
03C7C0
FC007F
FE007F
FE007F
FE007F
FE007F
FE3CFF
FE7CFE
7E7EFE
7F7EFE
7FFFFE
7FFFFE
7FFFFE
7FFFFE
7FFFFC
7FFFFC
3FE7FC
3FE7FC
3FC7FC
3FC3FC
3F83FC
1F81F8
ENDCHAR
STARTCHAR wdieresis
ENCODING 7813
SWIDTH 850 0
DWIDTH 26 0
BBX 24 25 1 0
BITMAP
03C7C0
03C7C0
03C7C0
03C7C0
FC007F
FE007F
FE007F
FE007F
FE007F
FE3CFF
FE7CFE
7E7EFE
7F7EFE
7FFFFE
7FFFFE
7FFFFE
7FFFFE
7FFFFC
7FFFFC
3FE7FC
3FE7FC
3FC7FC
3FC3FC
3F83FC
1F81F8
ENDCHAR
STARTCHAR Ygrave
ENCODING 7922
SWIDTH 850 0
DWIDTH 26 0
BBX 23 25 1 0
BITMAP
03F000
01F800
00FC00
007C00
FF01FE
FF81FE
7F83FC
3FC3FC
3FC7F8
1FEFF8
1FFFF0
0FFFE0
07FFE0
07FFC0
03FFC0
03FF80
01FF00
00FF00
00FF00
00FF00
00FF00
00FF00
00FF00
00FF00
00FF00
ENDCHAR
STARTCHAR ygrave
ENCODING 7923
SWIDTH 850 0
DWIDTH 26 0
BBX 23 25 1 0
BITMAP
03F000
01F800
00FC00
007C00
FF01FE
FF81FE
7F83FC
3FC3FC
3FC7F8
1FEFF8
1FFFF0
0FFFE0
07FFE0
07FFC0
03FFC0
03FF80
01FF00
00FF00
00FF00
00FF00
00FF00
00FF00
00FF00
00FF00
00FF00
ENDCHAR
STARTCHAR endash
ENCODING 8211
SWIDTH 850 0
DWIDTH 26 0
BBX 17 6 4 7
BITMAP
7FFF80
FFFF80
FFFF80
FFFF80
FFFF80
7FFF80
ENDCHAR
STARTCHAR emdash
ENCODING 8212
SWIDTH 850 0
DWIDTH 26 0
BBX 23 6 1 7
BITMAP
FFFFFE
FFFFFE
FFFFFE
FFFFFE
FFFFFE
FFFFFE
ENDCHAR
STARTCHAR quoteleft
ENCODING 8216
SWIDTH 850 0
DWIDTH 26 0
BBX 9 9 8 12
BITMAP
1F80
1F80
1F80
3F80
3F80
7F00
7F00
7F00
FF00
ENDCHAR
STARTCHAR quoteright
ENCODING 8217
SWIDTH 850 0
DWIDTH 26 0
BBX 9 9 8 12
BITMAP
3F80
7F80
7F00
7F00
7F00
7E00
7E00
FC00
FC00
ENDCHAR
STARTCHAR quotesinglbase
ENCODING 8218
SWIDTH 850 0
DWIDTH 26 0
BBX 9 9 8 -3
BITMAP
3F80
7F80
7F00
7F00
7F00
7E00
7E00
FC00
FC00
ENDCHAR
STARTCHAR quotedblleft
ENCODING 8220
SWIDTH 850 0
DWIDTH 26 0
BBX 18 9 4 12
BITMAP
1F8FC0
3F0FC0
3F1F80
3F1F80
7F3F80
7F3F80
FF3F80
FF7F80
FE7F00
ENDCHAR
STARTCHAR quotedblright
ENCODING 8221
SWIDTH 850 0
DWIDTH 26 0
BBX 18 9 4 12
BITMAP
7FBFC0
7F3F80
7F3F80
7E3F80
FE3F00
FE7F00
FC7E00
FC7E00
F87E00
ENDCHAR
STARTCHAR quotedblbase
ENCODING 8222
SWIDTH 850 0
DWIDTH 26 0
BBX 18 9 4 -3
BITMAP
7FBFC0
7F3F80
7F3F80
7E3F80
FE3F00
FE7F00
FC7E00
FC7E00
F87E00
ENDCHAR
STARTCHAR dagger
ENCODING 8224
SWIDTH 850 0
DWIDTH 26 0
BBX 16 21 5 0
BITMAP
07E0
07E0
07E0
07E0
07E0
FFFF
FFFF
FFFF
FFFF
FFFF
FFFF
07E0
07E0
07E0
07E0
07E0
07E0
07E0
07E0
07E0
07E0
ENDCHAR
STARTCHAR daggerdbl
ENCODING 8225
SWIDTH 850 0
DWIDTH 26 0
BBX 16 21 5 0
BITMAP
07E0
07E0
07E0
FFFF
FFFF
FFFF
FFFF
FFFF
FFFF
07E0
07E0
07E0
FFFF
FFFF
FFFF
FFFF
FFFF
FFFF
07E0
07E0
07E0
ENDCHAR
STARTCHAR bullet
ENCODING 8226
SWIDTH 850 0
DWIDTH 26 0
BBX 9 9 8 8
BITMAP
1E00
7F00
7F80
FF80
FF80
FF80
7F80
7F00
1E00
ENDCHAR
STARTCHAR ellipsis
ENCODING 8230
SWIDTH 850 0
DWIDTH 26 0
BBX 23 6 1 0
BITMAP
7E7E7E
FE7E7E
FE7E7E
FE7E7E
FE7E7E
7E7E7E
ENDCHAR
STARTCHAR perthousand
ENCODING 8240
SWIDTH 850 0
DWIDTH 26 0
BBX 25 21 0 0
BITMAP
3C078000
7E070000
FF0F0000
E71E0000
E71C0000
E73C0000
E7780000
E7700000
FFF00000
7FE00000
3DDE1E00
03FF3F00
03BFBF80
07BBBB80
0F3BBB80
0E3BBB80
1E3BBB80
3C3BBB80
383FBF80
783F3F80
701E1F00
ENDCHAR
STARTCHAR guilsinglleft
ENCODING 8249
SWIDTH 850 0
DWIDTH 26 0
BBX 7 15 9 2
BITMAP
02
06
0E
1E
3E
FE
FC
F8
FC
FE
3E
1E
0E
06
02
ENDCHAR
STARTCHAR guilsinglright
ENCODING 8250
SWIDTH 850 0
DWIDTH 26 0
BBX 8 15 9 2
BITMAP
C0
E0
F0
F8
FC
FE
7F
3F
7F
FE
FC
F8
F0
E0
C0
ENDCHAR
STARTCHAR fraction
ENCODING 8260
SWIDTH 850 0
DWIDTH 26 0
BBX 19 21 3 0
BITMAP
0001E0
0003E0
0003C0
000780
000F80
001F00
001E00
003C00
007800
00F800
00F000
01E000
03C000
07C000
078000
0F0000
1E0000
3E0000
3C0000
780000
F00000
ENDCHAR
STARTCHAR zerosuperior
ENCODING 8304
SWIDTH 850 0
DWIDTH 26 0
BBX 11 11 7 10
BITMAP
1F80
7FC0
7FE0
F9E0
F9E0
F9E0
F9E0
F9E0
7FE0
7FC0
1F80
ENDCHAR
STARTCHAR foursuperior
ENCODING 8308
SWIDTH 850 0
DWIDTH 26 0
BBX 11 10 7 11
BITMAP
0FC0
0FC0
1FC0
3FC0
7BC0
F3C0
FFE0
FFE0
FFE0
03C0
ENDCHAR
STARTCHAR fivesuperior
ENCODING 8309
SWIDTH 850 0
DWIDTH 26 0
BBX 11 11 7 10
BITMAP
3FC0
7FC0
7FC0
7900
7FC0
7FE0
01E0
F1E0
7FE0
7FC0
1F80
ENDCHAR
STARTCHAR sixsuperior
ENCODING 8310
SWIDTH 850 0
DWIDTH 26 0
BBX 11 11 7 10
BITMAP
0F80
0F00
1E00
3F80
7FC0
7FE0
79E0
F9E0
7FE0
7FC0
1F80
ENDCHAR
STARTCHAR sevensuperior
ENCODING 8311
SWIDTH 850 0
DWIDTH 26 0
BBX 10 10 8 11
BITMAP
FFC0
FFC0
FFC0
0780
0F80
0F00
1F00
3E00
3C00
7C00
ENDCHAR
STARTCHAR eightsuperior
ENCODING 8312
SWIDTH 850 0
DWIDTH 26 0
BBX 11 12 7 9
BITMAP
1F80
7FC0
7FE0
79E0
79E0
7FC0
7FE0
F9E0
F9E0
7FE0
7FC0
1F80
ENDCHAR
STARTCHAR ninesuperior
ENCODING 8313
SWIDTH 850 0
DWIDTH 26 0
BBX 11 11 7 10
BITMAP
1F00
7FC0
7FE0
F9E0
F9E0
7FE0
7FC0
1F80
0F80
1F00
3E00
ENDCHAR
STARTCHAR parenleftsuperior
ENCODING 8317
SWIDTH 850 0
DWIDTH 26 0
BBX 5 14 10 8
BITMAP
18
78
78
F0
E0
E0
E0
E0
E0
E0
F0
78
78
18
ENDCHAR
STARTCHAR parenrightsuperior
ENCODING 8318
SWIDTH 850 0
DWIDTH 26 0
BBX 5 14 10 8
BITMAP
E0
F0
F8
38
38
38
38
38
38
38
38
F8
F0
E0
ENDCHAR
STARTCHAR zeroinferior
ENCODING 8320
SWIDTH 850 0
DWIDTH 26 0
BBX 11 11 7 -4
BITMAP
1F80
7FC0
7FE0
F9E0
F9E0
F9E0
F9E0
F9E0
7FE0
7FC0
1F80
ENDCHAR
STARTCHAR oneinferior
ENCODING 8321
SWIDTH 850 0
DWIDTH 26 0
BBX 10 11 8 -4
BITMAP
1E00
3E00
FE00
FE00
FE00
5E00
1E00
1E00
FFC0
FFC0
FFC0
ENDCHAR
STARTCHAR twoinferior
ENCODING 8322
SWIDTH 850 0
DWIDTH 26 0
BBX 10 11 8 -4
BITMAP
3F00
FF80
FF80
F780
0780
1F80
3F00
FC00
FFC0
FFC0
FFC0
ENDCHAR
STARTCHAR threeinferior
ENCODING 8323
SWIDTH 850 0
DWIDTH 26 0
BBX 11 10 7 -4
BITMAP
7FC0
7FC0
7FC0
0780
1FC0
1FE0
71E0
FFE0
7FE0
1F80
ENDCHAR
STARTCHAR fourinferior
ENCODING 8324
SWIDTH 850 0
DWIDTH 26 0
BBX 11 10 7 -4
BITMAP
0FC0
0FC0
1FC0
3FC0
7BC0
73C0
FFE0
FFE0
FFE0
03C0
ENDCHAR
STARTCHAR fiveinferior
ENCODING 8325
SWIDTH 850 0
DWIDTH 26 0
BBX 11 10 7 -4
BITMAP
3FC0
7FC0
7FC0
7900
7FC0
7FE0
F1E0
7FE0
7FC0
1F80
ENDCHAR
STARTCHAR sixinferior
ENCODING 8326
SWIDTH 850 0
DWIDTH 26 0
BBX 11 11 7 -5
BITMAP
0F80
0F00
1E00
3F80
7FC0
7FE0
79E0
F9E0
7FE0
7FC0
1F80
ENDCHAR
STARTCHAR seveninferior
ENCODING 8327
SWIDTH 850 0
DWIDTH 26 0
BBX 10 10 8 -4
BITMAP
FFC0
FFC0
FFC0
0780
0F80
0F00
1F00
3E00
3C00
7C00
ENDCHAR
STARTCHAR eightinferior
ENCODING 8328
SWIDTH 850 0
DWIDTH 26 0
BBX 11 12 7 -5
BITMAP
1F80
7FC0
7FE0
79E0
79E0
7FC0
7FE0
F9E0
F9E0
7FE0
7FC0
1F80
ENDCHAR
STARTCHAR nineinferior
ENCODING 8329
SWIDTH 850 0
DWIDTH 26 0
BBX 11 11 7 -4
BITMAP
1F00
7FC0
7FE0
F9E0
F9E0
7FE0
7FC0
1F80
0F80
1F00
3E00
ENDCHAR
STARTCHAR parenleftinferior
ENCODING 8333
SWIDTH 850 0
DWIDTH 26 0
BBX 5 14 10 -6
BITMAP
18
78
78
F0
E0
E0
E0
E0
E0
E0
F0
78
78
18
ENDCHAR
STARTCHAR parenrightinferior
ENCODING 8334
SWIDTH 850 0
DWIDTH 26 0
BBX 5 14 10 -6
BITMAP
E0
F0
F8
38
38
38
38
38
38
38
38
F8
F0
E0
ENDCHAR
STARTCHAR Euro
ENCODING 8364
SWIDTH 850 0
DWIDTH 26 0
BBX 24 21 0 0
BITMAP
007F80
03FFF0
07FFFC
0FFFFE
1FFFFE
1FFFFF
3FE1FF
3FC0FF
FFFC00
FFFC00
FFFC00
FFFC00
FFFC00
3FC0FF
3FE1FF
1FFFFF
1FFFFE
0FFFFE
07FFFC
03FFF0
007FC0
ENDCHAR
STARTCHAR afii61352
ENCODING 8470
SWIDTH 850 0
DWIDTH 26 0
BBX 26 21 0 0
BITMAP
FC7E0000
FC7E0000
FE7E0000
FE7E0000
FF7E0000
FF7E0000
FF7E3E00
FFFE7F80
FFFEFF80
FFFEF780
FFFEF3C0
FFFEF3C0
FFFEF3C0
FFFEF780
FDFEFF80
FDFE7F80
FCFE3E00
FCFE0000
FC7EFF80
FC7EFFC0
FC3EFF80
ENDCHAR
STARTCHAR trademark
ENCODING 8482
SWIDTH 850 0
DWIDTH 26 0
BBX 17 8 4 13
BITMAP
FEE380
FEF380
FEF780
38FF80
38FF80
38FF80
38E380
38E380
ENDCHAR
STARTCHAR estimated
ENCODING 8494
SWIDTH 850 0
DWIDTH 26 0
BBX 19 18 3 0
BITMAP
03FC00
0FFF00
1FFF80
3FFFC0
7F1FE0
FF0FE0
FFFFE0
FFFFE0
FFFFE0
FFFFE0
FFFFE0
FF0000
FF0FE0
7FFFE0
7FFFE0
3FFFC0
0FFF00
03FC00
ENDCHAR
STARTCHAR onethird
ENCODING 8531
SWIDTH 850 0
DWIDTH 26 0
BBX 24 21 1 0
BITMAP
1E00F0
7E00F0
FE01E0
FE03C0
5E07C0
1E0F80
1E0F00
1E1E00
1E3C00
1E7C00
007FFE
00F7FE
01E7FE
03E07C
03C0FC
0780FE
0F00FE
1F079F
1E07FE
3C07FE
7801F8
ENDCHAR
STARTCHAR twothirds
ENCODING 8532
SWIDTH 850 0
DWIDTH 26 0
BBX 26 21 0 0
BITMAP
3F003C00
7F807C00
FFC07800
F3C0F000
0781E000
1F03E000
7E03C000
FFC78000
FFCF0000
FFDF0000
001FFF80
003DFF80
0079FF80
00F81F00
00F03E00
01E03F80
03C03F80
07C1E7C0
0781FF80
0F01FF80
1E007E00
ENDCHAR
STARTCHAR oneeighth
ENCODING 8539
SWIDTH 850 0
DWIDTH 26 0
BBX 24 21 1 0
BITMAP
1F0078
7F00F8
FF00F0
FF01E0
7F03C0
1F07C0
1F0780
1F0F00
1F1E00
1F3E00
003DFC
007BFE
00F7FF
01F78E
03E3FE
03C3FE
07878F
0F878F
1F07FF
1E03FE
3C00F8
ENDCHAR
STARTCHAR threeeighths
ENCODING 8540
SWIDTH 850 0
DWIDTH 26 0
BBX 25 21 0 0
BITMAP
7FC03C00
7FC07C00
7FC07800
0780F000
1F81E000
1FC3E000
1FE3C000
F3E78000
FFEF0000
7FDF0000
3F1EFE00
003DFF00
007BFF80
00F9C780
00F1FF00
01E1FF00
03C3CF80
07C3C780
0F83FF80
0F01FF00
1E00FE00
ENDCHAR
STARTCHAR fiveeighths
ENCODING 8541
SWIDTH 850 0
DWIDTH 26 0
BBX 24 21 1 0
BITMAP
7FC078
7FC0F8
7FC0F0
7201E0
FF83C0
FFC7C0
03C780
F3CF00
FFDE00
FFBE00
3F3DFC
007BFE
00F7FF
01F38F
01E3FE
03C3FE
07879F
0F878F
1F07FF
1E03FE
3C01FC
ENDCHAR
STARTCHAR seveneighths
ENCODING 8542
SWIDTH 850 0
DWIDTH 26 0
BBX 23 21 2 0
BITMAP
FF80F0
FF81F0
FF81E0
0783C0
0F8780
0F0F80
1F0F00
3E1E00
3E3C00
7C7C00
007BF8
00F7FC
01EFFE
03E71E
03C7FC
0787FC
0F0F3E
1F0F1E
3E0FFE
3C07FC
7803F8
ENDCHAR
STARTCHAR partialdiff
ENCODING 8706
SWIDTH 850 0
DWIDTH 26 0
BBX 19 21 3 0
BITMAP
07F800
07FC00
01FE00
00FF00
007F80
007F80
003FC0
03FFC0
0FFFE0
3FFFE0
7FFFE0
7FFFE0
7F1FE0
FF0FE0
FF0FE0
7F1FE0
7FFFE0
7FFFC0
3FFF80
1FFF00
03FC00
ENDCHAR
STARTCHAR uni2206
ENCODING 8710
SWIDTH 850 0
DWIDTH 26 0
BBX 22 20 2 0
BITMAP
00FC00
03FE00
03FF00
03FF00
07FF00
07FF80
0FFF80
0FDFC0
1FDFC0
1FCFC0
1F8FE0
3F87E0
3F87F0
7F07F0
7FFFF8
7FFFF8
FFFFF8
FFFFFC
FFFFFC
FFFFFC
ENDCHAR
STARTCHAR product
ENCODING 8719
SWIDTH 850 0
DWIDTH 26 0
BBX 19 26 3 -5
BITMAP
FFFFE0
FFFFE0
FFFFE0
FFFFE0
FFFFE0
FFFFE0
FFFFE0
FE0FE0
FE0FE0
FE0FE0
FE0FE0
FE0FE0
FE0FE0
FE0FE0
FE0FE0
FE0FE0
FE0FE0
FE0FE0
FE0FE0
FE0FE0
FE0FE0
FE0FE0
FE0FE0
FE0FE0
FE0FE0
FE0FE0
ENDCHAR
STARTCHAR summation
ENCODING 8721
SWIDTH 850 0
DWIDTH 26 0
BBX 19 26 3 -5
BITMAP
FFFFE0
FFFFE0
FFFFE0
FFFFE0
FFFFE0
FFFFE0
FFFFE0
3FF000
1FFC00
0FFE00
03FF80
01FFC0
007FE0
007FE0
01FFC0
03FF80
07FE00
1FFC00
3FF000
7FFFE0
FFFFE0
FFFFE0
FFFFE0
FFFFE0
FFFFE0
FFFFE0
ENDCHAR
STARTCHAR minus
ENCODING 8722
SWIDTH 850 0
DWIDTH 26 0
BBX 13 6 6 7
BITMAP
FFF8
FFF8
FFF8
FFF8
FFF8
FFF8
ENDCHAR
STARTCHAR radical
ENCODING 8730
SWIDTH 850 0
DWIDTH 26 0
BBX 24 25 1 0
BITMAP
0003FF
0007FF
0007FF
0007FF
000FFF
000FC0
000FC0
001FC0
001F80
001F80
FC3F80
FC3F00
FE3F00
7E7F00
7E7E00
7F7E00
3F7E00
3FFC00
1FFC00
1FFC00
1FF800
0FF800
0FF800
0FF000
07F000
ENDCHAR
STARTCHAR infinity
ENCODING 8734
SWIDTH 850 0
DWIDTH 26 0
BBX 24 13 1 1
BITMAP
1F81F0
3FC7FC
7FEFFE
FFFFFE
FFFFFF
F8FF1F
F07E1F
F8FF3F
FFFFFF
FFFFFE
7FFFFE
3FC7FC
1F81F0
ENDCHAR
STARTCHAR integral
ENCODING 8747
SWIDTH 850 0
DWIDTH 26 0
BBX 13 26 6 -5
BITMAP
00F8
03F8
07F8
0FF8
0FF8
0FC0
0F80
0F80
0F80
0F80
0F80
0F80
0F80
0F80
0F80
0F80
0F80
0F80
0F80
0F80
1F80
FF80
FF80
FF00
FE00
FC00
ENDCHAR
STARTCHAR approxequal
ENCODING 8776
SWIDTH 850 0
DWIDTH 26 0
BBX 15 14 5 3
BITMAP
3F02
7FFE
FFFE
FFFE
FFFE
FFFE
C0FC
3F02
7FFE
FFFE
FFFE
FFFE
FFFE
C0FC
ENDCHAR
STARTCHAR notequal
ENCODING 8800
SWIDTH 850 0
DWIDTH 26 0
BBX 14 17 6 2
BITMAP
0070
01F0
01F0
FFFC
FFFC
FFFC
FFFC
FFFC
0780
0F80
FFFC
FFFC
FFFC
FFFC
FFFC
7C00
7C00
ENDCHAR
STARTCHAR lessequal
ENCODING 8804
SWIDTH 850 0
DWIDTH 26 0
BBX 14 21 5 0
BITMAP
000C
003C
00FC
07FC
1FFC
7FFC
FFE0
FF00
FFE0
7FFC
1FFC
07FC
00FC
003C
000C
0000
FFFC
FFFC
FFFC
FFFC
FFFC
ENDCHAR
STARTCHAR greaterequal
ENCODING 8805
SWIDTH 850 0
DWIDTH 26 0
BBX 15 21 6 0
BITMAP
C000
F000
FE00
FF80
FFF0
7FFC
1FFE
03FE
1FFE
7FFC
FFF0
FF80
FE00
F000
C000
0000
FFFC
FFFE
FFFE
FFFE
FFFC
ENDCHAR
STARTCHAR lozenge
ENCODING 9674
SWIDTH 850 0
DWIDTH 26 0
BBX 18 21 4 0
BITMAP
03E000
07F000
07F800
0FF800
1FFC00
1FFE00
3FFE00
7F7F00
7E3F80
FE1F80
FC1FC0
FE1F80
7E3F80
7F3F00
3FFE00
1FFE00
1FFC00
0FF800
07F800
07F000
03E000
ENDCHAR
STARTCHAR spade
ENCODING 9824
SWIDTH 850 0
DWIDTH 26 0
BBX 27 21 -1 0
BITMAP
7E0FF000
7C7FFE00
7CFFFF00
7DFFFF80
FBFFFFC0
FBFFFFC0
FBFC3FC0
F3FE0000
F3FFF800
01FFFF00
00FFFF80
007FFFC0
0007FFE0
00003FE0
07FC1FE0
07FFFFE0
03FFFFC0
03FFFFC0
01FFFF80
007FFE00
001FF800
ENDCHAR
STARTCHAR Caron
ENCODING 63178
SWIDTH 850 0
DWIDTH 26 0
BBX 12 4 7 22
BITMAP
E070
FFE0
3FC0
1F80
ENDCHAR
STARTCHAR Macron
ENCODING 63184
SWIDTH 850 0
DWIDTH 26 0
BBX 12 4 7 22
BITMAP
FFF0
FFF0
FFF0
FFF0
ENDCHAR
STARTCHAR shinshindothebrew
ENCODING 64298
SWIDTH 850 0
DWIDTH 26 0
BBX 26 25 0 0
BITMAP
00000600
00000600
00000600
00000000
FE7E1FC0
FE7E1FC0
FE7E1FC0
FE7E1FC0
FE7E1FC0
FE7E1FC0
FE7E1FC0
FE7E1FC0
FEFE1FC0
FEFC1FC0
FFFC1FC0
FFFC1FC0
FFF81FC0
FFF03F80
FFE07F80
7FFFFF80
7FFFFF00
3FFFFF00
1FFFFE00
0FFFFC00
03FFE000
ENDCHAR
STARTCHAR shinsindothebrew
ENCODING 64299
SWIDTH 850 0
DWIDTH 26 0
BBX 26 25 0 0
BITMAP
38000000
38000000
38000000
00000000
FE7E1FC0
FE7E1FC0
FE7E1FC0
FE7E1FC0
FE7E1FC0
FE7E1FC0
FE7E1FC0
FE7E1FC0
FEFE1FC0
FEFC1FC0
FFFC1FC0
FFFC1FC0
FFF81FC0
FFF03F80
FFE07F80
7FFFFF80
7FFFFF00
3FFFFF00
1FFFFE00
0FFFFC00
03FFE000
ENDCHAR
STARTCHAR shindageshshindothebrew
ENCODING 64300
SWIDTH 850 0
DWIDTH 26 0
BBX 26 25 0 0
BITMAP
00000600
00000600
00000600
00000000
FE7E1FC0
FE7E1FC0
FE7E1FC0
FE7E1FC0
FE7E1FC0
FE7E1FC0
FE7E1FC0
FE7E1FC0
FEFE1FC0
FEFDDFC0
FFFDDFC0
FFFDDFC0
FFF81FC0
FFF03F80
FFE07F80
7FFFFF80
7FFFFF00
3FFFFF00
1FFFFE00
0FFFFC00
03FFE000
ENDCHAR
STARTCHAR shindageshsindothebrew
ENCODING 64301
SWIDTH 850 0
DWIDTH 26 0
BBX 26 25 0 0
BITMAP
38000000
38000000
38000000
00000000
FE7E1FC0
FE7E1FC0
FE7E1FC0
FE7E1FC0
FE7E1FC0
FE7E1FC0
FE7E1FC0
FE7E1FC0
FEFE1FC0
FEFDDFC0
FFFDDFC0
FFFDDFC0
FFF81FC0
FFF03F80
FFE07F80
7FFFFF80
7FFFFF00
3FFFFF00
1FFFFE00
0FFFFC00
03FFE000
ENDCHAR
STARTCHAR betdageshhebrew
ENCODING 64305
SWIDTH 850 0
DWIDTH 26 0
BBX 22 21 2 0
BITMAP
FFF000
FFFE00
FFFF00
FFFF80
FFFFC0
FFFFC0
003FC0
003FE0
001FE0
0E1FE0
0E1FE0
0E1FE0
001FE0
001FE0
001FE0
FFFFFC
FFFFFC
FFFFFC
FFFFFC
FFFFFC
FFFFFC
ENDCHAR
STARTCHAR gimeldageshhebrew
ENCODING 64306
SWIDTH 850 0
DWIDTH 26 0
BBX 22 21 3 0
BITMAP
3FE000
3FFC00
3FFE00
3FFF00
3FFF80
3FFF80
007F80
007FC0
383FC0
383FC0
383FC0
03FFC0
1FFFC0
3FFFE0
7FFFE0
7FFFF0
FFFFF0
FF8FF8
FF07F8
FE07FC
FE03FC
ENDCHAR
STARTCHAR daletdageshhebrew
ENCODING 64307
SWIDTH 850 0
DWIDTH 26 0
BBX 19 21 2 0
BITMAP
FFFFE0
FFFFE0
FFFFE0
FFFFE0
FFFFE0
FFFFE0
00FF00
00FF00
00FF00
1CFF00
1CFF00
1CFF00
00FF00
00FF00
00FF00
00FF00
00FF00
00FF00
00FF00
00FF00
00FF00
ENDCHAR
STARTCHAR hedageshhebrew
ENCODING 64308
SWIDTH 850 0
DWIDTH 26 0
BBX 22 21 2 0
BITMAP
FFFE00
FFFFC0
FFFFE0
FFFFF0
FFFFF8
FFFFF8
0007FC
0003FC
FF03FC
FF73FC
FF73FC
FF73FC
FF03FC
FF03FC
FF03FC
FF03FC
FF03FC
FF03FC
FF03FC
FF03FC
FF03FC
ENDCHAR
STARTCHAR vavdagesh65
ENCODING 64309
SWIDTH 850 0
DWIDTH 26 0
BBX 13 21 5 0
BITMAP
FFF8
FFF8
FFF8
FFF8
FFF8
FFF8
07F8
07F8
07F8
E7F8
E7F8
E7F8
07F8
07F8
07F8
07F8
07F8
07F8
07F8
07F8
07F8
ENDCHAR
STARTCHAR zayindageshhebrew
ENCODING 64310
SWIDTH 850 0
DWIDTH 26 0
BBX 17 21 4 0
BITMAP
FFFF80
FFFF80
FFFF80
FFFF80
FFFF80
FFFF80
03FC00
03FC00
03FC00
73FC00
73FC00
73FC00
03FC00
03FC00
03FC00
03FC00
03FC00
03FC00
03FC00
03FC00
03FC00
ENDCHAR
STARTCHAR tetdageshhebrew
ENCODING 64312
SWIDTH 850 0
DWIDTH 26 0
BBX 22 21 2 0
BITMAP
FF3E00
FF3FC0
FF3FE0
FF3FF0
FF3FF8
FF3FF8
FF07FC
FF03FC
FF03FC
FF33FC
FF33FC
FF33FC
FF03FC
FF03FC
FF87FC
7FFFFC
7FFFF8
3FFFF0
1FFFE0
0FFFC0
01FE00
ENDCHAR
STARTCHAR yoddageshhebrew
ENCODING 64313
SWIDTH 850 0
DWIDTH 26 0
BBX 13 13 6 8
BITMAP
FFF8
FFF8
FFF8
FFF8
FFF8
FFF8
0FF8
0FF8
CFF8
CFF8
CFF8
0FF8
0FF8
ENDCHAR
STARTCHAR finalkafdageshhebrew
ENCODING 64314
SWIDTH 850 0
DWIDTH 26 0
BBX 19 25 3 -4
BITMAP
FFFFC0
FFFFE0
FFFFE0
FFFFE0
FFFFE0
FFFFC0
01FE00
01FE00
01FE00
39FE00
39FE00
39FE00
01FE00
01FE00
01FE00
01FE00
01FE00
01FE00
01FE00
01FE00
01FE00
01FE00
01FE00
01FE00
01FE00
ENDCHAR
STARTCHAR kafdageshhebrew
ENCODING 64315
SWIDTH 850 0
DWIDTH 26 0
BBX 21 21 2 0
BITMAP
FFFC00
FFFF80
FFFFC0
FFFFE0
FFFFF0
FFFFF0
000FF8
000FF8
0007F8
0707F8
0707F8
0707F8
0007F8
000FF8
000FF8
FFFFF0
FFFFF0
FFFFE0
FFFFC0
FFFF80
FFFC00
ENDCHAR
STARTCHAR lameddageshhebrew
ENCODING 64316
SWIDTH 850 0
DWIDTH 26 0
BBX 18 26 3 0
BITMAP
FC0000
FC0000
FC0000
FC0000
FC0000
FFFFC0
FFFFC0
FFFFC0
FFFFC0
FFFFC0
FFFFC0
003FC0
003FC0
003FC0
0C3FC0
0C3FC0
0C3FC0
003FC0
007FC0
007FC0
07FF80
07FF80
07FF00
07FE00
07FC00
07E000
ENDCHAR
STARTCHAR memdageshhebrew
ENCODING 64318
SWIDTH 850 0
DWIDTH 26 0
BBX 24 21 0 0
BITMAP
7FFFC0
FFFFF0
FFFFFC
FFFFFE
FFFFFE
7FFFFF
0FF1FF
0FF0FF
1FF0FF
1FEEFF
1FEEFF
1FEEFF
3FE0FF
3FC0FF
3FC0FF
3FC7FF
7FC7FF
7F87FF
7F87FF
7F87FF
FF87FF
ENDCHAR
STARTCHAR nundageshhebrew
ENCODING 64320
SWIDTH 850 0
DWIDTH 26 0
BBX 14 21 6 0
BITMAP
FE00
FFC0
FFE0
FFF0
FFF8
FFF8
FFF8
07FC
07FC
73FC
73FC
73FC
03FC
03FC
03FC
FFFC
FFFC
FFFC
FFFC
FFFC
FFFC
ENDCHAR
STARTCHAR samekhdageshhebrew
ENCODING 64321
SWIDTH 850 0
DWIDTH 26 0
BBX 21 21 3 0
BITMAP
FFFC00
FFFF80
FFFFC0
FFFFE0
FFFFF0
FFFFF0
FE0FF8
FE07F8
FE07F8
FE67F8
FE67F8
FE67F8
FE07F8
FF07F8
FF0FF8
FFFFF0
7FFFF0
7FFFE0
3FFFC0
1FFF80
03FC00
ENDCHAR
STARTCHAR pedageshhebrew
ENCODING 64324
SWIDTH 850 0
DWIDTH 26 0
BBX 23 21 2 0
BITMAP
FFFF00
FFFFC0
FFFFF0
FFFFF8
FFFFFC
FFFFFC
FE07FC
FFC3FC
FFC3FE
7FDFFE
7FDFFE
3FDFFE
0FC3FE
0003FC
0003FC
FFFFFC
FFFFF8
FFFFF8
FFFFF0
FFFFC0
FFFF00
ENDCHAR
STARTCHAR tsadidageshhebrew
ENCODING 64326
SWIDTH 850 0
DWIDTH 26 0
BBX 22 21 2 0
BITMAP
FF83FC
FFC3FC
7FC3FC
3FE3FC
1FF3FC
1FFBFC
0FFBFC
07FFF8
03FFF8
3BFFF8
39FFF0
38FFE0
007FC0
007FE0
003FE0
FFFFF0
FFFFF0
FFFFF0
FFFFF0
FFFFF0
FFFFF0
ENDCHAR
STARTCHAR qofdageshhebrew
ENCODING 64327
SWIDTH 850 0
DWIDTH 26 0
BBX 22 25 2 -4
BITMAP
FFFFFC
FFFFFC
FFFFFC
FFFFFC
FFFFFC
FFFFFC
0003FC
0003FC
FF03FC
FF33FC
FF33FC
FF33FC
FF03FC
FF03FC
FF07FC
FF3FF8
FF3FF8
FF3FF0
FF3FF0
FF3FC0
FF3F00
FF0000
FF0000
FF0000
FF0000
ENDCHAR
STARTCHAR shindageshhebrew
ENCODING 64329
SWIDTH 850 0
DWIDTH 26 0
BBX 26 21 0 0
BITMAP
FE7E1FC0
FE7E1FC0
FE7E1FC0
FE7E1FC0
FE7E1FC0
FE7E1FC0
FE7E1FC0
FE7E1FC0
FEFE1FC0
FEFDDFC0
FFFDDFC0
FFFDDFC0
FFF81FC0
FFF03F80
FFE07F80
7FFFFF80
7FFFFF00
3FFFFF00
1FFFFE00
0FFFFC00
03FFE000
ENDCHAR
STARTCHAR tavdageshhebrew
ENCODING 64330
SWIDTH 850 0
DWIDTH 26 0
BBX 24 21 1 0
BITMAP
FFFF80
FFFFF0
FFFFF8
FFFFFC
FFFFFE
FFFFFE
1FE1FE
1FE1FF
1FE0FF
1FEEFF
1FEEFF
1FEEFF
1FE0FF
1FE0FF
1FE0FF
FFE0FF
FFE0FF
FFE0FF
FFE0FF
FFE0FF
FFE0FF
ENDCHAR
STARTCHAR .notdef
ENCODING -1
SWIDTH 850 0
DWIDTH 26 0
BBX 1 1 0 0
BITMAP
00
ENDCHAR
STARTCHAR .null
ENCODING -1
SWIDTH 0 0
DWIDTH 0 0
BBX 1 1 0 0
BITMAP
00
ENDCHAR
STARTCHAR nonmarkingreturn
ENCODING -1
SWIDTH 333 0
DWIDTH 10 0
BBX 1 1 0 0
BITMAP
00
ENDCHAR
ENDFONT
